<svg id="visual" viewBox="0 0 1000 100" width="1000" height="100" xmlns="http://www.w3.org/2000/svg" xmlns:xlink="http://www.w3.org/1999/xlink" version="1.1"><rect width="1000" height="100" fill="#faf9f6"></rect><g><g transform="translate(536 32)"><path d="M5.5 -1.8C6.3 0.8 5.7 3.9 3.7 5.6C1.6 7.2 -1.9 7.3 -4.1 5.7C-6.4 4.1 -7.3 0.7 -6.4 -2.1C-5.5 -4.8 -2.8 -6.9 -0.2 -6.8C2.3 -6.8 4.6 -4.5 5.5 -1.8Z" stroke="#add8e6" fill="none" stroke-width="6"></path></g><g transform="translate(344 67)"><path d="M5.2 -1.5C6 0.7 5.3 3.6 3.5 5C1.6 6.4 -1.4 6.2 -3.3 4.8C-5.1 3.4 -5.7 0.7 -5 -1.5C-4.2 -3.6 -2.1 -5.2 0 -5.2C2.2 -5.2 4.4 -3.7 5.2 -1.5Z" stroke="#add8e6" fill="none" stroke-width="6"></path></g><g transform="translate(619 94)"><path d="M4.7 -1.6C5.3 0.4 4.5 2.8 2.7 4.1C1 5.5 -1.8 5.8 -3.5 4.6C-5.3 3.4 -6.1 0.6 -5.4 -1.6C-4.6 -3.9 -2.3 -5.5 -0.1 -5.4C2 -5.4 4 -3.7 4.7 -1.6Z" stroke="#add8e6" fill="none" stroke-width="6"></path></g><g transform="translate(55 82)"><path d="M5.7 -1.9C6.4 0.3 5.3 3.1 3.4 4.3C1.5 5.6 -1.1 5.4 -3 4.1C-5 2.7 -6.1 0.2 -5.5 -1.9C-4.9 -4 -2.4 -5.6 0 -5.6C2.5 -5.7 5 -4.1 5.7 -1.9Z" stroke="#add8e6" fill="none" stroke-width="6"></path></g><g transform="translate(273 92)"><path d="M5.1 -1.9C5.7 0.3 4.8 2.7 2.9 4.1C1 5.5 -1.7 5.8 -3.3 4.6C-4.9 3.4 -5.4 0.8 -4.7 -1.6C-3.9 -3.9 -2 -5.9 0.1 -6C2.2 -6 4.5 -4.1 5.1 -1.9Z" stroke="#add8e6" fill="none" stroke-width="6"></path></g><g transform="translate(549 91)"><path d="M4.5 -1.6C5.2 0.5 4.6 3 3 4.1C1.4 5.3 -1.1 5.2 -3 3.9C-4.8 2.6 -5.9 0.1 -5.3 -2C-4.7 -4.1 -2.4 -5.9 -0.2 -5.8C1.9 -5.7 3.9 -3.8 4.5 -1.6Z" stroke="#add8e6" fill="none" stroke-width="6"></path></g><g transform="translate(407 87)"><path d="M5.5 -1.8C6.3 0.6 5.4 3.4 3.5 4.9C1.5 6.3 -1.5 6.3 -3.3 4.9C-5 3.6 -5.4 0.8 -4.6 -1.5C-3.9 -3.8 -1.9 -5.8 0.2 -5.9C2.4 -5.9 4.7 -4.1 5.5 -1.8Z" stroke="#add8e6" fill="none" stroke-width="6"></path></g><g transform="translate(425 70)"><path d="M4.6 -1.7C5.2 0.4 4.5 2.8 2.8 4.1C1.1 5.4 -1.5 5.5 -3.3 4.3C-5 3.1 -5.9 0.4 -5.2 -1.8C-4.5 -4 -2.3 -5.8 -0.1 -5.7C2 -5.7 4 -3.8 4.6 -1.7Z" stroke="#add8e6" fill="none" stroke-width="6"></path></g><g transform="translate(389 71)"><path d="M5.6 -1.7C6.4 0.6 5.5 3.5 3.6 4.9C1.6 6.4 -1.5 6.3 -3.4 4.9C-5.3 3.4 -6.1 0.6 -5.3 -1.6C-4.6 -3.9 -2.3 -5.6 0.1 -5.6C2.4 -5.6 4.9 -4 5.6 -1.7Z" stroke="#add8e6" fill="none" stroke-width="6"></path></g><g transform="translate(740 66)"><path d="M4.8 -1.8C5.4 0.3 4.5 2.6 2.7 4C0.8 5.4 -1.9 5.9 -3.6 4.7C-5.2 3.6 -5.8 0.7 -5.1 -1.6C-4.3 -4 -2.1 -5.8 0 -5.8C2.1 -5.8 4.2 -3.9 4.8 -1.8Z" stroke="#add8e6" fill="none" stroke-width="6"></path></g><g transform="translate(939 59)"><path d="M5.4 -1.9C6 0.1 4.8 2.5 2.9 3.8C1.1 5 -1.4 5.2 -3.2 4C-4.9 2.8 -6 0.2 -5.4 -1.8C-4.7 -3.9 -2.4 -5.4 0 -5.4C2.4 -5.4 4.8 -3.9 5.4 -1.9Z" stroke="#add8e6" fill="none" stroke-width="6"></path></g><g transform="translate(376 84)"><path d="M5.4 -1.7C6.1 0.4 5.2 3.1 3.4 4.4C1.6 5.6 -1.1 5.4 -3 4.1C-4.9 2.7 -6 0.2 -5.4 -1.8C-4.7 -3.9 -2.4 -5.5 0 -5.5C2.4 -5.5 4.7 -3.9 5.4 -1.7Z" stroke="#add8e6" fill="none" stroke-width="6"></path></g><g transform="translate(767 24)"><path d="M5.5 -2C6.1 0.1 4.9 2.6 3 3.8C1.2 5.1 -1.3 5.2 -3.1 3.9C-4.9 2.7 -6 0.2 -5.4 -1.9C-4.8 -4 -2.4 -5.7 0 -5.7C2.4 -5.7 4.9 -4.1 5.5 -2Z" stroke="#add8e6" fill="none" stroke-width="6"></path></g><g transform="translate(671 31)"><path d="M5.1 -1.9C5.7 0.2 4.7 2.6 2.9 3.9C1.1 5.2 -1.4 5.3 -3.1 4.1C-4.7 3 -5.5 0.5 -4.8 -1.8C-4.1 -4 -2.1 -6 0.1 -6C2.2 -6.1 4.5 -4.1 5.1 -1.9Z" stroke="#add8e6" fill="none" stroke-width="6"></path></g><g transform="translate(513 80)"><path d="M5.7 -1.7C6.4 0.5 5.5 3.4 3.5 4.7C1.6 6.1 -1.4 6 -3.4 4.6C-5.4 3.1 -6.4 0.4 -5.7 -1.7C-5 -3.8 -2.5 -5.2 0 -5.2C2.5 -5.2 4.9 -3.8 5.7 -1.7Z" stroke="#add8e6" fill="none" stroke-width="6"></path></g><g transform="translate(126 89)"><path d="M4.6 -1.5C5.4 0.9 5 3.6 3.4 4.8C1.9 5.9 -0.9 5.5 -2.6 4.1C-4.4 2.7 -5.1 0.4 -4.5 -1.7C-3.9 -3.8 -1.9 -5.7 0 -5.7C1.9 -5.7 3.8 -3.8 4.6 -1.5Z" stroke="#add8e6" fill="none" stroke-width="6"></path></g><g transform="translate(967 73)"><path d="M5.3 -1.7C6 0.4 5 3 3.2 4.4C1.3 5.7 -1.4 5.7 -3.2 4.4C-5 3.1 -5.8 0.5 -5.1 -1.6C-4.4 -3.8 -2.2 -5.4 0 -5.4C2.3 -5.4 4.6 -3.8 5.3 -1.7Z" stroke="#add8e6" fill="none" stroke-width="6"></path></g><g transform="translate(842 11)"><path d="M4.9 -1.3C5.7 0.8 5.2 3.6 3.4 5C1.6 6.3 -1.5 6.3 -3.3 4.9C-5.1 3.5 -5.7 0.7 -4.9 -1.4C-4.2 -3.5 -2.1 -4.9 0 -4.9C2.1 -4.9 4.1 -3.4 4.9 -1.3Z" stroke="#add8e6" fill="none" stroke-width="6"></path></g><g transform="translate(906 46)"><path d="M5 -1.6C5.8 0.7 5.2 3.5 3.4 4.8C1.7 6.1 -1.2 5.9 -3.2 4.5C-5.2 3 -6.3 0.3 -5.6 -1.9C-4.9 -4.1 -2.5 -5.7 -0.2 -5.7C2.1 -5.6 4.3 -3.8 5 -1.6Z" stroke="#add8e6" fill="none" stroke-width="6"></path></g><g transform="translate(104 76)"><path d="M5.6 -1.8C6.2 0.1 4.9 2.6 3 4C1 5.5 -1.8 5.8 -3.6 4.6C-5.3 3.4 -6.1 0.6 -5.4 -1.5C-4.6 -3.6 -2.3 -5 0.1 -5C2.5 -5 5 -3.7 5.6 -1.8Z" stroke="#add8e6" fill="none" stroke-width="6"></path></g><g transform="translate(49 34)"><path d="M5 -1.6C5.7 0.8 5.2 3.6 3.5 4.9C1.8 6.1 -1.1 5.8 -3 4.3C-4.9 2.9 -5.8 0.4 -5.2 -1.9C-4.5 -4.1 -2.3 -5.9 -0.1 -5.9C2.1 -5.9 4.2 -3.9 5 -1.6Z" stroke="#add8e6" fill="none" stroke-width="6"></path></g><g transform="translate(66 22)"><path d="M4.9 -1.7C5.5 0.4 4.7 2.9 2.9 4.3C1.1 5.6 -1.6 5.9 -3.4 4.6C-5.2 3.3 -6 0.6 -5.2 -1.6C-4.5 -3.8 -2.2 -5.5 -0.1 -5.5C2.1 -5.5 4.2 -3.8 4.9 -1.7Z" stroke="#add8e6" fill="none" stroke-width="6"></path></g><g transform="translate(334 7)"><path d="M5.7 -1.7C6.3 0.3 5.2 3 3.3 4.4C1.3 5.8 -1.5 5.8 -3.2 4.6C-4.8 3.3 -5.4 0.7 -4.7 -1.3C-3.9 -3.3 -2 -4.7 0.3 -4.8C2.5 -4.9 5 -3.7 5.7 -1.7Z" stroke="#add8e6" fill="none" stroke-width="6"></path></g><g transform="translate(526 4)"><path d="M5.1 -1.7C5.7 0.3 4.8 2.9 2.9 4.3C1.1 5.7 -1.8 6 -3.5 4.8C-5.3 3.5 -6 0.7 -5.3 -1.5C-4.5 -3.7 -2.2 -5.3 0 -5.3C2.2 -5.3 4.4 -3.7 5.1 -1.7Z" stroke="#add8e6" fill="none" stroke-width="6"></path></g><g transform="translate(997 17)"><path d="M5.7 -1.6C6.5 0.5 5.5 3.4 3.6 4.7C1.7 6.1 -1.2 5.9 -3.1 4.5C-4.9 3.1 -5.7 0.5 -5 -1.5C-4.3 -3.4 -2.2 -4.8 0.2 -4.8C2.5 -4.9 5 -3.6 5.7 -1.6Z" stroke="#add8e6" fill="none" stroke-width="6"></path></g><g transform="translate(859 72)"><path d="M4.5 -1.5C5.2 0.6 4.6 3.1 3 4.4C1.3 5.6 -1.5 5.7 -3.2 4.5C-4.9 3.2 -5.5 0.6 -4.8 -1.5C-4.1 -3.7 -2.1 -5.3 -0.1 -5.3C1.9 -5.3 3.9 -3.6 4.5 -1.5Z" stroke="#add8e6" fill="none" stroke-width="6"></path></g><g transform="translate(349 94)"><path d="M5.3 -1.5C6 0.7 5.3 3.5 3.5 4.9C1.7 6.2 -1.3 6 -3.1 4.6C-4.9 3.2 -5.6 0.6 -4.8 -1.4C-4.1 -3.5 -2.1 -4.9 0.1 -4.9C2.3 -4.9 4.5 -3.6 5.3 -1.5Z" stroke="#add8e6" fill="none" stroke-width="6"></path></g><g transform="translate(612 64)"><path d="M5.2 -1.8C5.9 0.5 5.1 3.1 3.3 4.4C1.5 5.6 -1.2 5.5 -3.1 4.2C-5 2.8 -6.2 0.2 -5.5 -2C-4.9 -4.1 -2.4 -5.9 -0.1 -5.9C2.3 -5.8 4.5 -4 5.2 -1.8Z" stroke="#add8e6" fill="none" stroke-width="6"></path></g><g transform="translate(323 59)"><path d="M5.4 -1.7C6.1 0.6 5.3 3.4 3.5 4.7C1.6 6 -1.2 5.8 -3.2 4.4C-5.1 3 -6.1 0.3 -5.5 -1.9C-4.8 -4.1 -2.4 -5.8 0 -5.8C2.3 -5.8 4.6 -4 5.4 -1.7Z" stroke="#add8e6" fill="none" stroke-width="6"></path></g><g transform="translate(3 50)"><path d="M5.8 -1.9C6.5 0.3 5.4 3.1 3.4 4.6C1.3 6.1 -1.7 6.2 -3.5 4.9C-5.2 3.6 -5.8 0.7 -5.1 -1.6C-4.3 -4 -2.1 -5.8 0.2 -5.9C2.5 -6 5.1 -4.2 5.8 -1.9Z" stroke="#add8e6" fill="none" stroke-width="6"></path></g><g transform="translate(375 28)"><path d="M5.6 -1.8C6.4 0.5 5.5 3.5 3.6 4.8C1.8 6.1 -1.1 5.8 -2.9 4.4C-4.6 3 -5.2 0.6 -4.6 -1.7C-3.9 -3.9 -2 -5.9 0.2 -6C2.4 -6 4.9 -4.2 5.6 -1.8Z" stroke="#add8e6" fill="none" stroke-width="6"></path></g><g transform="translate(192 20)"><path d="M5 -1.8C5.7 0.3 4.7 2.8 3 4C1.3 5.3 -1.3 5.2 -3 4C-4.7 2.8 -5.7 0.3 -5 -1.8C-4.4 -3.9 -2.2 -5.6 0 -5.6C2.2 -5.6 4.4 -3.9 5 -1.8Z" stroke="#add8e6" fill="none" stroke-width="6"></path></g><g transform="translate(561 76)"><path d="M4.6 -1.5C5.3 0.6 4.7 3.1 3 4.5C1.2 5.8 -1.7 6 -3.3 4.8C-4.9 3.5 -5.3 0.8 -4.6 -1.3C-3.8 -3.5 -1.9 -5.2 0 -5.2C2 -5.2 4 -3.6 4.6 -1.5Z" stroke="#add8e6" fill="none" stroke-width="6"></path></g><g transform="translate(778 61)"><path d="M4.9 -1.8C5.5 0.2 4.5 2.6 2.7 4C0.8 5.4 -1.9 5.9 -3.8 4.7C-5.6 3.5 -6.5 0.5 -5.8 -1.8C-5 -4.1 -2.5 -5.8 -0.2 -5.8C2.1 -5.7 4.3 -3.9 4.9 -1.8Z" stroke="#add8e6" fill="none" stroke-width="6"></path></g><g transform="translate(644 98)"><path d="M4.9 -1.9C5.5 0.3 4.6 2.6 2.9 3.8C1.2 5 -1.2 5 -2.9 3.8C-4.6 2.6 -5.5 0.3 -4.9 -1.9C-4.3 -4 -2.1 -5.9 0 -5.9C2.2 -5.9 4.3 -4 4.9 -1.9Z" stroke="#add8e6" fill="none" stroke-width="6"></path></g><g transform="translate(240 16)"><path d="M4.8 -1.3C5.5 0.7 5 3.4 3.3 4.7C1.6 5.9 -1.2 5.7 -3.1 4.4C-5 3 -6 0.4 -5.3 -1.6C-4.6 -3.6 -2.3 -4.9 -0.1 -4.9C2 -4.8 4.1 -3.4 4.8 -1.3Z" stroke="#add8e6" fill="none" stroke-width="6"></path></g><g transform="translate(806 7)"><path d="M5.1 -1.6C5.8 0.5 5 3.1 3.1 4.6C1.3 6 -1.7 6.2 -3.4 4.9C-5.1 3.6 -5.6 0.8 -4.9 -1.4C-4.1 -3.5 -2 -5.1 0.1 -5.1C2.2 -5.1 4.4 -3.6 5.1 -1.6Z" stroke="#add8e6" fill="none" stroke-width="6"></path></g><g transform="translate(665 94)"><path d="M5.6 -1.7C6.4 0.6 5.5 3.5 3.6 5C1.6 6.4 -1.5 6.3 -3.3 4.9C-5.2 3.4 -5.9 0.6 -5.2 -1.6C-4.4 -3.8 -2.2 -5.5 0.1 -5.6C2.4 -5.6 4.8 -4 5.6 -1.7Z" stroke="#add8e6" fill="none" stroke-width="6"></path></g><g transform="translate(108 9)"><path d="M5.7 -1.6C6.5 0.5 5.6 3.5 3.7 4.8C1.8 6.2 -1.1 5.9 -3 4.5C-4.8 3 -5.5 0.5 -4.8 -1.5C-4.1 -3.5 -2.1 -4.9 0.2 -5C2.5 -5.1 5 -3.7 5.7 -1.6Z" stroke="#add8e6" fill="none" stroke-width="6"></path></g><g transform="translate(467 81)"><path d="M5.6 -1.7C6.3 0.5 5.4 3.4 3.4 4.8C1.5 6.2 -1.6 6.3 -3.4 4.9C-5.3 3.5 -6 0.7 -5.2 -1.5C-4.4 -3.7 -2.2 -5.3 0.1 -5.3C2.4 -5.4 4.8 -3.9 5.6 -1.7Z" stroke="#add8e6" fill="none" stroke-width="6"></path></g><g transform="translate(822 64)"><path d="M5.2 -1.6C5.9 0.5 5.1 3.3 3.2 4.7C1.3 6.1 -1.7 6.3 -3.4 4.9C-5.2 3.6 -5.7 0.8 -4.9 -1.4C-4.1 -3.7 -2.1 -5.4 0.1 -5.4C2.2 -5.5 4.5 -3.8 5.2 -1.6Z" stroke="#add8e6" fill="none" stroke-width="6"></path></g><g transform="translate(139 37)"><path d="M5.6 -1.7C6.3 0.3 5.2 3 3.3 4.4C1.3 5.8 -1.5 5.8 -3.4 4.5C-5.4 3.1 -6.4 0.3 -5.7 -1.7C-5 -3.8 -2.5 -5.2 0 -5.2C2.5 -5.2 4.9 -3.8 5.6 -1.7Z" stroke="#add8e6" fill="none" stroke-width="6"></path></g><g transform="translate(949 31)"><path d="M5.6 -1.8C6.3 0.2 5.1 2.9 3.3 4.1C1.4 5.4 -1.2 5.3 -3 4C-4.9 2.7 -5.9 0.2 -5.3 -1.7C-4.6 -3.7 -2.3 -5.2 0.1 -5.2C2.5 -5.2 4.9 -3.8 5.6 -1.8Z" stroke="#add8e6" fill="none" stroke-width="6"></path></g><g transform="translate(150 63)"><path d="M5.3 -1.5C6 0.5 5.1 3.2 3.3 4.5C1.5 5.8 -1.3 5.7 -3.1 4.4C-5 3 -5.8 0.4 -5.2 -1.6C-4.5 -3.6 -2.2 -4.9 0 -4.9C2.3 -4.9 4.5 -3.6 5.3 -1.5Z" stroke="#add8e6" fill="none" stroke-width="6"></path></g><g transform="translate(47 55)"><path d="M5.2 -1.8C5.8 0.3 4.8 2.8 3 4.1C1.2 5.4 -1.5 5.6 -3.1 4.4C-4.8 3.2 -5.4 0.6 -4.7 -1.6C-4 -3.8 -2 -5.7 0.1 -5.7C2.3 -5.8 4.5 -4 5.2 -1.8Z" stroke="#add8e6" fill="none" stroke-width="6"></path></g><g transform="translate(492 34)"><path d="M4.8 -1.4C5.5 0.7 4.9 3.3 3.2 4.6C1.4 5.9 -1.4 5.9 -3.3 4.6C-5.1 3.2 -5.9 0.5 -5.1 -1.5C-4.4 -3.5 -2.2 -4.9 -0.1 -4.8C2.1 -4.8 4.1 -3.4 4.8 -1.4Z" stroke="#add8e6" fill="none" stroke-width="6"></path></g><g transform="translate(87 62)"><path d="M5 -1.7C5.6 0.3 4.7 2.7 2.8 4.1C1 5.5 -1.7 5.8 -3.5 4.6C-5.3 3.4 -6.1 0.5 -5.4 -1.7C-4.6 -3.9 -2.3 -5.5 -0.1 -5.5C2.2 -5.5 4.3 -3.8 5 -1.7Z" stroke="#add8e6" fill="none" stroke-width="6"></path></g><g transform="translate(587 71)"><path d="M5.4 -1.7C6 0.2 4.9 2.8 3.1 4C1.3 5.3 -1.2 5.2 -2.9 4C-4.5 2.8 -5.2 0.4 -4.6 -1.5C-3.9 -3.4 -2 -4.9 0.2 -5C2.4 -5 4.7 -3.7 5.4 -1.7Z" stroke="#add8e6" fill="none" stroke-width="6"></path></g><g transform="translate(358 53)"><path d="M4.6 -1.5C5.2 0.4 4.4 2.8 2.8 4C1.2 5.1 -1.3 5.2 -3 4C-4.7 2.7 -5.6 0.3 -5 -1.6C-4.3 -3.5 -2.2 -4.9 -0.1 -4.9C2 -4.8 3.9 -3.4 4.6 -1.5Z" stroke="#add8e6" fill="none" stroke-width="6"></path></g><g transform="translate(665 57)"><path d="M4.5 -1.6C5.1 0.5 4.5 3 2.9 4.2C1.3 5.4 -1.3 5.4 -3.1 4.2C-4.9 2.9 -5.8 0.4 -5.1 -1.8C-4.4 -3.9 -2.2 -5.7 -0.2 -5.6C1.9 -5.6 3.8 -3.7 4.5 -1.6Z" stroke="#add8e6" fill="none" stroke-width="6"></path></g><g transform="translate(705 17)"><path d="M5.4 -1.9C6.1 0.3 5 2.9 3.2 4.1C1.4 5.4 -1.2 5.3 -3 4C-4.7 2.7 -5.7 0.3 -5.1 -1.9C-4.5 -4 -2.2 -5.9 0.1 -5.9C2.4 -5.9 4.7 -4.1 5.4 -1.9Z" stroke="#add8e6" fill="none" stroke-width="6"></path></g><g transform="translate(306 82)"><path d="M4.7 -1.5C5.4 0.7 4.9 3.4 3.3 4.6C1.7 5.8 -1.1 5.5 -3 4.1C-4.9 2.7 -5.9 0.2 -5.3 -1.9C-4.7 -4.1 -2.3 -5.8 -0.2 -5.8C2 -5.7 3.9 -3.8 4.7 -1.5Z" stroke="#add8e6" fill="none" stroke-width="6"></path></g><g transform="translate(875 85)"><path d="M5.2 -1.7C6 0.6 5.3 3.5 3.6 4.6C1.8 5.8 -0.9 5.4 -2.6 4C-4.4 2.6 -5.3 0.3 -4.7 -1.8C-4.1 -3.9 -2 -5.8 0.1 -5.8C2.2 -5.9 4.5 -4 5.2 -1.7Z" stroke="#add8e6" fill="none" stroke-width="6"></path></g><g transform="translate(173 47)"><path d="M4.5 -1.5C5.1 0.4 4.3 2.7 2.6 4C0.9 5.3 -1.7 5.7 -3.4 4.5C-5.2 3.3 -6 0.5 -5.2 -1.5C-4.5 -3.6 -2.3 -5.1 -0.1 -5C2 -5 3.9 -3.4 4.5 -1.5Z" stroke="#add8e6" fill="none" stroke-width="6"></path></g><g transform="translate(614 11)"><path d="M4.6 -1.6C5.3 0.7 4.8 3.3 3.2 4.4C1.6 5.6 -1 5.3 -2.7 4C-4.4 2.7 -5.2 0.4 -4.6 -1.8C-4 -3.9 -2 -5.9 0 -5.9C1.9 -5.9 3.9 -3.9 4.6 -1.6Z" stroke="#add8e6" fill="none" stroke-width="6"></path></g><g transform="translate(538 60)"><path d="M4.6 -1.2C5.4 0.9 5 3.6 3.3 5C1.5 6.4 -1.5 6.4 -3.4 5C-5.2 3.6 -5.7 0.8 -5 -1.3C-4.2 -3.4 -2.1 -4.8 -0.1 -4.8C1.9 -4.8 3.9 -3.3 4.6 -1.2Z" stroke="#add8e6" fill="none" stroke-width="6"></path></g><g transform="translate(76 41)"><path d="M5.5 -1.5C6.3 0.6 5.5 3.5 3.5 5C1.6 6.4 -1.5 6.4 -3.4 5C-5.2 3.5 -5.9 0.7 -5.1 -1.4C-4.3 -3.5 -2.2 -4.8 0.1 -4.9C2.4 -4.9 4.7 -3.6 5.5 -1.5Z" stroke="#add8e6" fill="none" stroke-width="6"></path></g><g transform="translate(549 2)"><path d="M5.2 -1.9C5.8 0.3 4.8 2.8 3 4.1C1.2 5.4 -1.5 5.5 -3.3 4.2C-5.2 2.9 -6.4 0.2 -5.7 -1.9C-5 -4.1 -2.5 -5.8 -0.1 -5.7C2.3 -5.7 4.6 -4 5.2 -1.9Z" stroke="#add8e6" fill="none" stroke-width="6"></path></g><g transform="translate(924 14)"><path d="M5.7 -1.8C6.4 0.3 5.3 3.1 3.4 4.4C1.5 5.7 -1.3 5.6 -3.2 4.3C-5.1 2.9 -6.2 0.3 -5.5 -1.8C-4.8 -3.8 -2.4 -5.3 0 -5.3C2.5 -5.3 5 -3.9 5.7 -1.8Z" stroke="#add8e6" fill="none" stroke-width="6"></path></g><g transform="translate(732 14)"><path d="M4.5 -1.5C5.2 0.5 4.5 2.9 2.9 4.2C1.2 5.4 -1.4 5.5 -3.3 4.2C-5.2 2.9 -6.4 0.2 -5.7 -1.8C-5 -3.9 -2.5 -5.3 -0.3 -5.2C1.9 -5.2 3.9 -3.5 4.5 -1.5Z" stroke="#add8e6" fill="none" stroke-width="6"></path></g><g transform="translate(427 16)"><path d="M5.3 -1.7C6 0.4 5.1 3.1 3.3 4.4C1.6 5.6 -1.1 5.4 -3.1 4C-5 2.6 -6.3 0.1 -5.6 -1.9C-5 -4 -2.5 -5.5 -0.1 -5.5C2.3 -5.4 4.6 -3.8 5.3 -1.7Z" stroke="#add8e6" fill="none" stroke-width="6"></path></g><g transform="translate(872 52)"><path d="M5.6 -1.8C6.3 0.4 5.3 3.2 3.4 4.6C1.4 6 -1.5 6 -3.3 4.7C-5.1 3.3 -5.8 0.6 -5.1 -1.6C-4.4 -3.8 -2.2 -5.5 0.1 -5.5C2.4 -5.6 4.9 -4 5.6 -1.8Z" stroke="#add8e6" fill="none" stroke-width="6"></path></g><g transform="translate(276 44)"><path d="M4.7 -1.6C5.5 0.6 4.8 3.2 3.1 4.5C1.4 5.9 -1.5 5.9 -3.4 4.6C-5.4 3.2 -6.4 0.4 -5.7 -1.9C-5 -4.1 -2.5 -5.8 -0.2 -5.7C2 -5.7 4 -3.8 4.7 -1.6Z" stroke="#add8e6" fill="none" stroke-width="6"></path></g><g transform="translate(158 14)"><path d="M4.7 -1.5C5.4 0.6 4.8 3.1 3.1 4.4C1.5 5.6 -1.2 5.4 -3 4.1C-4.8 2.8 -5.8 0.3 -5.2 -1.7C-4.5 -3.7 -2.3 -5.3 -0.1 -5.2C2 -5.2 4 -3.6 4.7 -1.5Z" stroke="#add8e6" fill="none" stroke-width="6"></path></g><g transform="translate(273 11)"><path d="M4.7 -1.5C5.5 0.9 5 3.6 3.5 4.7C1.9 5.9 -0.8 5.4 -2.6 4C-4.4 2.6 -5.2 0.3 -4.7 -1.8C-4.1 -4 -2 -6 0 -6C2 -5.9 3.9 -3.9 4.7 -1.5Z" stroke="#add8e6" fill="none" stroke-width="6"></path></g><g transform="translate(516 52)"><path d="M5.7 -1.9C6.5 0.4 5.4 3.3 3.5 4.7C1.5 6.1 -1.5 6.2 -3.4 4.8C-5.3 3.4 -6 0.6 -5.3 -1.8C-4.5 -4.1 -2.3 -6 0.1 -6C2.5 -6.1 5 -4.3 5.7 -1.9Z" stroke="#add8e6" fill="none" stroke-width="6"></path></g><g transform="translate(47 10)"><path d="M4.7 -1.3C5.5 0.8 5.1 3.6 3.4 4.8C1.7 6 -1.1 5.7 -3.1 4.3C-5.2 2.8 -6.4 0.2 -5.7 -1.8C-5.1 -3.7 -2.5 -5 -0.3 -4.9C2 -4.8 4 -3.4 4.7 -1.3Z" stroke="#add8e6" fill="none" stroke-width="6"></path></g><g transform="translate(451 24)"><path d="M5.3 -1.6C6 0.5 5.1 3.2 3.2 4.5C1.4 5.9 -1.5 6 -3.3 4.6C-5.1 3.3 -5.7 0.6 -5 -1.4C-4.3 -3.5 -2.1 -4.9 0.1 -4.9C2.3 -4.9 4.5 -3.6 5.3 -1.6Z" stroke="#add8e6" fill="none" stroke-width="6"></path></g><g transform="translate(643 59)"><path d="M5.7 -1.7C6.5 0.4 5.4 3.2 3.6 4.5C1.7 5.7 -1 5.4 -3 4C-5 2.6 -6.3 0.1 -5.6 -1.8C-5 -3.7 -2.5 -5 0 -5C2.5 -5 5 -3.7 5.7 -1.7Z" stroke="#add8e6" fill="none" stroke-width="6"></path></g><g transform="translate(206 2)"><path d="M4.7 -1.7C5.3 0.4 4.5 2.7 2.7 4.1C0.9 5.5 -1.9 6 -3.5 4.8C-5.1 3.6 -5.6 0.8 -4.8 -1.4C-4 -3.7 -2 -5.4 0 -5.4C2 -5.4 4.1 -3.7 4.7 -1.7Z" stroke="#add8e6" fill="none" stroke-width="6"></path></g><g transform="translate(80 92)"><path d="M5.2 -1.4C6 0.6 5.3 3.4 3.5 4.7C1.8 5.9 -1 5.6 -2.8 4.2C-4.6 2.8 -5.5 0.4 -4.8 -1.5C-4.2 -3.4 -2.1 -4.8 0.1 -4.8C2.2 -4.8 4.5 -3.5 5.2 -1.4Z" stroke="#add8e6" fill="none" stroke-width="6"></path></g><g transform="translate(699 92)"><path d="M5.7 -1.7C6.5 0.5 5.5 3.4 3.7 4.6C1.8 5.9 -1 5.5 -2.9 4.1C-4.9 2.6 -6.1 0.1 -5.5 -1.8C-4.8 -3.8 -2.4 -5.2 0 -5.3C2.5 -5.3 4.9 -3.8 5.7 -1.7Z" stroke="#add8e6" fill="none" stroke-width="6"></path></g><g transform="translate(223 31)"><path d="M5.2 -1.9C5.8 0.3 4.8 2.8 3 4C1.2 5.3 -1.3 5.3 -3.1 4.1C-4.9 2.8 -5.9 0.3 -5.2 -1.9C-4.6 -4 -2.3 -5.8 0 -5.8C2.3 -5.8 4.6 -4 5.2 -1.9Z" stroke="#add8e6" fill="none" stroke-width="6"></path></g><g transform="translate(802 94)"><path d="M5.6 -2.1C6.2 0.1 5 2.6 3 4.1C0.9 5.6 -1.9 6 -3.7 4.7C-5.5 3.5 -6.4 0.6 -5.6 -1.8C-4.9 -4.2 -2.4 -6 0 -6C2.5 -6 5 -4.2 5.6 -2.1Z" stroke="#add8e6" fill="none" stroke-width="6"></path></g><g transform="translate(453 49)"><path d="M5.1 -1.8C5.8 0.4 5 3 3.1 4.4C1.3 5.8 -1.6 5.9 -3.3 4.6C-5 3.4 -5.6 0.7 -4.8 -1.6C-4.1 -3.9 -2 -5.9 0.1 -5.9C2.2 -5.9 4.5 -4.1 5.1 -1.8Z" stroke="#add8e6" fill="none" stroke-width="6"></path></g><g transform="translate(790 34)"><path d="M5.2 -1.7C5.9 0.6 5.2 3.3 3.3 4.7C1.5 6 -1.4 6 -3.3 4.7C-5.1 3.3 -5.9 0.6 -5.2 -1.6C-4.4 -3.9 -2.2 -5.6 0 -5.6C2.2 -5.6 4.5 -3.9 5.2 -1.7Z" stroke="#add8e6" fill="none" stroke-width="6"></path></g><g transform="translate(652 40)"><path d="M5.5 -2C6.1 0.1 4.9 2.6 3.1 3.9C1.2 5.2 -1.3 5.2 -3.1 4C-4.8 2.8 -5.8 0.3 -5.2 -1.8C-4.5 -4 -2.3 -5.7 0.1 -5.8C2.4 -5.8 4.9 -4.1 5.5 -2Z" stroke="#add8e6" fill="none" stroke-width="6"></path></g><g transform="translate(593 29)"><path d="M5.8 -2C6.5 0.3 5.4 3.1 3.4 4.5C1.4 5.8 -1.4 5.8 -3.1 4.5C-4.8 3.2 -5.4 0.6 -4.7 -1.6C-4 -3.9 -2 -5.8 0.3 -5.9C2.5 -6 5.1 -4.2 5.8 -2Z" stroke="#add8e6" fill="none" stroke-width="6"></path></g><g transform="translate(229 83)"><path d="M5.8 -1.7C6.5 0.4 5.5 3.3 3.6 4.6C1.8 5.9 -1 5.5 -2.7 4.1C-4.4 2.8 -5.2 0.4 -4.5 -1.6C-3.9 -3.5 -2 -5.2 0.3 -5.3C2.5 -5.3 5 -3.9 5.8 -1.7Z" stroke="#add8e6" fill="none" stroke-width="6"></path></g><g transform="translate(770 85)"><path d="M5.6 -1.6C6.4 0.6 5.5 3.5 3.6 4.9C1.7 6.3 -1.3 6.1 -3.1 4.7C-4.9 3.3 -5.5 0.7 -4.8 -1.4C-4.1 -3.6 -2 -5.2 0.2 -5.2C2.4 -5.3 4.8 -3.8 5.6 -1.6Z" stroke="#add8e6" fill="none" stroke-width="6"></path></g><g transform="translate(874 31)"><path d="M5.7 -1.8C6.5 0.4 5.4 3.2 3.4 4.5C1.5 5.9 -1.4 5.9 -3.4 4.5C-5.3 3.1 -6.3 0.4 -5.6 -1.8C-4.9 -4 -2.4 -5.6 0 -5.6C2.5 -5.6 5 -4 5.7 -1.8Z" stroke="#add8e6" fill="none" stroke-width="6"></path></g><g transform="translate(473 22)"><path d="M4.9 -1.5C5.6 0.7 5 3.4 3.2 4.8C1.4 6.2 -1.6 6.3 -3.4 5C-5.2 3.7 -5.6 0.8 -4.8 -1.4C-4 -3.7 -2 -5.4 0 -5.4C2.1 -5.5 4.1 -3.7 4.9 -1.5Z" stroke="#add8e6" fill="none" stroke-width="6"></path></g><g transform="translate(410 25)"><path d="M4.6 -1.7C5.2 0.3 4.4 2.6 2.6 4C0.9 5.3 -1.8 5.7 -3.5 4.6C-5.1 3.4 -5.8 0.6 -5.1 -1.7C-4.3 -3.9 -2.2 -5.8 -0.1 -5.7C2 -5.7 4 -3.8 4.6 -1.7Z" stroke="#add8e6" fill="none" stroke-width="6"></path></g><g transform="translate(849 96)"><path d="M5.7 -2C6.3 0 4.9 2.5 3.1 3.7C1.2 5 -1.3 5 -3.1 3.8C-4.9 2.6 -6.2 0.1 -5.5 -1.9C-4.9 -3.9 -2.5 -5.5 0 -5.5C2.5 -5.5 5.1 -4 5.7 -2Z" stroke="#add8e6" fill="none" stroke-width="6"></path></g><g transform="translate(743 40)"><path d="M5.6 -1.9C6.2 0.3 5.2 2.9 3.3 4.2C1.5 5.4 -1.1 5.2 -2.7 3.9C-4.3 2.7 -5.1 0.4 -4.5 -1.7C-3.9 -3.8 -1.9 -5.8 0.3 -5.9C2.4 -6 4.9 -4.2 5.6 -1.9Z" stroke="#add8e6" fill="none" stroke-width="6"></path></g><g transform="translate(433 88)"><path d="M4.8 -1.8C5.5 0.4 4.7 2.9 3 4.1C1.3 5.3 -1.2 5.2 -3 4C-4.7 2.7 -5.8 0.3 -5.1 -1.9C-4.5 -4 -2.3 -5.8 -0.1 -5.8C2.1 -5.8 4.2 -3.9 4.8 -1.8Z" stroke="#add8e6" fill="none" stroke-width="6"></path></g><g transform="translate(968 52)"><path d="M4.8 -1.4C5.5 0.7 5 3.4 3.3 4.6C1.7 5.8 -1 5.5 -2.9 4.1C-4.8 2.7 -5.8 0.2 -5.2 -1.8C-4.5 -3.8 -2.3 -5.3 -0.1 -5.2C2 -5.2 4 -3.6 4.8 -1.4Z" stroke="#add8e6" fill="none" stroke-width="6"></path></g><g transform="translate(899 17)"><path d="M5.2 -1.6C6 0.6 5.2 3.4 3.5 4.7C1.7 5.9 -1.1 5.6 -3 4.2C-5 2.7 -6.2 0.2 -5.6 -1.9C-4.9 -4 -2.5 -5.6 -0.1 -5.6C2.2 -5.6 4.5 -3.9 5.2 -1.6Z" stroke="#add8e6" fill="none" stroke-width="6"></path></g><g transform="translate(994 86)"><path d="M5.1 -1.4C5.8 0.7 5.2 3.5 3.5 4.7C1.8 5.9 -1 5.5 -2.8 4.1C-4.6 2.8 -5.5 0.3 -4.9 -1.5C-4.2 -3.4 -2.1 -4.8 0 -4.8C2.2 -4.8 4.3 -3.5 5.1 -1.4Z" stroke="#add8e6" fill="none" stroke-width="6"></path></g><g transform="translate(707 36)"><path d="M5 -1.6C5.6 0.4 4.8 2.9 3.1 4.1C1.4 5.3 -1.1 5.1 -2.7 3.9C-4.4 2.6 -5.3 0.3 -4.7 -1.6C-4.1 -3.4 -2 -4.9 0.1 -4.9C2.2 -5 4.3 -3.5 5 -1.6Z" stroke="#add8e6" fill="none" stroke-width="6"></path></g><g transform="translate(25 96)"><path d="M4.6 -1.3C5.4 0.8 4.9 3.4 3.2 4.7C1.5 6 -1.4 5.9 -3.2 4.6C-5 3.2 -5.6 0.6 -4.9 -1.5C-4.2 -3.5 -2.1 -5 -0.1 -5C1.9 -5 3.9 -3.4 4.6 -1.3Z" stroke="#add8e6" fill="none" stroke-width="6"></path></g><g transform="translate(798 62)"><path d="M5.2 -1.7C5.9 0.4 5 3 3.1 4.4C1.2 5.8 -1.6 5.9 -3.5 4.6C-5.5 3.3 -6.5 0.4 -5.8 -1.8C-5.1 -4 -2.5 -5.6 -0.1 -5.5C2.3 -5.5 4.5 -3.8 5.2 -1.7Z" stroke="#add8e6" fill="none" stroke-width="6"></path></g><g transform="translate(696 72)"><path d="M5.8 -1.7C6.5 0.5 5.6 3.5 3.7 4.8C1.8 6.1 -1.1 5.8 -3.1 4.4C-5.1 2.9 -6.1 0.3 -5.4 -1.8C-4.8 -3.9 -2.4 -5.6 0 -5.6C2.5 -5.6 5 -4 5.8 -1.7Z" stroke="#add8e6" fill="none" stroke-width="6"></path></g><g transform="translate(177 75)"><path d="M4.7 -1.7C5.4 0.4 4.6 2.8 2.8 4.2C1 5.6 -1.8 6 -3.6 4.7C-5.5 3.4 -6.4 0.5 -5.7 -1.7C-4.9 -4 -2.4 -5.6 -0.2 -5.6C2 -5.5 4.1 -3.7 4.7 -1.7Z" stroke="#add8e6" fill="none" stroke-width="6"></path></g><g transform="translate(498 66)"><path d="M4.4 -1.5C5 0.4 4.3 2.7 2.7 4C1 5.3 -1.6 5.5 -3.5 4.3C-5.3 3.1 -6.4 0.3 -5.7 -1.7C-5 -3.8 -2.5 -5.1 -0.3 -5C1.9 -4.9 3.8 -3.4 4.4 -1.5Z" stroke="#add8e6" fill="none" stroke-width="6"></path></g><g transform="translate(849 54)"><path d="M4.9 -1.7C5.5 0.3 4.6 2.7 2.9 3.9C1.2 5.1 -1.3 5.1 -2.9 4C-4.6 2.8 -5.4 0.4 -4.8 -1.7C-4.2 -3.7 -2.1 -5.4 0 -5.4C2.1 -5.4 4.2 -3.8 4.9 -1.7Z" stroke="#add8e6" fill="none" stroke-width="6"></path></g><g transform="translate(868 2)"><path d="M5.6 -2.1C6.2 0.1 5 2.6 3 4C1 5.4 -1.7 5.7 -3.3 4.5C-4.9 3.4 -5.5 0.7 -4.7 -1.6C-4 -3.9 -2 -5.9 0.2 -5.9C2.5 -6 5 -4.2 5.6 -2.1Z" stroke="#add8e6" fill="none" stroke-width="6"></path></g><g transform="translate(927 37)"><path d="M5.7 -2.1C6.4 0.1 5.1 2.8 3.1 4.2C1.1 5.6 -1.7 5.9 -3.6 4.6C-5.5 3.3 -6.5 0.4 -5.8 -1.9C-5 -4.3 -2.5 -6.1 0 -6.1C2.5 -6.1 5.1 -4.3 5.7 -2.1Z" stroke="#add8e6" fill="none" stroke-width="6"></path></g><g transform="translate(117 38)"><path d="M4.9 -1.5C5.7 0.8 5.2 3.5 3.4 4.9C1.6 6.3 -1.5 6.2 -3.5 4.8C-5.5 3.3 -6.5 0.4 -5.8 -1.8C-5 -4 -2.5 -5.5 -0.2 -5.5C2.1 -5.4 4.2 -3.7 4.9 -1.5Z" stroke="#add8e6" fill="none" stroke-width="6"></path></g><g transform="translate(975 4)"><path d="M4.5 -1.6C5.2 0.6 4.6 3 3 4.2C1.4 5.4 -1.2 5.3 -2.9 4.1C-4.6 2.8 -5.4 0.4 -4.8 -1.8C-4.1 -3.9 -2.1 -5.8 -0.1 -5.8C1.9 -5.8 3.9 -3.8 4.5 -1.6Z" stroke="#add8e6" fill="none" stroke-width="6"></path></g><g transform="translate(560 45)"><path d="M4.9 -1.4C5.6 0.7 5 3.4 3.3 4.7C1.6 5.9 -1.2 5.7 -2.9 4.4C-4.6 3.1 -5.2 0.6 -4.5 -1.4C-3.8 -3.3 -1.9 -4.8 0.1 -4.8C2.1 -4.8 4.1 -3.4 4.9 -1.4Z" stroke="#add8e6" fill="none" stroke-width="6"></path></g><g transform="translate(20 34)"><path d="M5.2 -1.8C5.9 0.4 5 3 3.2 4.3C1.4 5.5 -1.3 5.5 -3 4.2C-4.7 2.9 -5.5 0.4 -4.8 -1.7C-4.2 -3.9 -2.1 -5.7 0.1 -5.8C2.3 -5.8 4.6 -4 5.2 -1.8Z" stroke="#add8e6" fill="none" stroke-width="6"></path></g><g transform="translate(29 72)"><path d="M4.6 -1.7C5.2 0.3 4.4 2.6 2.7 3.9C1 5.2 -1.6 5.4 -3.3 4.3C-5 3.1 -5.9 0.4 -5.2 -1.8C-4.5 -4 -2.3 -5.7 -0.1 -5.7C2 -5.6 4 -3.8 4.6 -1.7Z" stroke="#add8e6" fill="none" stroke-width="6"></path></g><g transform="translate(718 51)"><path d="M4.6 -1.5C5.4 0.8 5 3.5 3.3 4.9C1.5 6.2 -1.4 6.1 -3.5 4.7C-5.5 3.2 -6.5 0.4 -5.8 -1.9C-5 -4.3 -2.5 -6.1 -0.3 -6C1.9 -5.9 3.9 -3.9 4.6 -1.5Z" stroke="#add8e6" fill="none" stroke-width="6"></path></g><g transform="translate(93 23)"><path d="M4.7 -1.3C5.5 0.7 4.9 3.3 3.3 4.5C1.7 5.6 -1 5.3 -2.8 3.9C-4.7 2.6 -5.7 0.2 -5.1 -1.7C-4.5 -3.5 -2.3 -4.9 -0.1 -4.9C2 -4.8 4 -3.4 4.7 -1.3Z" stroke="#add8e6" fill="none" stroke-width="6"></path></g><g transform="translate(896 91)"><path d="M4.6 -1.2C5.4 0.9 5.1 3.7 3.4 4.9C1.8 6.2 -1.2 5.9 -3.1 4.5C-5.1 3 -6 0.4 -5.3 -1.6C-4.6 -3.5 -2.3 -4.8 -0.2 -4.8C1.9 -4.7 3.9 -3.3 4.6 -1.2Z" stroke="#add8e6" fill="none" stroke-width="6"></path></g><g transform="translate(245 97)"><path d="M5.2 -1.4C5.9 0.6 5.2 3.4 3.3 4.8C1.5 6.2 -1.5 6.3 -3.3 4.9C-5 3.6 -5.5 0.8 -4.7 -1.3C-4 -3.4 -2 -4.8 0.1 -4.8C2.2 -4.9 4.4 -3.5 5.2 -1.4Z" stroke="#add8e6" fill="none" stroke-width="6"></path></g><g transform="translate(328 26)"><path d="M5 -1.7C5.7 0.5 5 3.2 3.2 4.5C1.5 5.8 -1.3 5.7 -3.3 4.3C-5.2 3 -6.3 0.3 -5.6 -1.9C-4.9 -4.1 -2.4 -5.7 -0.1 -5.7C2.2 -5.6 4.3 -3.9 5 -1.7Z" stroke="#add8e6" fill="none" stroke-width="6"></path></g><g transform="translate(963 96)"><path d="M5 -1.7C5.6 0.3 4.6 2.6 2.9 3.9C1.1 5.2 -1.4 5.3 -3.1 4.2C-4.7 3 -5.4 0.5 -4.7 -1.6C-4 -3.6 -2 -5.3 0.1 -5.3C2.2 -5.3 4.4 -3.7 5 -1.7Z" stroke="#add8e6" fill="none" stroke-width="6"></path></g><g transform="translate(211 89)"><path d="M5.6 -2C6.3 0.1 5 2.7 3.1 4C1.1 5.4 -1.6 5.6 -3.4 4.4C-5.2 3.1 -6.1 0.4 -5.4 -1.7C-4.7 -3.9 -2.3 -5.6 0.1 -5.6C2.5 -5.6 5 -4 5.6 -2Z" stroke="#add8e6" fill="none" stroke-width="6"></path></g><g transform="translate(117 59)"><path d="M5.4 -1.8C6.1 0.4 5.2 3.1 3.2 4.5C1.3 5.9 -1.5 6 -3.3 4.6C-5.1 3.3 -5.8 0.6 -5.1 -1.6C-4.3 -3.9 -2.2 -5.6 0.1 -5.6C2.4 -5.7 4.7 -4 5.4 -1.8Z" stroke="#add8e6" fill="none" stroke-width="6"></path></g><g transform="translate(390 49)"><path d="M5.5 -1.8C6.3 0.5 5.4 3.3 3.6 4.6C1.8 5.8 -1 5.5 -2.9 4C-4.8 2.6 -5.8 0.2 -5.2 -2C-4.6 -4.1 -2.3 -6 0 -6C2.4 -6 4.8 -4.2 5.5 -1.8Z" stroke="#add8e6" fill="none" stroke-width="6"></path></g><g transform="translate(251 68)"><path d="M4.8 -1.7C5.4 0.3 4.5 2.6 2.7 3.9C1 5.2 -1.6 5.5 -3.4 4.3C-5.1 3.1 -6 0.5 -5.3 -1.6C-4.6 -3.7 -2.3 -5.3 -0.1 -5.2C2.1 -5.2 4.2 -3.6 4.8 -1.7Z" stroke="#add8e6" fill="none" stroke-width="6"></path></g><g transform="translate(823 22)"><path d="M5 -1.7C5.6 0.4 4.8 2.9 3 4.3C1.2 5.6 -1.6 5.8 -3.3 4.6C-5 3.3 -5.7 0.6 -5 -1.6C-4.3 -3.9 -2.1 -5.6 0 -5.6C2.2 -5.6 4.3 -3.9 5 -1.7Z" stroke="#add8e6" fill="none" stroke-width="6"></path></g><g transform="translate(569 99)"><path d="M4.9 -1.6C5.5 0.2 4.6 2.6 2.7 4C0.9 5.3 -1.7 5.7 -3.5 4.5C-5.2 3.3 -6 0.6 -5.2 -1.5C-4.5 -3.5 -2.2 -4.8 0 -4.8C2.2 -4.8 4.3 -3.5 4.9 -1.6Z" stroke="#add8e6" fill="none" stroke-width="6"></path></g><g transform="translate(534 80)"><path d="M5.3 -1.6C6 0.4 5.1 3.1 3.3 4.4C1.4 5.6 -1.3 5.5 -3 4.2C-4.8 2.9 -5.6 0.4 -4.9 -1.6C-4.3 -3.6 -2.1 -5 0.1 -5.1C2.3 -5.1 4.6 -3.6 5.3 -1.6Z" stroke="#add8e6" fill="none" stroke-width="6"></path></g><g transform="translate(898 64)"><path d="M5.5 -1.8C6.1 0.2 4.9 2.7 3 4.1C1.1 5.5 -1.7 5.7 -3.5 4.5C-5.3 3.2 -6.2 0.4 -5.5 -1.6C-4.8 -3.7 -2.4 -5.1 0 -5.1C2.4 -5.1 4.8 -3.7 5.5 -1.8Z" stroke="#add8e6" fill="none" stroke-width="6"></path></g><g transform="translate(220 50)"><path d="M5 -1.4C5.7 0.6 5 3.3 3.3 4.5C1.6 5.7 -1.1 5.4 -2.8 4.1C-4.6 2.7 -5.5 0.3 -4.9 -1.6C-4.3 -3.5 -2.1 -4.9 0 -4.9C2.1 -4.9 4.2 -3.5 5 -1.4Z" stroke="#add8e6" fill="none" stroke-width="6"></path></g><g transform="translate(642 13)"><path d="M5.4 -2.1C6 0.1 4.8 2.6 2.9 4C1 5.4 -1.7 5.7 -3.4 4.5C-5.2 3.3 -6 0.6 -5.2 -1.8C-4.5 -4.1 -2.2 -6 0.1 -6.1C2.4 -6.1 4.8 -4.2 5.4 -2.1Z" stroke="#add8e6" fill="none" stroke-width="6"></path></g><g transform="translate(306 19)"><path d="M5.3 -1.5C6 0.5 5.2 3.3 3.4 4.5C1.7 5.8 -1.1 5.5 -3.1 4.1C-5 2.7 -6.3 0.1 -5.7 -1.8C-5 -3.8 -2.5 -5 -0.1 -5C2.3 -5 4.5 -3.6 5.3 -1.5Z" stroke="#add8e6" fill="none" stroke-width="6"></path></g><g transform="translate(623 47)"><path d="M4.8 -1.4C5.6 0.7 4.9 3.3 3.3 4.5C1.6 5.8 -1.2 5.6 -2.9 4.3C-4.7 2.9 -5.5 0.5 -4.8 -1.5C-4.1 -3.5 -2.1 -5 0 -5C2.1 -5 4.1 -3.5 4.8 -1.4Z" stroke="#add8e6" fill="none" stroke-width="6"></path></g><g transform="translate(655 77)"><path d="M4.5 -1.5C5.2 0.5 4.5 2.9 2.8 4.2C1.1 5.5 -1.7 5.8 -3.6 4.5C-5.4 3.3 -6.5 0.4 -5.7 -1.7C-5 -3.8 -2.5 -5.2 -0.3 -5.1C1.9 -5 3.9 -3.5 4.5 -1.5Z" stroke="#add8e6" fill="none" stroke-width="6"></path></g><g transform="translate(939 85)"><path d="M5.2 -1.6C6 0.7 5.3 3.6 3.5 4.9C1.7 6.3 -1.3 6.1 -3.3 4.6C-5.3 3.2 -6.2 0.4 -5.5 -1.8C-4.8 -4.1 -2.4 -5.8 -0.1 -5.8C2.2 -5.7 4.4 -4 5.2 -1.6Z" stroke="#add8e6" fill="none" stroke-width="6"></path></g><g transform="translate(196 51)"><path d="M5.6 -1.8C6.2 0.2 5.1 2.8 3.2 4.2C1.2 5.5 -1.5 5.7 -3.3 4.4C-5.1 3.1 -6.1 0.4 -5.4 -1.7C-4.7 -3.8 -2.3 -5.4 0.1 -5.4C2.5 -5.4 4.9 -3.9 5.6 -1.8Z" stroke="#add8e6" fill="none" stroke-width="6"></path></g><g transform="translate(451 69)"><path d="M4.7 -1.5C5.3 0.4 4.5 2.7 2.7 4.1C0.9 5.5 -1.8 5.9 -3.5 4.7C-5.2 3.5 -5.8 0.7 -5.1 -1.4C-4.3 -3.5 -2.1 -4.9 -0.1 -4.9C2 -4.9 4.1 -3.4 4.7 -1.5Z" stroke="#add8e6" fill="none" stroke-width="6"></path></g><g transform="translate(561 18)"><path d="M5.2 -1.6C5.9 0.4 5 3 3.2 4.2C1.4 5.4 -1.1 5.3 -2.9 4C-4.7 2.7 -5.7 0.3 -5 -1.6C-4.4 -3.6 -2.2 -5 0 -5C2.3 -5 4.6 -3.6 5.2 -1.6Z" stroke="#add8e6" fill="none" stroke-width="6"></path></g><g transform="translate(749 94)"><path d="M5.2 -1.8C5.9 0.3 4.9 2.9 3 4.3C1.1 5.7 -1.7 6 -3.6 4.7C-5.4 3.5 -6.1 0.6 -5.4 -1.7C-4.6 -4 -2.3 -5.7 0 -5.7C2.3 -5.7 4.5 -3.9 5.2 -1.8Z" stroke="#add8e6" fill="none" stroke-width="6"></path></g><g transform="translate(696 53)"><path d="M5.2 -1.6C6 0.6 5.3 3.5 3.4 4.8C1.6 6.1 -1.3 6 -3.1 4.6C-5 3.2 -5.7 0.6 -5 -1.6C-4.3 -3.8 -2.1 -5.5 0 -5.6C2.2 -5.6 4.4 -3.9 5.2 -1.6Z" stroke="#add8e6" fill="none" stroke-width="6"></path></g><g transform="translate(332 82)"><path d="M4.5 -1.5C5.1 0.4 4.4 2.8 2.7 4.1C1.1 5.4 -1.6 5.6 -3.5 4.4C-5.3 3.1 -6.3 0.4 -5.6 -1.8C-4.9 -3.9 -2.5 -5.3 -0.3 -5.3C1.9 -5.2 3.9 -3.5 4.5 -1.5Z" stroke="#add8e6" fill="none" stroke-width="6"></path></g><g transform="translate(975 25)"><path d="M4.7 -1.5C5.4 0.5 4.7 3 3 4.2C1.4 5.4 -1.2 5.3 -3 4C-4.8 2.7 -5.8 0.3 -5.2 -1.7C-4.5 -3.6 -2.3 -5 -0.1 -4.9C2 -4.9 4.1 -3.4 4.7 -1.5Z" stroke="#add8e6" fill="none" stroke-width="6"></path></g><g transform="translate(133 19)"><path d="M4.8 -1.6C5.4 0.3 4.5 2.6 2.8 3.8C1.2 5 -1.3 5 -2.8 3.9C-4.4 2.8 -5 0.4 -4.4 -1.5C-3.8 -3.4 -1.9 -5 0.1 -5C2.1 -5.1 4.2 -3.6 4.8 -1.6Z" stroke="#add8e6" fill="none" stroke-width="6"></path></g><g transform="translate(472 45)"><path d="M5.4 -1.9C6 0.1 4.8 2.6 2.9 4.1C0.9 5.5 -1.9 6 -3.5 4.8C-5 3.7 -5.4 0.9 -4.6 -1.3C-3.8 -3.6 -1.9 -5.3 0.2 -5.3C2.4 -5.4 4.8 -3.9 5.4 -1.9Z" stroke="#add8e6" fill="none" stroke-width="6"></path></g><g transform="translate(911 79)"><path d="M5.6 -1.9C6.3 0.3 5.2 3 3.4 4.2C1.5 5.4 -1.1 5.2 -3 3.9C-4.9 2.5 -6.2 0.1 -5.6 -2.1C-5 -4.2 -2.5 -5.9 0 -5.9C2.5 -5.9 4.9 -4.2 5.6 -1.9Z" stroke="#add8e6" fill="none" stroke-width="6"></path></g><g transform="translate(154 88)"><path d="M5.5 -1.7C6.3 0.6 5.5 3.5 3.5 4.9C1.6 6.4 -1.5 6.4 -3.5 4.9C-5.5 3.5 -6.3 0.6 -5.5 -1.7C-4.7 -4.1 -2.4 -5.8 0 -5.8C2.4 -5.8 4.7 -4.1 5.5 -1.7Z" stroke="#add8e6" fill="none" stroke-width="6"></path></g><g transform="translate(200 72)"><path d="M5.3 -1.8C6 0.4 5 3 3.2 4.3C1.5 5.5 -1.2 5.4 -2.8 4.1C-4.5 2.9 -5.2 0.5 -4.5 -1.6C-3.9 -3.7 -1.9 -5.5 0.2 -5.6C2.3 -5.6 4.6 -3.9 5.3 -1.8Z" stroke="#add8e6" fill="none" stroke-width="6"></path></g><g transform="translate(945 12)"><path d="M5.1 -2C5.7 0.2 4.6 2.6 2.8 3.9C1 5.2 -1.5 5.4 -3.1 4.2C-4.7 3.1 -5.4 0.5 -4.7 -1.7C-4.1 -4 -2 -6 0.1 -6C2.2 -6.1 4.5 -4.1 5.1 -2Z" stroke="#add8e6" fill="none" stroke-width="6"></path></g><g transform="translate(409 4)"><path d="M5.7 -1.8C6.4 0.3 5.2 3 3.3 4.3C1.4 5.7 -1.3 5.6 -3.2 4.3C-5 3 -6 0.4 -5.3 -1.7C-4.7 -3.8 -2.3 -5.3 0.1 -5.3C2.5 -5.3 5 -3.9 5.7 -1.8Z" stroke="#add8e6" fill="none" stroke-width="6"></path></g><g transform="translate(725 95)"><path d="M5.8 -1.8C6.6 0.5 5.6 3.4 3.6 4.8C1.6 6.3 -1.4 6.2 -3.5 4.7C-5.5 3.3 -6.5 0.4 -5.8 -1.8C-5 -4 -2.5 -5.6 0 -5.6C2.5 -5.6 5.1 -4 5.8 -1.8Z" stroke="#add8e6" fill="none" stroke-width="6"></path></g><g transform="translate(987 66)"><path d="M4.9 -1.4C5.6 0.8 5.1 3.5 3.5 4.7C1.8 5.9 -1 5.5 -2.8 4.1C-4.7 2.7 -5.6 0.3 -5 -1.7C-4.4 -3.8 -2.2 -5.4 -0.1 -5.4C2 -5.3 4.1 -3.7 4.9 -1.4Z" stroke="#add8e6" fill="none" stroke-width="6"></path></g><g transform="translate(476 98)"><path d="M5.5 -1.9C6.1 0.1 4.9 2.6 2.9 4.1C0.9 5.5 -1.9 6 -3.4 4.8C-5 3.6 -5.4 0.9 -4.6 -1.4C-3.8 -3.6 -1.9 -5.3 0.3 -5.4C2.4 -5.5 4.9 -3.9 5.5 -1.9Z" stroke="#add8e6" fill="none" stroke-width="6"></path></g><g transform="translate(16 12)"><path d="M5.3 -1.7C5.9 0.3 5 2.9 3.1 4.3C1.2 5.7 -1.7 6 -3.5 4.7C-5.3 3.4 -6.2 0.5 -5.4 -1.6C-4.7 -3.8 -2.3 -5.2 0 -5.2C2.3 -5.2 4.6 -3.7 5.3 -1.7Z" stroke="#add8e6" fill="none" stroke-width="6"></path></g><g transform="translate(410 48)"><path d="M5.5 -1.7C6.1 0.2 5 2.8 3.2 4.1C1.4 5.3 -1.2 5.3 -3 4C-4.7 2.7 -5.7 0.3 -5.1 -1.7C-4.4 -3.6 -2.2 -5 0.1 -5.1C2.4 -5.1 4.8 -3.7 5.5 -1.7Z" stroke="#add8e6" fill="none" stroke-width="6"></path></g><g transform="translate(488 84)"><path d="M5.4 -1.9C6 0.2 4.9 2.7 3 4C1.2 5.3 -1.4 5.4 -3 4.2C-4.7 3 -5.4 0.5 -4.7 -1.6C-4 -3.7 -2 -5.5 0.2 -5.5C2.4 -5.6 4.8 -4 5.4 -1.9Z" stroke="#add8e6" fill="none" stroke-width="6"></path></g><g transform="translate(464 3)"><path d="M5.3 -1.6C6 0.4 5.1 3 3.1 4.4C1.2 5.8 -1.6 6 -3.5 4.6C-5.3 3.3 -6.2 0.5 -5.5 -1.6C-4.8 -3.6 -2.4 -4.9 0 -4.9C2.3 -4.9 4.7 -3.6 5.3 -1.6Z" stroke="#add8e6" fill="none" stroke-width="6"></path></g><g transform="translate(6 87)"><path d="M5.2 -1.8C5.9 0.3 4.9 2.9 3.1 4.2C1.2 5.6 -1.5 5.7 -3.2 4.4C-4.9 3.2 -5.6 0.6 -4.9 -1.6C-4.2 -3.8 -2.1 -5.6 0.1 -5.6C2.3 -5.6 4.6 -3.9 5.2 -1.8Z" stroke="#add8e6" fill="none" stroke-width="6"></path></g><g transform="translate(686 15)"><path d="M5.5 -1.8C6.2 0.1 5 2.7 3.1 4C1.2 5.3 -1.4 5.5 -3.3 4.2C-5.2 2.9 -6.3 0.2 -5.6 -1.8C-5 -3.8 -2.5 -5.3 0 -5.3C2.4 -5.3 4.9 -3.8 5.5 -1.8Z" stroke="#add8e6" fill="none" stroke-width="6"></path></g><g transform="translate(821 87)"><path d="M5.6 -2C6.3 0.3 5.3 3.1 3.3 4.4C1.4 5.8 -1.5 5.9 -3.2 4.6C-5 3.3 -5.7 0.6 -5 -1.7C-4.3 -4 -2.1 -6 0.2 -6C2.5 -6.1 4.9 -4.2 5.6 -2Z" stroke="#add8e6" fill="none" stroke-width="6"></path></g><g transform="translate(664 11)"><path d="M5.3 -1.9C5.9 0.4 5 3 3.3 4.3C1.5 5.5 -1.2 5.4 -2.9 4.1C-4.7 2.8 -5.7 0.3 -5.1 -1.9C-4.4 -4.1 -2.2 -6 0 -6.1C2.3 -6.1 4.6 -4.1 5.3 -1.9Z" stroke="#add8e6" fill="none" stroke-width="6"></path></g><g transform="translate(602 47)"><path d="M5.7 -1.8C6.4 0.3 5.3 3 3.3 4.4C1.4 5.7 -1.4 5.7 -3.2 4.4C-5.1 3.1 -6 0.4 -5.3 -1.7C-4.6 -3.8 -2.3 -5.3 0.1 -5.3C2.5 -5.4 5 -3.9 5.7 -1.8Z" stroke="#add8e6" fill="none" stroke-width="6"></path></g><g transform="translate(432 44)"><path d="M5.1 -1.6C5.7 0.3 4.8 2.8 3 4.1C1.3 5.4 -1.3 5.4 -3.2 4.1C-5 2.8 -6.1 0.3 -5.4 -1.7C-4.7 -3.7 -2.4 -5 -0.1 -5C2.2 -5 4.4 -3.6 5.1 -1.6Z" stroke="#add8e6" fill="none" stroke-width="6"></path></g><g transform="translate(997 38)"><path d="M5.6 -1.9C6.4 0.4 5.4 3.2 3.5 4.5C1.6 5.8 -1.1 5.6 -3.1 4.2C-5.1 2.7 -6.3 0.1 -5.7 -2C-5 -4.2 -2.5 -6 0 -6C2.4 -6 4.9 -4.2 5.6 -1.9Z" stroke="#add8e6" fill="none" stroke-width="6"></path></g><g transform="translate(835 39)"><path d="M5.1 -1.9C5.7 0.2 4.7 2.7 2.9 4C1 5.4 -1.7 5.7 -3.4 4.5C-5.2 3.3 -6 0.5 -5.3 -1.8C-4.6 -4.1 -2.3 -5.9 0 -5.9C2.2 -5.9 4.5 -4 5.1 -1.9Z" stroke="#add8e6" fill="none" stroke-width="6"></path></g><g transform="translate(172 96)"><path d="M5 -1.5C5.6 0.4 4.7 2.8 3 4.1C1.3 5.3 -1.2 5.2 -3 4C-4.7 2.8 -5.6 0.3 -5 -1.5C-4.3 -3.4 -2.2 -4.7 0 -4.7C2.2 -4.7 4.3 -3.4 5 -1.5Z" stroke="#add8e6" fill="none" stroke-width="6"></path></g><g transform="translate(625 27)"><path d="M5.7 -1.6C6.4 0.5 5.5 3.4 3.6 4.7C1.7 6 -1.1 5.7 -2.8 4.3C-4.6 2.9 -5.2 0.5 -4.6 -1.4C-3.9 -3.3 -2 -4.7 0.2 -4.7C2.5 -4.8 4.9 -3.6 5.7 -1.6Z" stroke="#add8e6" fill="none" stroke-width="6"></path></g><g transform="translate(301 63)"><path d="M4.7 -1.6C5.4 0.4 4.6 2.9 2.8 4.3C1 5.7 -1.8 6.1 -3.6 4.8C-5.3 3.6 -5.9 0.7 -5.2 -1.5C-4.4 -3.6 -2.2 -5.2 -0.1 -5.1C2.1 -5.1 4.1 -3.6 4.7 -1.6Z" stroke="#add8e6" fill="none" stroke-width="6"></path></g><g transform="translate(756 3)"><path d="M5.2 -1.6C5.9 0.7 5.3 3.5 3.5 4.7C1.8 6 -1.1 5.7 -2.8 4.3C-4.6 2.9 -5.3 0.5 -4.7 -1.7C-4 -3.8 -2 -5.7 0.1 -5.7C2.2 -5.7 4.4 -3.9 5.2 -1.6Z" stroke="#add8e6" fill="none" stroke-width="6"></path></g><g transform="translate(838 74)"><path d="M5.1 -1.7C5.7 0.2 4.6 2.6 2.9 3.8C1.1 5 -1.3 5.1 -3.1 3.9C-4.8 2.8 -5.8 0.3 -5.1 -1.6C-4.5 -3.6 -2.2 -4.9 0 -4.9C2.2 -4.9 4.5 -3.5 5.1 -1.7Z" stroke="#add8e6" fill="none" stroke-width="6"></path></g><g transform="translate(382 1)"><path d="M4.7 -1.5C5.4 0.6 4.8 3.2 3.1 4.4C1.4 5.7 -1.3 5.6 -3.2 4.3C-5.1 3 -6.1 0.3 -5.4 -1.7C-4.7 -3.8 -2.4 -5.3 -0.2 -5.3C2 -5.2 4 -3.6 4.7 -1.5Z" stroke="#add8e6" fill="none" stroke-width="6"></path></g><g transform="translate(73 2)"><path d="M5.4 -1.9C6 0.2 5 2.8 3.1 4.2C1.2 5.5 -1.6 5.7 -3.3 4.5C-5 3.2 -5.7 0.6 -5 -1.7C-4.3 -3.9 -2.2 -5.7 0.1 -5.8C2.4 -5.8 4.7 -4.1 5.4 -1.9Z" stroke="#add8e6" fill="none" stroke-width="6"></path></g><g transform="translate(285 26)"><path d="M4.5 -1.4C5.1 0.5 4.5 2.9 2.8 4.1C1.2 5.3 -1.4 5.4 -3 4.2C-4.6 3 -5.2 0.6 -4.5 -1.4C-3.9 -3.4 -1.9 -4.9 0 -4.9C1.9 -4.9 3.9 -3.4 4.5 -1.4Z" stroke="#add8e6" fill="none" stroke-width="6"></path></g><g transform="translate(511 30)"><path d="M5 -1.6C5.7 0.5 5 3.1 3.1 4.5C1.3 5.9 -1.6 6.1 -3.6 4.7C-5.5 3.3 -6.5 0.4 -5.8 -1.7C-5 -3.9 -2.5 -5.4 -0.2 -5.3C2.2 -5.3 4.3 -3.7 5 -1.6Z" stroke="#add8e6" fill="none" stroke-width="6"></path></g><g transform="translate(504 4)"><path d="M4.9 -1.8C5.5 0.2 4.5 2.6 2.8 3.8C1.1 5.1 -1.4 5.2 -3.2 4C-5 2.8 -6.1 0.2 -5.4 -1.9C-4.8 -3.9 -2.4 -5.5 -0.1 -5.5C2.1 -5.4 4.3 -3.8 4.9 -1.8Z" stroke="#add8e6" fill="none" stroke-width="6"></path></g><g transform="translate(98 98)"><path d="M5.4 -1.9C6.1 0.4 5.2 3.1 3.3 4.4C1.5 5.7 -1.2 5.6 -3 4.3C-4.7 3 -5.4 0.5 -4.7 -1.7C-4.1 -3.9 -2 -5.9 0.2 -6C2.3 -6 4.7 -4.2 5.4 -1.9Z" stroke="#add8e6" fill="none" stroke-width="6"></path></g><g transform="translate(248 47)"><path d="M5.4 -1.8C6.1 0.4 5.1 3 3.2 4.4C1.2 5.8 -1.7 6 -3.4 4.7C-5.2 3.4 -5.9 0.7 -5.1 -1.6C-4.4 -3.9 -2.2 -5.7 0.1 -5.7C2.3 -5.8 4.7 -4 5.4 -1.8Z" stroke="#add8e6" fill="none" stroke-width="6"></path></g><g transform="translate(349 29)"><path d="M5.1 -1.7C5.8 0.6 5.1 3.3 3.3 4.6C1.6 5.8 -1.2 5.7 -3.2 4.3C-5.2 2.9 -6.3 0.2 -5.7 -2C-5 -4.2 -2.5 -6.1 -0.2 -6C2.2 -5.9 4.4 -4 5.1 -1.7Z" stroke="#add8e6" fill="none" stroke-width="6"></path></g><g transform="translate(309 38)"><path d="M4.8 -1.5C5.5 0.7 4.9 3.4 3.3 4.6C1.6 5.8 -1.1 5.6 -3.1 4.2C-5.1 2.8 -6.3 0.2 -5.6 -1.9C-5 -4 -2.5 -5.6 -0.2 -5.6C2 -5.5 4 -3.7 4.8 -1.5Z" stroke="#add8e6" fill="none" stroke-width="6"></path></g><g transform="translate(779 9)"><path d="M5.7 -1.7C6.4 0.4 5.4 3.3 3.6 4.6C1.7 5.9 -1.1 5.6 -3 4.2C-4.9 2.8 -6 0.2 -5.4 -1.7C-4.7 -3.7 -2.4 -5.1 0.1 -5.1C2.5 -5.1 4.9 -3.8 5.7 -1.7Z" stroke="#add8e6" fill="none" stroke-width="6"></path></g><g transform="translate(174 1)"><path d="M5.1 -1.9C5.7 0.2 4.6 2.5 2.9 3.7C1.2 4.9 -1.2 4.9 -2.8 3.8C-4.4 2.7 -5.1 0.4 -4.5 -1.7C-3.9 -3.7 -2 -5.5 0.2 -5.6C2.3 -5.6 4.5 -3.9 5.1 -1.9Z" stroke="#add8e6" fill="none" stroke-width="6"></path></g><g transform="translate(581 7)"><path d="M5.7 -2C6.3 0.2 5.2 2.8 3.3 4.1C1.4 5.3 -1.1 5.2 -2.8 3.9C-4.5 2.7 -5.4 0.3 -4.8 -1.8C-4.2 -3.9 -2.1 -5.8 0.2 -5.9C2.5 -5.9 5 -4.2 5.7 -2Z" stroke="#add8e6" fill="none" stroke-width="6"></path></g><g transform="translate(720 74)"><path d="M5.2 -1.7C6 0.5 5.1 3.2 3.4 4.4C1.6 5.6 -1 5.4 -2.8 4C-4.6 2.7 -5.4 0.3 -4.8 -1.7C-4.2 -3.8 -2.1 -5.6 0.1 -5.6C2.3 -5.6 4.5 -3.9 5.2 -1.7Z" stroke="#add8e6" fill="none" stroke-width="6"></path></g><g transform="translate(599 94)"><path d="M5.1 -1.7C5.9 0.7 5.2 3.4 3.3 4.9C1.5 6.3 -1.6 6.4 -3.4 5C-5.2 3.6 -5.8 0.8 -5 -1.6C-4.2 -4 -2.1 -5.9 0 -5.9C2.2 -6 4.4 -4 5.1 -1.7Z" stroke="#add8e6" fill="none" stroke-width="6"></path></g><g transform="translate(65 67)"><path d="M4.6 -1.6C5.3 0.5 4.6 2.9 2.9 4.2C1.2 5.4 -1.5 5.5 -3.2 4.3C-5 3.1 -5.8 0.4 -5.1 -1.7C-4.4 -3.8 -2.2 -5.5 -0.1 -5.5C2 -5.4 4 -3.7 4.6 -1.6Z" stroke="#add8e6" fill="none" stroke-width="6"></path></g><g transform="translate(525 99)"><path d="M4.5 -1.5C5.2 0.5 4.5 2.9 2.9 4C1.3 5.2 -1.1 5.1 -2.8 3.9C-4.5 2.6 -5.3 0.3 -4.7 -1.6C-4.1 -3.5 -2.1 -5.1 -0.1 -5C2 -5 3.9 -3.5 4.5 -1.5Z" stroke="#add8e6" fill="none" stroke-width="6"></path></g><g transform="translate(633 79)"><path d="M4.6 -1.4C5.2 0.6 4.6 3.1 2.9 4.4C1.2 5.7 -1.6 5.9 -3.2 4.6C-4.9 3.4 -5.4 0.7 -4.7 -1.3C-4 -3.4 -2 -4.8 0 -4.8C2 -4.8 3.9 -3.4 4.6 -1.4Z" stroke="#add8e6" fill="none" stroke-width="6"></path></g><g transform="translate(756 54)"><path d="M5.1 -1.7C5.7 0.3 4.7 2.7 2.9 4C1.1 5.3 -1.6 5.6 -3.2 4.4C-4.8 3.2 -5.5 0.6 -4.8 -1.4C-4.1 -3.5 -2 -5 0.1 -5C2.2 -5.1 4.5 -3.6 5.1 -1.7Z" stroke="#add8e6" fill="none" stroke-width="6"></path></g><g transform="translate(261 31)"><path d="M5.6 -1.9C6.2 0.1 4.9 2.5 3 3.8C1.1 5.2 -1.4 5.3 -3 4.1C-4.6 3 -5.2 0.5 -4.5 -1.5C-3.9 -3.5 -1.9 -5.1 0.3 -5.2C2.5 -5.3 5 -3.9 5.6 -1.9Z" stroke="#add8e6" fill="none" stroke-width="6"></path></g><g transform="translate(853 31)"><path d="M5.5 -1.7C6.2 0.5 5.3 3.3 3.6 4.5C1.8 5.7 -0.9 5.3 -2.8 3.9C-4.7 2.5 -5.7 0.2 -5.2 -1.9C-4.6 -3.9 -2.3 -5.5 0 -5.5C2.4 -5.6 4.7 -3.9 5.5 -1.7Z" stroke="#add8e6" fill="none" stroke-width="6"></path></g><g transform="translate(361 4)"><path d="M4.7 -1.7C5.3 0.4 4.6 2.8 3 4C1.3 5.1 -1.1 5 -2.8 3.8C-4.6 2.6 -5.5 0.2 -4.9 -1.8C-4.3 -3.8 -2.2 -5.5 -0.1 -5.5C2 -5.5 4.1 -3.7 4.7 -1.7Z" stroke="#add8e6" fill="none" stroke-width="6"></path></g><g transform="translate(227 1)"><path d="M5.2 -1.9C5.9 0.3 4.8 2.8 3 4.1C1.2 5.4 -1.5 5.6 -3.2 4.4C-4.8 3.2 -5.5 0.6 -4.8 -1.6C-4.1 -3.8 -2 -5.7 0.1 -5.7C2.3 -5.7 4.6 -4 5.2 -1.9Z" stroke="#add8e6" fill="none" stroke-width="6"></path></g><g transform="translate(279 72)"><path d="M5.5 -1.8C6.2 0.5 5.3 3.3 3.4 4.7C1.4 6.1 -1.5 6.1 -3.4 4.7C-5.4 3.3 -6.3 0.5 -5.6 -1.8C-4.8 -4.1 -2.4 -5.8 0 -5.8C2.4 -5.8 4.7 -4.1 5.5 -1.8Z" stroke="#add8e6" fill="none" stroke-width="6"></path></g><g transform="translate(817 45)"><path d="M5 -1.7C5.6 0.3 4.6 2.7 2.9 3.9C1.2 5.2 -1.3 5.2 -3 4C-4.6 2.9 -5.4 0.4 -4.8 -1.6C-4.1 -3.6 -2.1 -5.2 0.1 -5.2C2.2 -5.2 4.4 -3.7 5 -1.7Z" stroke="#add8e6" fill="none" stroke-width="6"></path></g><g transform="translate(294 98)"><path d="M5.1 -1.8C5.8 0.4 4.9 3 3.1 4.4C1.2 5.8 -1.6 5.9 -3.4 4.7C-5.1 3.4 -5.8 0.6 -5 -1.6C-4.3 -3.9 -2.1 -5.8 0 -5.8C2.2 -5.8 4.4 -4 5.1 -1.8Z" stroke="#add8e6" fill="none" stroke-width="6"></path></g><g transform="translate(505 99)"><path d="M4.8 -1.4C5.5 0.7 5 3.4 3.3 4.7C1.7 5.9 -1.1 5.7 -2.9 4.3C-4.8 2.9 -5.6 0.4 -4.9 -1.6C-4.3 -3.6 -2.1 -5.2 -0.1 -5.1C2 -5.1 4 -3.5 4.8 -1.4Z" stroke="#add8e6" fill="none" stroke-width="6"></path></g><g transform="translate(674 76)"><path d="M5.3 -1.7C6 0.3 5 2.9 3.1 4.2C1.2 5.6 -1.6 5.8 -3.4 4.5C-5.3 3.2 -6.2 0.4 -5.5 -1.6C-4.8 -3.7 -2.4 -5.1 0 -5.1C2.3 -5.1 4.7 -3.7 5.3 -1.7Z" stroke="#add8e6" fill="none" stroke-width="6"></path></g><g transform="translate(158 33)"><path d="M5.4 -1.7C6 0.4 5.1 3 3.1 4.5C1.2 5.9 -1.8 6.2 -3.7 4.9C-5.6 3.5 -6.5 0.6 -5.7 -1.7C-4.9 -4 -2.5 -5.5 -0.1 -5.5C2.3 -5.5 4.7 -3.9 5.4 -1.7Z" stroke="#add8e6" fill="none" stroke-width="6"></path></g><g transform="translate(575 33)"><path d="M4.7 -1.8C5.3 0.3 4.5 2.6 2.8 3.9C1.1 5.1 -1.5 5.3 -3.2 4.1C-5 2.9 -6 0.3 -5.3 -1.9C-4.7 -4.1 -2.3 -5.9 -0.1 -5.8C2.1 -5.8 4.1 -3.9 4.7 -1.8Z" stroke="#add8e6" fill="none" stroke-width="6"></path></g><g transform="translate(100 47)"><path d="M5.3 -1.8C6 0.3 5 2.9 3.2 4.2C1.4 5.4 -1.1 5.3 -3 3.9C-4.9 2.6 -6.1 0.1 -5.5 -2C-4.9 -4.1 -2.4 -5.7 -0.1 -5.7C2.3 -5.7 4.6 -4 5.3 -1.8Z" stroke="#add8e6" fill="none" stroke-width="6"></path></g><g transform="translate(580 51)"><path d="M4.6 -1.4C5.3 0.7 4.8 3.3 3.1 4.6C1.4 5.9 -1.4 5.8 -3.2 4.5C-5 3.2 -5.7 0.5 -5 -1.6C-4.3 -3.7 -2.2 -5.3 -0.1 -5.3C1.9 -5.2 3.8 -3.6 4.6 -1.4Z" stroke="#add8e6" fill="none" stroke-width="6"></path></g><g transform="translate(443 3)"><path d="M4.9 -1.6C5.6 0.3 4.7 2.8 2.9 4.1C1 5.5 -1.7 5.8 -3.4 4.6C-5 3.4 -5.6 0.7 -4.8 -1.4C-4.1 -3.6 -2.1 -5.1 0.1 -5.1C2.2 -5.2 4.3 -3.6 4.9 -1.6Z" stroke="#add8e6" fill="none" stroke-width="6"></path></g><g transform="translate(484 1)"><path d="M4.7 -1.6C5.4 0.5 4.7 3 3 4.3C1.2 5.6 -1.5 5.7 -3.4 4.4C-5.3 3.1 -6.4 0.3 -5.7 -1.8C-5 -3.9 -2.5 -5.4 -0.2 -5.3C2 -5.3 4.1 -3.6 4.7 -1.6Z" stroke="#add8e6" fill="none" stroke-width="6"></path></g><g transform="translate(337 45)"><path d="M5.6 -1.7C6.3 0.3 5.2 3 3.4 4.2C1.6 5.4 -1 5.2 -2.7 3.9C-4.4 2.6 -5.2 0.3 -4.6 -1.5C-4 -3.3 -2 -4.7 0.2 -4.8C2.5 -4.8 4.9 -3.6 5.6 -1.7Z" stroke="#add8e6" fill="none" stroke-width="6"></path></g><g transform="translate(456 98)"><path d="M5.5 -1.7C6.2 0.3 5.2 3 3.3 4.3C1.4 5.7 -1.4 5.7 -3.2 4.4C-5 3 -5.9 0.4 -5.2 -1.6C-4.5 -3.6 -2.3 -5.1 0.1 -5.1C2.4 -5.1 4.9 -3.8 5.5 -1.7Z" stroke="#add8e6" fill="none" stroke-width="6"></path></g><g transform="translate(292 3)"><path d="M4.8 -1.4C5.5 0.7 5 3.4 3.2 4.8C1.4 6.2 -1.6 6.3 -3.6 4.9C-5.6 3.4 -6.5 0.5 -5.8 -1.7C-5 -3.9 -2.5 -5.3 -0.2 -5.3C2 -5.2 4 -3.6 4.8 -1.4Z" stroke="#add8e6" fill="none" stroke-width="6"></path></g><g transform="translate(191 93)"><path d="M5.3 -1.7C6 0.4 5.1 3.1 3.2 4.5C1.2 5.9 -1.7 6.1 -3.4 4.8C-5.1 3.5 -5.7 0.8 -4.9 -1.5C-4.1 -3.7 -2.1 -5.4 0.1 -5.5C2.3 -5.5 4.6 -3.9 5.3 -1.7Z" stroke="#add8e6" fill="none" stroke-width="6"></path></g><g transform="translate(478 65)"><path d="M4.6 -1.3C5.3 0.7 4.8 3.3 3.1 4.6C1.5 5.9 -1.3 5.8 -3 4.5C-4.7 3.2 -5.3 0.6 -4.6 -1.3C-3.9 -3.3 -2 -4.8 0 -4.8C1.9 -4.7 3.9 -3.3 4.6 -1.3Z" stroke="#add8e6" fill="none" stroke-width="6"></path></g><g transform="translate(133 70)"><path d="M4.9 -1.8C5.6 0.4 4.8 2.9 2.9 4.3C1.1 5.7 -1.7 6 -3.6 4.7C-5.4 3.4 -6.2 0.6 -5.5 -1.8C-4.7 -4.2 -2.4 -6 -0.1 -6C2.1 -5.9 4.3 -4 4.9 -1.8Z" stroke="#add8e6" fill="none" stroke-width="6"></path></g><g transform="translate(255 2)"><path d="M5.4 -1.7C6.2 0.6 5.4 3.5 3.5 4.8C1.7 6.2 -1.3 6 -3 4.6C-4.7 3.2 -5.3 0.7 -4.6 -1.5C-3.9 -3.7 -1.9 -5.4 0.2 -5.5C2.3 -5.6 4.6 -3.9 5.4 -1.7Z" stroke="#add8e6" fill="none" stroke-width="6"></path></g><g transform="translate(315 99)"><path d="M5.8 -1.8C6.5 0.3 5.3 3.1 3.4 4.4C1.5 5.7 -1.2 5.6 -2.9 4.3C-4.7 3 -5.4 0.5 -4.7 -1.5C-4 -3.5 -2 -5.1 0.3 -5.2C2.5 -5.2 5.1 -3.9 5.8 -1.8Z" stroke="#add8e6" fill="none" stroke-width="6"></path></g><g transform="translate(920 97)"><path d="M5.4 -1.9C6.1 0.3 5 2.9 3.1 4.3C1.1 5.8 -1.7 6.1 -3.6 4.7C-5.5 3.4 -6.4 0.5 -5.6 -1.8C-4.9 -4.1 -2.4 -5.8 0 -5.8C2.4 -5.8 4.8 -4.1 5.4 -1.9Z" stroke="#add8e6" fill="none" stroke-width="6"></path></g><g transform="translate(2 29)"><path d="M5.6 -1.8C6.4 0.6 5.5 3.5 3.7 4.7C1.9 5.9 -0.8 5.4 -2.8 4C-4.7 2.5 -5.9 0.1 -5.3 -2C-4.7 -4.2 -2.3 -6.1 0 -6.1C2.4 -6.1 4.8 -4.2 5.6 -1.8Z" stroke="#add8e6" fill="none" stroke-width="6"></path></g><g transform="translate(888 2)"><path d="M5 -1.7C5.8 0.6 5.1 3.3 3.3 4.6C1.5 6 -1.4 5.9 -3.2 4.5C-5.1 3.2 -5.9 0.5 -5.2 -1.8C-4.5 -4 -2.3 -5.8 -0.1 -5.8C2.1 -5.8 4.3 -3.9 5 -1.7Z" stroke="#add8e6" fill="none" stroke-width="6"></path></g><g transform="translate(392 18)"><path d="M5.5 -1.8C6.2 0.1 4.9 2.6 3 4.1C1 5.6 -1.8 6 -3.6 4.7C-5.4 3.5 -6.1 0.6 -5.4 -1.5C-4.6 -3.6 -2.3 -4.9 0.1 -4.9C2.5 -5 4.9 -3.7 5.5 -1.8Z" stroke="#add8e6" fill="none" stroke-width="6"></path></g><g transform="translate(389 98)"><path d="M4.9 -1.7C5.5 0.4 4.6 2.8 2.8 4.2C1 5.5 -1.8 5.9 -3.5 4.6C-5.3 3.4 -6.1 0.6 -5.3 -1.6C-4.6 -3.8 -2.3 -5.3 -0.1 -5.3C2.1 -5.2 4.2 -3.7 4.9 -1.7Z" stroke="#add8e6" fill="none" stroke-width="6"></path></g><g transform="translate(789 80)"><path d="M5.4 -1.9C6.1 0.2 4.9 2.7 3 4C1.2 5.3 -1.4 5.4 -3.1 4.2C-4.8 3 -5.6 0.5 -4.9 -1.6C-4.3 -3.7 -2.1 -5.4 0.1 -5.5C2.4 -5.5 4.8 -3.9 5.4 -1.9Z" stroke="#add8e6" fill="none" stroke-width="6"></path></g></g></svg>