<svg id="visual" viewBox="0 0 1000 100" width="1000" height="100" xmlns="http://www.w3.org/2000/svg" xmlns:xlink="http://www.w3.org/1999/xlink" version="1.1"><rect width="1000" height="100" fill="#faf9f6"></rect><g><g transform="translate(285 23)"><path d="M5.9 -1.9C6.7 0.6 5.8 3.7 3.7 5.2C1.5 6.8 -1.8 6.9 -3.8 5.4C-5.7 3.9 -6.3 0.8 -5.5 -1.7C-4.6 -4.2 -2.3 -6.1 0.1 -6.1C2.5 -6.1 5 -4.3 5.9 -1.9Z" stroke="#f6b374" fill="none" stroke-width="6"></path></g><g transform="translate(781 54)"><path d="M5.5 -1.9C6.2 0.1 4.9 2.6 3 4C1.1 5.3 -1.6 5.6 -3.4 4.3C-5.3 3.1 -6.3 0.3 -5.6 -1.8C-4.9 -3.9 -2.4 -5.4 0 -5.4C2.5 -5.4 4.9 -3.9 5.5 -1.9Z" stroke="#f6b374" fill="none" stroke-width="6"></path></g><g transform="translate(802 52)"><path d="M5.6 -2C6.2 0 4.9 2.5 2.9 4C0.9 5.4 -1.8 5.8 -3.5 4.6C-5.2 3.4 -5.9 0.6 -5.1 -1.6C-4.4 -3.9 -2.2 -5.7 0.1 -5.7C2.5 -5.8 5 -4.1 5.6 -2Z" stroke="#f6b374" fill="none" stroke-width="6"></path></g><g transform="translate(551 50)"><path d="M4.6 -1.3C5.4 0.8 5 3.5 3.2 4.9C1.5 6.3 -1.6 6.4 -3.6 4.9C-5.6 3.5 -6.5 0.5 -5.8 -1.7C-5 -3.8 -2.5 -5.3 -0.3 -5.2C1.9 -5.1 3.9 -3.5 4.6 -1.3Z" stroke="#f6b374" fill="none" stroke-width="6"></path></g><g transform="translate(893 56)"><path d="M5.3 -1.8C5.9 0.2 4.8 2.6 2.9 3.9C1.1 5.2 -1.5 5.5 -3.3 4.3C-5 3.1 -5.9 0.4 -5.2 -1.6C-4.5 -3.6 -2.2 -5.1 0.1 -5.1C2.3 -5.1 4.7 -3.7 5.3 -1.8Z" stroke="#f6b374" fill="none" stroke-width="6"></path></g><g transform="translate(282 78)"><path d="M5.6 -1.8C6.3 0.4 5.3 3.1 3.3 4.6C1.3 6.1 -1.7 6.3 -3.6 4.9C-5.6 3.5 -6.4 0.6 -5.6 -1.7C-4.9 -4 -2.4 -5.7 0 -5.7C2.4 -5.7 4.9 -4 5.6 -1.8Z" stroke="#f6b374" fill="none" stroke-width="6"></path></g><g transform="translate(780 89)"><path d="M5.3 -1.8C5.9 0.1 4.7 2.5 2.9 3.8C1 5.1 -1.5 5.3 -3.1 4.1C-4.7 3 -5.4 0.5 -4.8 -1.6C-4.1 -3.6 -2.1 -5.2 0.1 -5.3C2.3 -5.3 4.7 -3.8 5.3 -1.8Z" stroke="#f6b374" fill="none" stroke-width="6"></path></g><g transform="translate(516 52)"><path d="M5.6 -1.7C6.4 0.6 5.5 3.5 3.6 4.8C1.7 6.1 -1.1 5.8 -3.1 4.4C-5 2.9 -6 0.3 -5.3 -1.8C-4.6 -3.9 -2.3 -5.5 0 -5.6C2.4 -5.6 4.8 -4 5.6 -1.7Z" stroke="#f6b374" fill="none" stroke-width="6"></path></g><g transform="translate(933 38)"><path d="M5.4 -1.6C6.2 0.6 5.5 3.6 3.7 4.8C1.9 6 -0.9 5.5 -2.8 4.1C-4.7 2.6 -5.7 0.2 -5.1 -1.8C-4.5 -3.8 -2.3 -5.5 0 -5.5C2.3 -5.5 4.7 -3.9 5.4 -1.6Z" stroke="#f6b374" fill="none" stroke-width="6"></path></g><g transform="translate(607 52)"><path d="M5.3 -1.8C6 0.4 5.1 3 3.3 4.2C1.5 5.5 -1.1 5.2 -2.9 3.9C-4.8 2.6 -6 0.1 -5.4 -1.9C-4.8 -4 -2.4 -5.6 0 -5.6C2.3 -5.6 4.6 -3.9 5.3 -1.8Z" stroke="#f6b374" fill="none" stroke-width="6"></path></g><g transform="translate(9 19)"><path d="M4.6 -1.5C5.3 0.5 4.6 3 2.9 4.4C1.1 5.7 -1.7 6 -3.5 4.7C-5.3 3.5 -6 0.7 -5.2 -1.5C-4.4 -3.6 -2.2 -5 -0.1 -5C2 -5 4 -3.4 4.6 -1.5Z" stroke="#f6b374" fill="none" stroke-width="6"></path></g><g transform="translate(739 16)"><path d="M5.7 -1.6C6.4 0.4 5.5 3.3 3.5 4.6C1.6 6 -1.2 5.8 -3.2 4.4C-5.1 3 -6.1 0.3 -5.5 -1.6C-4.8 -3.6 -2.4 -4.8 0 -4.8C2.5 -4.9 4.9 -3.6 5.7 -1.6Z" stroke="#f6b374" fill="none" stroke-width="6"></path></g><g transform="translate(84 4)"><path d="M4.8 -1.7C5.4 0.3 4.5 2.6 2.8 3.9C1.1 5.2 -1.5 5.3 -3.2 4.1C-5 2.9 -6 0.3 -5.4 -1.8C-4.7 -3.9 -2.3 -5.5 -0.1 -5.4C2.1 -5.4 4.2 -3.7 4.8 -1.7Z" stroke="#f6b374" fill="none" stroke-width="6"></path></g><g transform="translate(207 29)"><path d="M5.4 -1.7C6 0.2 4.9 2.6 2.9 4.1C0.9 5.6 -1.9 6 -3.6 4.8C-5.4 3.6 -6.1 0.7 -5.4 -1.4C-4.6 -3.6 -2.3 -4.9 0 -4.9C2.4 -4.9 4.7 -3.6 5.4 -1.7Z" stroke="#f6b374" fill="none" stroke-width="6"></path></g><g transform="translate(580 82)"><path d="M5.2 -1.8C5.8 0.2 4.7 2.6 2.9 3.8C1.2 5 -1.2 5 -2.9 3.9C-4.5 2.7 -5.3 0.3 -4.7 -1.6C-4.1 -3.5 -2.1 -5.1 0.1 -5.1C2.3 -5.2 4.6 -3.7 5.2 -1.8Z" stroke="#f6b374" fill="none" stroke-width="6"></path></g><g transform="translate(426 54)"><path d="M5.3 -1.7C5.9 0.3 5 2.9 3 4.3C1.1 5.7 -1.7 6 -3.5 4.7C-5.2 3.5 -5.9 0.6 -5.2 -1.5C-4.4 -3.7 -2.2 -5.2 0 -5.2C2.3 -5.2 4.6 -3.7 5.3 -1.7Z" stroke="#f6b374" fill="none" stroke-width="6"></path></g><g transform="translate(706 97)"><path d="M5.6 -2C6.3 0.1 5 2.7 3 4.1C1 5.5 -1.7 5.9 -3.4 4.7C-5.1 3.5 -5.6 0.7 -4.9 -1.5C-4.1 -3.8 -2 -5.5 0.2 -5.6C2.5 -5.7 5 -4.1 5.6 -2Z" stroke="#f6b374" fill="none" stroke-width="6"></path></g><g transform="translate(908 98)"><path d="M5.2 -1.6C5.8 0.2 4.8 2.7 3 4C1.2 5.3 -1.4 5.4 -3.2 4.1C-5 2.9 -6.1 0.3 -5.4 -1.6C-4.8 -3.6 -2.4 -4.8 -0.1 -4.8C2.3 -4.8 4.5 -3.5 5.2 -1.6Z" stroke="#f6b374" fill="none" stroke-width="6"></path></g><g transform="translate(302 70)"><path d="M5.1 -1.7C5.8 0.5 5 3.1 3.3 4.3C1.6 5.5 -1.1 5.3 -2.8 4C-4.5 2.7 -5.3 0.4 -4.7 -1.7C-4.1 -3.8 -2 -5.7 0.1 -5.7C2.2 -5.7 4.4 -3.9 5.1 -1.7Z" stroke="#f6b374" fill="none" stroke-width="6"></path></g><g transform="translate(337 37)"><path d="M5.1 -1.7C5.7 0.3 4.8 2.9 3 4.2C1.2 5.5 -1.5 5.6 -3.1 4.4C-4.7 3.2 -5.2 0.7 -4.5 -1.5C-3.8 -3.6 -1.9 -5.4 0.2 -5.4C2.2 -5.5 4.4 -3.8 5.1 -1.7Z" stroke="#f6b374" fill="none" stroke-width="6"></path></g><g transform="translate(411 26)"><path d="M5.2 -1.4C6 0.7 5.3 3.6 3.5 4.9C1.7 6.2 -1.2 6 -3.2 4.5C-5.2 3.1 -6.1 0.4 -5.4 -1.6C-4.7 -3.7 -2.4 -5 -0.1 -5C2.2 -5 4.4 -3.6 5.2 -1.4Z" stroke="#f6b374" fill="none" stroke-width="6"></path></g><g transform="translate(348 14)"><path d="M5.2 -2C5.8 0.1 4.7 2.5 2.8 3.9C0.8 5.3 -1.9 5.8 -3.6 4.6C-5.3 3.4 -6.1 0.6 -5.3 -1.8C-4.6 -4.1 -2.3 -6.1 0 -6.1C2.3 -6.1 4.6 -4.2 5.2 -2Z" stroke="#f6b374" fill="none" stroke-width="6"></path></g><g transform="translate(397 64)"><path d="M5.7 -1.6C6.4 0.5 5.5 3.3 3.5 4.8C1.5 6.2 -1.5 6.2 -3.5 4.8C-5.6 3.3 -6.6 0.4 -5.8 -1.6C-5.1 -3.7 -2.5 -5 0 -4.9C2.5 -4.9 4.9 -3.7 5.7 -1.6Z" stroke="#f6b374" fill="none" stroke-width="6"></path></g><g transform="translate(912 55)"><path d="M4.7 -1.6C5.5 0.7 4.9 3.3 3.2 4.6C1.5 5.9 -1.3 5.8 -3 4.4C-4.7 3.1 -5.3 0.6 -4.6 -1.6C-3.9 -3.9 -2 -5.8 0 -5.8C2 -5.8 4 -3.9 4.7 -1.6Z" stroke="#f6b374" fill="none" stroke-width="6"></path></g><g transform="translate(548 4)"><path d="M5.5 -1.7C6.2 0.3 5.2 3 3.4 4.3C1.5 5.5 -1.1 5.3 -3 3.9C-4.8 2.6 -6 0.1 -5.4 -1.8C-4.7 -3.7 -2.4 -5 0 -5C2.4 -5 4.8 -3.7 5.5 -1.7Z" stroke="#f6b374" fill="none" stroke-width="6"></path></g><g transform="translate(427 97)"><path d="M4.5 -1.5C5 0.4 4.3 2.7 2.7 3.9C1.1 5.1 -1.4 5.3 -3 4.1C-4.6 3 -5.2 0.5 -4.5 -1.4C-3.9 -3.4 -1.9 -4.9 0 -4.9C1.9 -4.9 3.9 -3.4 4.5 -1.5Z" stroke="#f6b374" fill="none" stroke-width="6"></path></g><g transform="translate(41 62)"><path d="M4.8 -1.5C5.5 0.6 4.8 3.2 3.2 4.4C1.6 5.6 -1.1 5.3 -2.8 4C-4.5 2.7 -5.3 0.4 -4.7 -1.6C-4.1 -3.6 -2 -5.3 0 -5.3C2 -5.3 4.1 -3.6 4.8 -1.5Z" stroke="#f6b374" fill="none" stroke-width="6"></path></g><g transform="translate(195 8)"><path d="M5.6 -1.7C6.4 0.3 5.3 3.1 3.4 4.4C1.6 5.6 -1.1 5.4 -2.9 4.1C-4.6 2.8 -5.5 0.4 -4.8 -1.5C-4.2 -3.4 -2.1 -4.8 0.2 -4.9C2.5 -4.9 4.9 -3.7 5.6 -1.7Z" stroke="#f6b374" fill="none" stroke-width="6"></path></g><g transform="translate(859 48)"><path d="M5 -1.8C5.7 0.4 4.8 2.8 3 4.1C1.2 5.4 -1.5 5.6 -3.4 4.3C-5.3 3 -6.4 0.3 -5.7 -1.9C-5.1 -4.1 -2.5 -5.7 -0.2 -5.7C2.2 -5.6 4.4 -3.9 5 -1.8Z" stroke="#f6b374" fill="none" stroke-width="6"></path></g><g transform="translate(86 86)"><path d="M4.5 -1.5C5.2 0.5 4.5 3 3 4.1C1.4 5.3 -1.2 5.2 -3.1 3.9C-5 2.6 -6.3 0.1 -5.6 -2C-5 -4 -2.5 -5.6 -0.3 -5.5C1.9 -5.4 3.9 -3.6 4.5 -1.5Z" stroke="#f6b374" fill="none" stroke-width="6"></path></g><g transform="translate(438 2)"><path d="M5.1 -1.5C5.8 0.6 5.2 3.4 3.4 4.7C1.6 6.1 -1.3 5.9 -3.1 4.6C-4.8 3.2 -5.4 0.7 -4.7 -1.5C-4 -3.6 -2 -5.2 0.1 -5.2C2.2 -5.3 4.3 -3.7 5.1 -1.5Z" stroke="#f6b374" fill="none" stroke-width="6"></path></g><g transform="translate(860 90)"><path d="M5.2 -1.6C5.8 0.2 4.8 2.7 3 3.9C1.3 5.2 -1.2 5.1 -2.8 4C-4.4 2.8 -5.1 0.5 -4.4 -1.4C-3.8 -3.3 -1.9 -4.7 0.2 -4.7C2.3 -4.8 4.6 -3.5 5.2 -1.6Z" stroke="#f6b374" fill="none" stroke-width="6"></path></g><g transform="translate(435 75)"><path d="M5.2 -1.7C5.9 0.6 5.2 3.4 3.4 4.6C1.7 5.8 -1.1 5.5 -2.8 4.2C-4.6 2.8 -5.4 0.4 -4.8 -1.7C-4.2 -3.9 -2.1 -5.7 0.1 -5.7C2.2 -5.7 4.4 -4 5.2 -1.7Z" stroke="#f6b374" fill="none" stroke-width="6"></path></g><g transform="translate(818 7)"><path d="M5.4 -1.8C6.1 0.2 5 2.8 3.1 4.1C1.3 5.4 -1.3 5.4 -3 4.2C-4.6 3 -5.2 0.6 -4.5 -1.5C-3.9 -3.5 -1.9 -5.1 0.2 -5.2C2.4 -5.2 4.8 -3.8 5.4 -1.8Z" stroke="#f6b374" fill="none" stroke-width="6"></path></g><g transform="translate(98 35)"><path d="M5.2 -2C5.8 0.2 4.8 2.7 3 3.9C1.3 5.1 -1.2 5.1 -2.9 3.9C-4.6 2.7 -5.5 0.3 -4.9 -1.9C-4.3 -4 -2.2 -5.9 0.1 -6C2.3 -6 4.6 -4.1 5.2 -2Z" stroke="#f6b374" fill="none" stroke-width="6"></path></g><g transform="translate(174 42)"><path d="M5.1 -1.8C5.8 0.5 5 3.1 3.2 4.3C1.5 5.6 -1.1 5.4 -3.1 4C-5.1 2.7 -6.3 0.1 -5.7 -2.1C-5.1 -4.2 -2.5 -6 -0.2 -5.9C2.2 -5.9 4.4 -4 5.1 -1.8Z" stroke="#f6b374" fill="none" stroke-width="6"></path></g><g transform="translate(675 48)"><path d="M5.2 -1.7C5.9 0.3 4.9 2.9 3.1 4.2C1.3 5.4 -1.3 5.5 -3.3 4.1C-5.2 2.8 -6.4 0.2 -5.7 -1.9C-5 -4 -2.5 -5.5 -0.1 -5.4C2.3 -5.4 4.6 -3.8 5.2 -1.7Z" stroke="#f6b374" fill="none" stroke-width="6"></path></g><g transform="translate(168 86)"><path d="M5 -1.4C5.8 0.8 5.2 3.6 3.5 4.8C1.9 6 -0.9 5.6 -2.8 4.2C-4.6 2.7 -5.5 0.3 -4.9 -1.6C-4.3 -3.6 -2.1 -5.1 0 -5.1C2.1 -5.1 4.2 -3.6 5 -1.4Z" stroke="#f6b374" fill="none" stroke-width="6"></path></g><g transform="translate(363 85)"><path d="M5.3 -1.5C6 0.7 5.4 3.6 3.6 4.8C1.9 6 -0.9 5.5 -2.8 4.1C-4.7 2.7 -5.6 0.3 -5 -1.7C-4.4 -3.6 -2.2 -5.1 0 -5.1C2.2 -5.1 4.5 -3.6 5.3 -1.5Z" stroke="#f6b374" fill="none" stroke-width="6"></path></g><g transform="translate(791 12)"><path d="M5 -1.7C5.6 0.4 4.8 3 3 4.3C1.2 5.7 -1.6 5.9 -3.2 4.6C-4.9 3.4 -5.4 0.8 -4.6 -1.5C-3.9 -3.7 -2 -5.5 0.1 -5.5C2.1 -5.5 4.3 -3.8 5 -1.7Z" stroke="#f6b374" fill="none" stroke-width="6"></path></g><g transform="translate(880 26)"><path d="M4.4 -1.5C5.1 0.5 4.4 2.8 2.8 4C1.2 5.2 -1.3 5.2 -2.9 4C-4.6 2.8 -5.4 0.4 -4.8 -1.6C-4.2 -3.6 -2.1 -5.1 -0.1 -5.1C1.9 -5 3.8 -3.5 4.4 -1.5Z" stroke="#f6b374" fill="none" stroke-width="6"></path></g><g transform="translate(25 93)"><path d="M5 -1.4C5.8 0.6 5.1 3.3 3.4 4.6C1.7 5.8 -1 5.5 -2.8 4.1C-4.7 2.7 -5.6 0.3 -5 -1.6C-4.4 -3.5 -2.2 -4.8 0 -4.8C2.1 -4.8 4.3 -3.5 5 -1.4Z" stroke="#f6b374" fill="none" stroke-width="6"></path></g><g transform="translate(125 7)"><path d="M5.4 -1.7C6 0.2 4.9 2.7 3.1 4C1.3 5.2 -1.2 5.2 -2.9 4C-4.6 2.8 -5.4 0.4 -4.8 -1.5C-4.2 -3.4 -2.1 -4.8 0.1 -4.9C2.4 -4.9 4.7 -3.6 5.4 -1.7Z" stroke="#f6b374" fill="none" stroke-width="6"></path></g><g transform="translate(572 22)"><path d="M5.2 -1.7C6 0.5 5.1 3.2 3.4 4.5C1.6 5.7 -1.1 5.5 -2.9 4.2C-4.7 2.8 -5.6 0.4 -5 -1.7C-4.3 -3.8 -2.2 -5.5 0.1 -5.5C2.3 -5.5 4.5 -3.9 5.2 -1.7Z" stroke="#f6b374" fill="none" stroke-width="6"></path></g><g transform="translate(62 64)"><path d="M5 -1.8C5.6 0.4 4.7 2.8 2.9 4.3C1 5.7 -1.9 6.1 -3.5 4.9C-5.1 3.7 -5.5 0.9 -4.8 -1.4C-4 -3.8 -2 -5.6 0.1 -5.6C2.2 -5.6 4.3 -3.9 5 -1.8Z" stroke="#f6b374" fill="none" stroke-width="6"></path></g><g transform="translate(653 86)"><path d="M5.4 -2C6 0.2 4.9 2.7 2.9 4.1C1 5.6 -1.8 6 -3.6 4.7C-5.4 3.5 -6.1 0.6 -5.4 -1.7C-4.6 -4.1 -2.3 -6 0 -6C2.4 -6 4.7 -4.2 5.4 -2Z" stroke="#f6b374" fill="none" stroke-width="6"></path></g><g transform="translate(352 57)"><path d="M5.5 -1.6C6.3 0.6 5.5 3.4 3.5 4.9C1.6 6.3 -1.4 6.2 -3.4 4.7C-5.4 3.3 -6.3 0.5 -5.5 -1.7C-4.8 -3.8 -2.4 -5.3 0 -5.3C2.4 -5.3 4.8 -3.8 5.5 -1.6Z" stroke="#f6b374" fill="none" stroke-width="6"></path></g><g transform="translate(477 97)"><path d="M4.9 -1.5C5.6 0.8 5.1 3.6 3.4 4.9C1.7 6.2 -1.3 6.1 -3.4 4.6C-5.4 3.1 -6.5 0.3 -5.8 -1.8C-5 -4 -2.5 -5.6 -0.2 -5.5C2 -5.4 4.1 -3.7 4.9 -1.5Z" stroke="#f6b374" fill="none" stroke-width="6"></path></g><g transform="translate(210 97)"><path d="M5.2 -1.6C5.9 0.5 5.1 3.2 3.3 4.4C1.6 5.6 -1 5.3 -2.9 4C-4.7 2.6 -5.8 0.2 -5.2 -1.7C-4.6 -3.7 -2.3 -5.1 0 -5.1C2.2 -5.1 4.5 -3.6 5.2 -1.6Z" stroke="#f6b374" fill="none" stroke-width="6"></path></g><g transform="translate(975 55)"><path d="M5.7 -1.7C6.4 0.5 5.5 3.3 3.5 4.8C1.5 6.2 -1.6 6.3 -3.4 4.9C-5.2 3.6 -5.7 0.8 -4.9 -1.4C-4.1 -3.7 -2.1 -5.3 0.2 -5.4C2.5 -5.5 4.9 -3.9 5.7 -1.7Z" stroke="#f6b374" fill="none" stroke-width="6"></path></g><g transform="translate(220 14)"><path d="M4.7 -1.6C5.3 0.4 4.5 2.8 2.8 4.1C1.1 5.5 -1.6 5.7 -3.5 4.4C-5.3 3.2 -6.4 0.4 -5.6 -1.8C-4.9 -3.9 -2.5 -5.5 -0.2 -5.4C2 -5.4 4 -3.7 4.7 -1.6Z" stroke="#f6b374" fill="none" stroke-width="6"></path></g><g transform="translate(177 16)"><path d="M4.8 -1.6C5.5 0.6 4.8 3.2 3.2 4.4C1.5 5.7 -1.2 5.6 -3.2 4.2C-5.1 2.8 -6.2 0.2 -5.5 -1.9C-4.9 -4 -2.4 -5.6 -0.2 -5.5C2 -5.5 4.1 -3.7 4.8 -1.6Z" stroke="#f6b374" fill="none" stroke-width="6"></path></g><g transform="translate(322 11)"><path d="M4.9 -1.5C5.7 0.7 5.1 3.5 3.3 4.9C1.6 6.2 -1.4 6.2 -3.4 4.7C-5.4 3.3 -6.3 0.5 -5.6 -1.8C-4.9 -4 -2.4 -5.7 -0.2 -5.6C2.1 -5.6 4.2 -3.8 4.9 -1.5Z" stroke="#f6b374" fill="none" stroke-width="6"></path></g><g transform="translate(370 66)"><path d="M4.9 -1.5C5.6 0.7 5 3.4 3.3 4.7C1.5 6 -1.4 5.9 -3.3 4.5C-5.2 3.1 -6.1 0.4 -5.4 -1.7C-4.7 -3.8 -2.4 -5.3 -0.1 -5.3C2.1 -5.3 4.2 -3.6 4.9 -1.5Z" stroke="#f6b374" fill="none" stroke-width="6"></path></g><g transform="translate(628 93)"><path d="M4.9 -1.5C5.5 0.5 4.8 3.1 3 4.5C1.3 5.9 -1.6 6 -3.5 4.7C-5.4 3.4 -6.2 0.5 -5.5 -1.6C-4.7 -3.8 -2.4 -5.3 -0.1 -5.3C2.1 -5.2 4.2 -3.6 4.9 -1.5Z" stroke="#f6b374" fill="none" stroke-width="6"></path></g><g transform="translate(469 36)"><path d="M4.6 -1.7C5.2 0.4 4.4 2.7 2.7 4.1C0.9 5.4 -1.8 5.9 -3.4 4.7C-5 3.5 -5.5 0.8 -4.7 -1.5C-4 -3.9 -2 -5.8 0 -5.8C2 -5.8 4 -3.9 4.6 -1.7Z" stroke="#f6b374" fill="none" stroke-width="6"></path></g><g transform="translate(124 75)"><path d="M5.2 -1.8C5.8 0.2 4.7 2.6 2.8 4.1C0.9 5.5 -1.9 6 -3.5 4.8C-5.2 3.6 -5.7 0.8 -4.9 -1.5C-4.1 -3.8 -2 -5.5 0.1 -5.6C2.3 -5.6 4.5 -3.9 5.2 -1.8Z" stroke="#f6b374" fill="none" stroke-width="6"></path></g><g transform="translate(312 50)"><path d="M5.6 -1.8C6.3 0.4 5.3 3.2 3.4 4.6C1.4 6 -1.5 6 -3.2 4.7C-4.9 3.4 -5.4 0.7 -4.7 -1.5C-3.9 -3.7 -2 -5.4 0.2 -5.5C2.4 -5.6 4.8 -4 5.6 -1.8Z" stroke="#f6b374" fill="none" stroke-width="6"></path></g><g transform="translate(222 49)"><path d="M4.8 -1.5C5.6 0.8 5.1 3.6 3.5 4.7C1.9 5.9 -0.9 5.4 -2.6 4C-4.4 2.7 -5.2 0.4 -4.6 -1.7C-4 -3.8 -2 -5.7 0 -5.7C2 -5.7 4 -3.8 4.8 -1.5Z" stroke="#f6b374" fill="none" stroke-width="6"></path></g><g transform="translate(514 18)"><path d="M5.3 -1.6C6 0.5 5.1 3.2 3.3 4.5C1.5 5.8 -1.3 5.7 -3.1 4.4C-4.9 3 -5.7 0.5 -5 -1.6C-4.4 -3.7 -2.2 -5.3 0 -5.3C2.3 -5.3 4.5 -3.8 5.3 -1.6Z" stroke="#f6b374" fill="none" stroke-width="6"></path></g><g transform="translate(695 21)"><path d="M4.9 -1.5C5.5 0.3 4.7 2.8 2.8 4.2C1 5.5 -1.7 5.9 -3.5 4.6C-5.3 3.4 -6.2 0.5 -5.4 -1.5C-4.7 -3.6 -2.3 -4.8 -0.1 -4.8C2.1 -4.8 4.3 -3.4 4.9 -1.5Z" stroke="#f6b374" fill="none" stroke-width="6"></path></g><g transform="translate(190 77)"><path d="M5.5 -1.9C6.1 0.3 5.1 2.9 3.1 4.4C1.2 5.8 -1.7 6 -3.5 4.7C-5.3 3.4 -6 0.6 -5.3 -1.7C-4.5 -4.1 -2.3 -6 0.1 -6C2.4 -6 4.8 -4.2 5.5 -1.9Z" stroke="#f6b374" fill="none" stroke-width="6"></path></g><g transform="translate(240 71)"><path d="M5.7 -1.8C6.4 0.4 5.4 3.3 3.5 4.7C1.5 6.1 -1.5 6.1 -3.4 4.7C-5.4 3.3 -6.3 0.5 -5.5 -1.8C-4.8 -4.1 -2.4 -5.8 0 -5.8C2.5 -5.8 5 -4.1 5.7 -1.8Z" stroke="#f6b374" fill="none" stroke-width="6"></path></g><g transform="translate(621 73)"><path d="M4.5 -1.6C5.1 0.4 4.4 2.7 2.7 4.1C0.9 5.4 -1.8 5.9 -3.4 4.7C-4.9 3.6 -5.3 0.8 -4.6 -1.4C-3.8 -3.6 -1.9 -5.3 0 -5.3C2 -5.3 3.9 -3.6 4.5 -1.6Z" stroke="#f6b374" fill="none" stroke-width="6"></path></g><g transform="translate(490 47)"><path d="M5.1 -1.8C5.7 0.3 4.7 2.7 3 4C1.2 5.2 -1.3 5.3 -3.2 4C-5.1 2.8 -6.3 0.1 -5.7 -2C-5 -4.1 -2.5 -5.8 -0.2 -5.8C2.2 -5.7 4.4 -3.9 5.1 -1.8Z" stroke="#f6b374" fill="none" stroke-width="6"></path></g><g transform="translate(534 20)"><path d="M5.1 -1.8C5.7 0.2 4.7 2.6 2.8 4C0.8 5.5 -1.9 6 -3.6 4.8C-5.2 3.6 -5.7 0.8 -4.9 -1.4C-4.1 -3.7 -2 -5.4 0.1 -5.4C2.3 -5.4 4.5 -3.8 5.1 -1.8Z" stroke="#f6b374" fill="none" stroke-width="6"></path></g><g transform="translate(553 79)"><path d="M5.3 -1.9C5.9 0.2 4.8 2.6 3 3.9C1.1 5.2 -1.4 5.3 -3.2 4.1C-4.9 2.9 -5.8 0.4 -5.2 -1.8C-4.5 -3.9 -2.3 -5.7 0 -5.7C2.3 -5.7 4.7 -4 5.3 -1.9Z" stroke="#f6b374" fill="none" stroke-width="6"></path></g><g transform="translate(482 76)"><path d="M5.7 -1.8C6.5 0.5 5.5 3.4 3.5 4.9C1.5 6.3 -1.6 6.4 -3.6 4.9C-5.5 3.5 -6.5 0.5 -5.7 -1.7C-4.9 -4 -2.5 -5.6 0 -5.6C2.5 -5.6 5 -4 5.7 -1.8Z" stroke="#f6b374" fill="none" stroke-width="6"></path></g><g transform="translate(143 1)"><path d="M4.7 -1.7C5.3 0.3 4.5 2.7 2.7 4C1 5.3 -1.7 5.7 -3.3 4.5C-4.8 3.4 -5.3 0.8 -4.6 -1.5C-3.9 -3.7 -1.9 -5.5 0.1 -5.5C2 -5.5 4.1 -3.7 4.7 -1.7Z" stroke="#f6b374" fill="none" stroke-width="6"></path></g><g transform="translate(465 7)"><path d="M5 -1.5C5.7 0.6 5 3.2 3.3 4.4C1.6 5.6 -1.1 5.4 -3.1 4C-5.1 2.6 -6.3 0.1 -5.7 -1.9C-5.1 -3.9 -2.5 -5.3 -0.2 -5.2C2.2 -5.1 4.3 -3.6 5 -1.5Z" stroke="#f6b374" fill="none" stroke-width="6"></path></g><g transform="translate(19 36)"><path d="M5 -1.7C5.7 0.5 4.9 3 3.2 4.2C1.5 5.4 -1 5.2 -2.9 3.8C-4.9 2.5 -6.1 0.1 -5.5 -2C-4.9 -4 -2.5 -5.6 -0.1 -5.5C2.2 -5.5 4.3 -3.8 5 -1.7Z" stroke="#f6b374" fill="none" stroke-width="6"></path></g><g transform="translate(653 58)"><path d="M5.3 -1.6C6 0.5 5.2 3.3 3.5 4.5C1.7 5.7 -1 5.4 -2.8 4.1C-4.6 2.7 -5.5 0.3 -4.9 -1.6C-4.3 -3.6 -2.1 -5.1 0.1 -5.2C2.3 -5.2 4.6 -3.7 5.3 -1.6Z" stroke="#f6b374" fill="none" stroke-width="6"></path></g><g transform="translate(777 26)"><path d="M4.7 -1.6C5.4 0.6 4.8 3.2 3.1 4.4C1.5 5.6 -1.2 5.4 -3.1 4.1C-5.1 2.7 -6.3 0.1 -5.7 -2C-5 -4.1 -2.5 -5.7 -0.3 -5.6C2 -5.6 4 -3.7 4.7 -1.6Z" stroke="#f6b374" fill="none" stroke-width="6"></path></g><g transform="translate(577 2)"><path d="M5.6 -1.7C6.3 0.2 5.1 2.8 3.2 4.1C1.3 5.5 -1.3 5.5 -3.1 4.2C-4.9 2.9 -5.8 0.4 -5.1 -1.6C-4.4 -3.5 -2.2 -4.9 0.1 -4.9C2.5 -5 4.9 -3.7 5.6 -1.7Z" stroke="#f6b374" fill="none" stroke-width="6"></path></g><g transform="translate(739 90)"><path d="M5.7 -1.9C6.5 0.4 5.4 3.2 3.4 4.7C1.4 6.1 -1.5 6.2 -3.5 4.8C-5.4 3.4 -6.3 0.5 -5.5 -1.8C-4.7 -4.1 -2.4 -5.8 0.1 -5.9C2.5 -5.9 5 -4.2 5.7 -1.9Z" stroke="#f6b374" fill="none" stroke-width="6"></path></g><g transform="translate(651 3)"><path d="M5.7 -1.7C6.4 0.4 5.4 3.2 3.4 4.6C1.4 6 -1.5 6.1 -3.2 4.7C-4.9 3.4 -5.4 0.7 -4.7 -1.4C-4 -3.5 -2 -5.1 0.2 -5.2C2.5 -5.3 5 -3.9 5.7 -1.7Z" stroke="#f6b374" fill="none" stroke-width="6"></path></g><g transform="translate(721 2)"><path d="M5.3 -1.8C6.1 0.5 5.2 3.2 3.3 4.6C1.5 5.9 -1.4 5.9 -3.2 4.6C-5 3.2 -5.7 0.6 -5 -1.7C-4.3 -4 -2.1 -5.9 0.1 -5.9C2.3 -6 4.6 -4.1 5.3 -1.8Z" stroke="#f6b374" fill="none" stroke-width="6"></path></g><g transform="translate(726 33)"><path d="M4.8 -1.7C5.4 0.3 4.5 2.6 2.8 3.9C1.1 5.1 -1.4 5.3 -3 4.1C-4.6 3 -5.3 0.5 -4.7 -1.5C-4 -3.5 -2 -5.1 0.1 -5.1C2.1 -5.1 4.2 -3.6 4.8 -1.7Z" stroke="#f6b374" fill="none" stroke-width="6"></path></g><g transform="translate(585 38)"><path d="M5.5 -1.7C6.1 0.3 5.1 2.9 3.2 4.2C1.3 5.5 -1.4 5.5 -3.2 4.2C-5.1 2.9 -6.2 0.3 -5.5 -1.7C-4.8 -3.7 -2.4 -5 0 -5C2.4 -5 4.8 -3.7 5.5 -1.7Z" stroke="#f6b374" fill="none" stroke-width="6"></path></g><g transform="translate(327 68)"><path d="M4.7 -1.6C5.3 0.3 4.5 2.6 2.7 3.9C1 5.3 -1.7 5.6 -3.4 4.4C-5.2 3.2 -6.1 0.5 -5.3 -1.6C-4.6 -3.6 -2.3 -5 -0.1 -4.9C2.1 -4.9 4.2 -3.5 4.7 -1.6Z" stroke="#f6b374" fill="none" stroke-width="6"></path></g><g transform="translate(814 67)"><path d="M5.5 -1.6C6.2 0.6 5.4 3.4 3.5 4.8C1.6 6.2 -1.3 6 -3.3 4.5C-5.3 3.1 -6.4 0.3 -5.7 -1.8C-5 -4 -2.5 -5.5 -0.1 -5.5C2.3 -5.5 4.7 -3.9 5.5 -1.6Z" stroke="#f6b374" fill="none" stroke-width="6"></path></g><g transform="translate(272 51)"><path d="M5.4 -1.6C6.1 0.4 5.2 3.1 3.3 4.5C1.3 6 -1.6 6.1 -3.3 4.8C-5 3.5 -5.4 0.8 -4.6 -1.3C-3.9 -3.4 -1.9 -4.8 0.2 -4.9C2.4 -5 4.7 -3.6 5.4 -1.6Z" stroke="#f6b374" fill="none" stroke-width="6"></path></g><g transform="translate(240 41)"><path d="M4.6 -1.6C5.3 0.7 4.8 3.3 3.1 4.5C1.5 5.8 -1.3 5.7 -3.2 4.4C-5 3 -5.9 0.4 -5.2 -1.8C-4.5 -4.1 -2.3 -5.9 -0.2 -5.9C2 -5.8 3.9 -3.9 4.6 -1.6Z" stroke="#f6b374" fill="none" stroke-width="6"></path></g><g transform="translate(234 97)"><path d="M5.1 -1.7C5.8 0.3 4.8 2.8 3.1 4C1.3 5.2 -1.2 5.2 -2.9 3.9C-4.7 2.7 -5.6 0.3 -5 -1.7C-4.4 -3.7 -2.2 -5.2 0 -5.3C2.2 -5.3 4.5 -3.7 5.1 -1.7Z" stroke="#f6b374" fill="none" stroke-width="6"></path></g><g transform="translate(579 58)"><path d="M4.6 -1.2C5.3 0.8 4.9 3.5 3.2 4.7C1.6 6 -1.3 5.8 -3.1 4.4C-5 3 -5.8 0.4 -5.1 -1.5C-4.4 -3.5 -2.2 -4.8 -0.1 -4.7C1.9 -4.7 3.8 -3.3 4.6 -1.2Z" stroke="#f6b374" fill="none" stroke-width="6"></path></g><g transform="translate(461 65)"><path d="M5.6 -1.9C6.3 0.1 5 2.6 3 4.1C1 5.5 -1.8 5.9 -3.4 4.7C-5.1 3.5 -5.7 0.7 -4.9 -1.5C-4.2 -3.6 -2.1 -5.3 0.2 -5.3C2.5 -5.4 5 -3.9 5.6 -1.9Z" stroke="#f6b374" fill="none" stroke-width="6"></path></g><g transform="translate(999 84)"><path d="M5.3 -1.6C6.1 0.6 5.3 3.4 3.4 4.9C1.5 6.3 -1.5 6.3 -3.4 4.8C-5.4 3.4 -6.3 0.5 -5.5 -1.6C-4.8 -3.8 -2.4 -5.3 0 -5.2C2.3 -5.2 4.6 -3.7 5.3 -1.6Z" stroke="#f6b374" fill="none" stroke-width="6"></path></g><g transform="translate(523 73)"><path d="M4.5 -1.3C5.3 0.7 4.8 3.3 3.2 4.4C1.6 5.6 -1 5.3 -2.8 4C-4.6 2.7 -5.5 0.3 -4.8 -1.6C-4.2 -3.5 -2.1 -4.9 -0.1 -4.9C1.9 -4.8 3.8 -3.4 4.5 -1.3Z" stroke="#f6b374" fill="none" stroke-width="6"></path></g><g transform="translate(249 9)"><path d="M5.3 -1.5C6.1 0.7 5.3 3.5 3.5 4.9C1.6 6.2 -1.4 6.1 -3.4 4.7C-5.4 3.2 -6.4 0.4 -5.7 -1.7C-4.9 -3.7 -2.5 -5 -0.1 -5C2.3 -5 4.5 -3.6 5.3 -1.5Z" stroke="#f6b374" fill="none" stroke-width="6"></path></g><g transform="translate(369 27)"><path d="M5.2 -1.4C6 0.7 5.3 3.5 3.5 4.8C1.7 6.1 -1.2 5.9 -3.1 4.5C-5 3.1 -5.8 0.4 -5.1 -1.5C-4.5 -3.5 -2.2 -4.8 0 -4.8C2.2 -4.8 4.4 -3.5 5.2 -1.4Z" stroke="#f6b374" fill="none" stroke-width="6"></path></g><g transform="translate(266 29)"><path d="M4.8 -1.7C5.4 0.4 4.6 2.8 2.8 4.1C1 5.4 -1.7 5.7 -3.4 4.5C-5.1 3.3 -5.9 0.5 -5.2 -1.7C-4.5 -3.8 -2.2 -5.5 -0.1 -5.5C2.1 -5.4 4.1 -3.7 4.8 -1.7Z" stroke="#f6b374" fill="none" stroke-width="6"></path></g><g transform="translate(50 44)"><path d="M5.2 -1.7C5.9 0.4 5 3 3.1 4.4C1.2 5.8 -1.7 6 -3.4 4.8C-5 3.5 -5.6 0.8 -4.8 -1.5C-4.1 -3.7 -2 -5.3 0.1 -5.4C2.3 -5.4 4.5 -3.8 5.2 -1.7Z" stroke="#f6b374" fill="none" stroke-width="6"></path></g><g transform="translate(874 67)"><path d="M4.9 -1.3C5.7 0.7 5.1 3.4 3.4 4.6C1.7 5.9 -1 5.5 -3 4.1C-4.9 2.7 -6.1 0.2 -5.5 -1.7C-4.8 -3.6 -2.4 -4.8 -0.2 -4.8C2.1 -4.7 4.2 -3.4 4.9 -1.3Z" stroke="#f6b374" fill="none" stroke-width="6"></path></g><g transform="translate(901 78)"><path d="M5 -1.7C5.7 0.5 4.9 3 3 4.4C1.2 5.8 -1.6 6 -3.5 4.7C-5.3 3.4 -6.1 0.6 -5.4 -1.7C-4.6 -3.9 -2.3 -5.6 -0.1 -5.5C2.2 -5.5 4.3 -3.8 5 -1.7Z" stroke="#f6b374" fill="none" stroke-width="6"></path></g><g transform="translate(742 54)"><path d="M5 -1.5C5.7 0.6 5 3.2 3.3 4.5C1.6 5.7 -1.2 5.6 -3.1 4.2C-5 2.8 -6.2 0.2 -5.5 -1.8C-4.9 -3.8 -2.4 -5.3 -0.1 -5.2C2.1 -5.2 4.3 -3.6 5 -1.5Z" stroke="#f6b374" fill="none" stroke-width="6"></path></g><g transform="translate(400 90)"><path d="M5.2 -1.7C5.9 0.5 5.1 3.2 3.3 4.5C1.4 5.9 -1.4 5.9 -3.1 4.6C-4.8 3.3 -5.3 0.7 -4.6 -1.5C-3.9 -3.7 -1.9 -5.6 0.1 -5.6C2.2 -5.6 4.5 -3.9 5.2 -1.7Z" stroke="#f6b374" fill="none" stroke-width="6"></path></g><g transform="translate(885 97)"><path d="M5.4 -1.9C6.1 0.2 4.9 2.7 3 4.1C1.1 5.5 -1.6 5.7 -3.5 4.4C-5.3 3.2 -6.4 0.4 -5.6 -1.8C-4.9 -4.1 -2.5 -5.8 0 -5.8C2.4 -5.7 4.8 -4 5.4 -1.9Z" stroke="#f6b374" fill="none" stroke-width="6"></path></g><g transform="translate(672 17)"><path d="M5.4 -1.9C6.1 0.4 5.1 3 3.3 4.3C1.5 5.6 -1.2 5.5 -3 4.1C-4.9 2.8 -5.8 0.3 -5.2 -1.9C-4.5 -4 -2.3 -5.9 0.1 -5.9C2.4 -5.9 4.8 -4.1 5.4 -1.9Z" stroke="#f6b374" fill="none" stroke-width="6"></path></g><g transform="translate(713 57)"><path d="M4.7 -1.6C5.3 0.4 4.6 2.8 2.9 4C1.3 5.2 -1.2 5.2 -2.9 4C-4.6 2.8 -5.5 0.3 -4.9 -1.7C-4.2 -3.7 -2.1 -5.4 0 -5.4C2 -5.4 4.1 -3.7 4.7 -1.6Z" stroke="#f6b374" fill="none" stroke-width="6"></path></g><g transform="translate(604 96)"><path d="M5.5 -1.5C6.2 0.5 5.4 3.3 3.4 4.7C1.5 6.1 -1.5 6.1 -3.4 4.7C-5.4 3.3 -6.3 0.5 -5.5 -1.6C-4.8 -3.6 -2.4 -4.8 0 -4.8C2.4 -4.8 4.7 -3.6 5.5 -1.5Z" stroke="#f6b374" fill="none" stroke-width="6"></path></g><g transform="translate(974 89)"><path d="M5.5 -1.9C6.1 0 4.9 2.5 2.9 3.9C1 5.2 -1.6 5.5 -3.3 4.3C-5.1 3.1 -6 0.4 -5.3 -1.6C-4.6 -3.6 -2.3 -5.1 0.1 -5.1C2.5 -5.1 4.9 -3.8 5.5 -1.9Z" stroke="#f6b374" fill="none" stroke-width="6"></path></g><g transform="translate(939 56)"><path d="M4.9 -1.5C5.6 0.6 4.9 3.2 3.1 4.5C1.4 5.8 -1.4 5.8 -3.3 4.5C-5.2 3.1 -6.1 0.4 -5.4 -1.7C-4.7 -3.8 -2.4 -5.3 -0.1 -5.3C2.1 -5.2 4.2 -3.6 4.9 -1.5Z" stroke="#f6b374" fill="none" stroke-width="6"></path></g><g transform="translate(198 48)"><path d="M4.8 -1.6C5.4 0.4 4.6 2.8 2.8 4.2C1 5.6 -1.9 6 -3.7 4.8C-5.5 3.5 -6.4 0.6 -5.6 -1.7C-4.9 -3.9 -2.4 -5.4 -0.2 -5.3C2.1 -5.3 4.2 -3.6 4.8 -1.6Z" stroke="#f6b374" fill="none" stroke-width="6"></path></g><g transform="translate(395 10)"><path d="M5 -1.6C5.7 0.7 5.1 3.5 3.3 4.8C1.5 6.2 -1.5 6.2 -3.4 4.8C-5.4 3.4 -6.2 0.5 -5.5 -1.8C-4.7 -4.1 -2.4 -5.9 -0.1 -5.9C2.1 -5.8 4.2 -3.9 5 -1.6Z" stroke="#f6b374" fill="none" stroke-width="6"></path></g><g transform="translate(841 79)"><path d="M5.4 -1.5C6.2 0.5 5.3 3.3 3.5 4.5C1.7 5.8 -1 5.4 -2.7 4.1C-4.4 2.8 -5.1 0.5 -4.4 -1.4C-3.8 -3.3 -1.9 -4.7 0.2 -4.8C2.3 -4.9 4.7 -3.6 5.4 -1.5Z" stroke="#f6b374" fill="none" stroke-width="6"></path></g><g transform="translate(456 84)"><path d="M5.8 -1.7C6.5 0.5 5.5 3.4 3.6 4.7C1.6 6.1 -1.3 6 -3.2 4.6C-5.1 3.2 -5.9 0.5 -5.2 -1.6C-4.5 -3.7 -2.2 -5.2 0.1 -5.2C2.5 -5.3 5 -3.9 5.8 -1.7Z" stroke="#f6b374" fill="none" stroke-width="6"></path></g><g transform="translate(943 80)"><path d="M4.5 -1.4C5.2 0.7 4.7 3.2 3.2 4.4C1.6 5.5 -1 5.2 -2.8 3.9C-4.5 2.6 -5.4 0.3 -4.8 -1.6C-4.2 -3.5 -2.1 -5 -0.1 -5C1.9 -5 3.8 -3.4 4.5 -1.4Z" stroke="#f6b374" fill="none" stroke-width="6"></path></g><g transform="translate(148 76)"><path d="M5.4 -1.5C6.1 0.5 5.3 3.3 3.4 4.8C1.4 6.2 -1.6 6.3 -3.3 4.9C-5.1 3.6 -5.6 0.8 -4.8 -1.3C-4 -3.4 -2 -4.9 0.2 -4.9C2.3 -5 4.6 -3.6 5.4 -1.5Z" stroke="#f6b374" fill="none" stroke-width="6"></path></g><g transform="translate(127 47)"><path d="M4.7 -1.4C5.4 0.7 4.8 3.3 3.2 4.5C1.6 5.6 -1 5.3 -2.7 4C-4.5 2.7 -5.2 0.4 -4.6 -1.6C-4 -3.5 -2 -5.1 0 -5.1C2 -5.1 4 -3.5 4.7 -1.4Z" stroke="#f6b374" fill="none" stroke-width="6"></path></g><g transform="translate(46 7)"><path d="M4.8 -1.5C5.5 0.9 5.1 3.6 3.5 4.8C1.9 5.9 -0.8 5.4 -2.8 3.9C-4.8 2.5 -6.1 0 -5.5 -2.1C-4.9 -4.1 -2.5 -5.9 -0.2 -5.8C2 -5.7 4 -3.8 4.8 -1.5Z" stroke="#f6b374" fill="none" stroke-width="6"></path></g><g transform="translate(6 58)"><path d="M5 -1.8C5.7 0.5 5 3.1 3.2 4.5C1.4 5.8 -1.4 5.8 -3.3 4.5C-5.1 3.1 -6 0.5 -5.3 -1.8C-4.6 -4.1 -2.3 -6 -0.1 -6C2.2 -6 4.3 -4.1 5 -1.8Z" stroke="#f6b374" fill="none" stroke-width="6"></path></g><g transform="translate(656 39)"><path d="M5.2 -1.7C5.9 0.4 5 3 3.2 4.3C1.3 5.7 -1.4 5.7 -3.3 4.4C-5.1 3.1 -6 0.4 -5.3 -1.7C-4.6 -3.8 -2.3 -5.4 0 -5.4C2.3 -5.4 4.5 -3.8 5.2 -1.7Z" stroke="#f6b374" fill="none" stroke-width="6"></path></g><g transform="translate(100 14)"><path d="M5.7 -1.9C6.5 0.4 5.4 3.2 3.5 4.6C1.6 5.9 -1.2 5.7 -3.2 4.3C-5.2 2.9 -6.3 0.2 -5.6 -2C-5 -4.2 -2.5 -5.9 0 -5.9C2.5 -5.9 5 -4.2 5.7 -1.9Z" stroke="#f6b374" fill="none" stroke-width="6"></path></g><g transform="translate(756 72)"><path d="M5 -1.6C5.8 0.7 5.2 3.5 3.4 4.8C1.7 6.1 -1.2 5.9 -3.2 4.4C-5.1 3 -6.1 0.4 -5.4 -1.9C-4.7 -4.1 -2.4 -5.9 -0.1 -5.9C2.1 -5.9 4.3 -4 5 -1.6Z" stroke="#f6b374" fill="none" stroke-width="6"></path></g><g transform="translate(101 57)"><path d="M5.7 -2C6.4 0.3 5.3 3 3.4 4.4C1.4 5.8 -1.4 5.8 -3.2 4.5C-5 3.2 -5.7 0.5 -5 -1.7C-4.3 -4 -2.2 -5.8 0.2 -5.9C2.5 -5.9 5 -4.2 5.7 -2Z" stroke="#f6b374" fill="none" stroke-width="6"></path></g><g transform="translate(915 16)"><path d="M5 -1.7C5.6 0.3 4.7 2.8 2.9 4.1C1.1 5.5 -1.6 5.7 -3.3 4.5C-4.9 3.3 -5.5 0.7 -4.7 -1.4C-4 -3.6 -2 -5.2 0.1 -5.3C2.2 -5.3 4.3 -3.7 5 -1.7Z" stroke="#f6b374" fill="none" stroke-width="6"></path></g><g transform="translate(971 13)"><path d="M5.7 -1.9C6.3 0 5 2.6 3 4C1 5.4 -1.8 5.8 -3.4 4.6C-5 3.5 -5.6 0.7 -4.8 -1.4C-4.1 -3.5 -2 -5 0.2 -5.1C2.5 -5.1 5.1 -3.8 5.7 -1.9Z" stroke="#f6b374" fill="none" stroke-width="6"></path></g><g transform="translate(261 75)"><path d="M5.4 -1.8C6.1 0.3 5.1 2.9 3.2 4.2C1.4 5.5 -1.2 5.4 -3 4.1C-4.8 2.8 -5.6 0.4 -5 -1.7C-4.4 -3.7 -2.2 -5.4 0.1 -5.4C2.4 -5.4 4.8 -3.9 5.4 -1.8Z" stroke="#f6b374" fill="none" stroke-width="6"></path></g><g transform="translate(12 78)"><path d="M4.8 -1.6C5.6 0.8 5.1 3.5 3.4 4.8C1.7 6 -1.2 5.8 -2.9 4.4C-4.7 3 -5.3 0.5 -4.6 -1.7C-4 -3.9 -2 -5.8 0 -5.8C2 -5.8 4.1 -3.9 4.8 -1.6Z" stroke="#f6b374" fill="none" stroke-width="6"></path></g><g transform="translate(449 20)"><path d="M4.8 -1.5C5.4 0.4 4.6 2.8 2.8 4.2C1 5.5 -1.7 5.8 -3.4 4.6C-5.1 3.4 -5.7 0.7 -5 -1.4C-4.3 -3.4 -2.1 -4.7 0 -4.7C2.1 -4.7 4.2 -3.4 4.8 -1.5Z" stroke="#f6b374" fill="none" stroke-width="6"></path></g><g transform="translate(386 35)"><path d="M4.7 -1.5C5.4 0.8 5 3.6 3.4 4.8C1.8 6 -1 5.6 -3 4.2C-4.9 2.7 -6 0.2 -5.4 -2C-4.8 -4.1 -2.4 -6 -0.2 -5.9C2 -5.8 3.9 -3.9 4.7 -1.5Z" stroke="#f6b374" fill="none" stroke-width="6"></path></g><g transform="translate(272 97)"><path d="M5.5 -1.9C6.2 0.2 5 2.8 3.2 4C1.4 5.3 -1.1 5.1 -2.8 3.9C-4.5 2.7 -5.3 0.3 -4.7 -1.7C-4.1 -3.7 -2 -5.5 0.2 -5.6C2.4 -5.6 4.9 -4 5.5 -1.9Z" stroke="#f6b374" fill="none" stroke-width="6"></path></g><g transform="translate(590 15)"><path d="M5.8 -1.7C6.5 0.4 5.5 3.3 3.6 4.6C1.7 5.9 -1 5.6 -3 4.2C-4.9 2.7 -5.9 0.2 -5.3 -1.7C-4.7 -3.7 -2.3 -5 0.1 -5.1C2.5 -5.1 5 -3.8 5.8 -1.7Z" stroke="#f6b374" fill="none" stroke-width="6"></path></g><g transform="translate(825 96)"><path d="M5.7 -1.7C6.4 0.5 5.5 3.4 3.6 4.8C1.6 6.1 -1.3 6 -3.3 4.5C-5.3 3.1 -6.4 0.3 -5.7 -1.8C-5 -3.9 -2.5 -5.3 0 -5.3C2.5 -5.3 4.9 -3.8 5.7 -1.7Z" stroke="#f6b374" fill="none" stroke-width="6"></path></g><g transform="translate(291 4)"><path d="M5.1 -1.6C5.8 0.6 5.1 3.3 3.4 4.6C1.6 5.8 -1.2 5.6 -2.9 4.3C-4.7 2.9 -5.5 0.4 -4.9 -1.7C-4.2 -3.8 -2.1 -5.6 0 -5.6C2.2 -5.6 4.4 -3.9 5.1 -1.6Z" stroke="#f6b374" fill="none" stroke-width="6"></path></g><g transform="translate(82 24)"><path d="M4.6 -1.5C5.3 0.7 4.9 3.4 3.1 4.7C1.4 6 -1.5 6.1 -3.5 4.7C-5.4 3.3 -6.4 0.4 -5.7 -1.8C-4.9 -4 -2.5 -5.7 -0.3 -5.6C1.9 -5.5 3.9 -3.7 4.6 -1.5Z" stroke="#f6b374" fill="none" stroke-width="6"></path></g><g transform="translate(804 93)"><path d="M5.5 -1.7C6.3 0.6 5.5 3.5 3.6 4.8C1.8 6.1 -1.1 5.8 -2.9 4.4C-4.7 3 -5.3 0.5 -4.7 -1.6C-4 -3.8 -2 -5.7 0.2 -5.8C2.4 -5.9 4.7 -4.1 5.5 -1.7Z" stroke="#f6b374" fill="none" stroke-width="6"></path></g><g transform="translate(342 87)"><path d="M4.8 -1.6C5.4 0.4 4.6 2.9 2.9 4.2C1.2 5.4 -1.5 5.6 -3.1 4.3C-4.7 3.1 -5.4 0.6 -4.7 -1.5C-4 -3.5 -2 -5.1 0 -5.1C2.1 -5.1 4.1 -3.6 4.8 -1.6Z" stroke="#f6b374" fill="none" stroke-width="6"></path></g><g transform="translate(959 66)"><path d="M5.6 -1.6C6.4 0.5 5.5 3.5 3.7 4.7C1.9 5.9 -0.9 5.5 -2.7 4.1C-4.5 2.7 -5.3 0.4 -4.7 -1.5C-4.1 -3.4 -2 -4.9 0.2 -5C2.4 -5 4.8 -3.7 5.6 -1.6Z" stroke="#f6b374" fill="none" stroke-width="6"></path></g><g transform="translate(548 99)"><path d="M5 -1.7C5.6 0.3 4.7 2.8 3 4C1.3 5.2 -1.2 5.2 -3.1 3.9C-5 2.6 -6.2 0.1 -5.6 -2C-5 -4 -2.5 -5.6 -0.2 -5.6C2.2 -5.5 4.3 -3.8 5 -1.7Z" stroke="#f6b374" fill="none" stroke-width="6"></path></g><g transform="translate(852 6)"><path d="M5 -1.7C5.6 0.3 4.6 2.7 2.9 3.9C1.2 5.1 -1.3 5.2 -3 4C-4.6 2.8 -5.4 0.4 -4.8 -1.6C-4.1 -3.6 -2.1 -5.3 0.1 -5.3C2.2 -5.3 4.4 -3.7 5 -1.7Z" stroke="#f6b374" fill="none" stroke-width="6"></path></g><g transform="translate(415 73)"><path d="M4.5 -1.3C5.3 0.7 4.8 3.3 3.1 4.7C1.3 6.1 -1.7 6.3 -3.5 4.9C-5.3 3.6 -5.9 0.7 -5.1 -1.4C-4.3 -3.4 -2.2 -4.8 -0.1 -4.7C1.9 -4.7 3.8 -3.3 4.5 -1.3Z" stroke="#f6b374" fill="none" stroke-width="6"></path></g><g transform="translate(619 1)"><path d="M5.3 -2C5.9 0.2 4.8 2.6 2.9 4C1 5.4 -1.6 5.6 -3.4 4.4C-5.1 3.2 -5.9 0.5 -5.2 -1.7C-4.5 -4 -2.2 -5.8 0.1 -5.8C2.4 -5.9 4.7 -4.1 5.3 -2Z" stroke="#f6b374" fill="none" stroke-width="6"></path></g><g transform="translate(750 32)"><path d="M4.7 -1.5C5.4 0.5 4.6 2.9 2.9 4.2C1.2 5.5 -1.5 5.6 -3.1 4.4C-4.7 3.2 -5.2 0.7 -4.5 -1.4C-3.8 -3.4 -1.9 -5 0.1 -5C2 -5 4.1 -3.5 4.7 -1.5Z" stroke="#f6b374" fill="none" stroke-width="6"></path></g><g transform="translate(151 23)"><path d="M4.6 -1.7C5.2 0.5 4.5 2.9 2.9 4.1C1.3 5.3 -1.3 5.3 -3 4C-4.8 2.8 -5.8 0.3 -5.1 -1.9C-4.5 -4.1 -2.2 -6.1 -0.1 -6C2 -6 4 -4 4.6 -1.7Z" stroke="#f6b374" fill="none" stroke-width="6"></path></g><g transform="translate(127 93)"><path d="M5.2 -1.7C6 0.7 5.3 3.5 3.5 4.9C1.6 6.3 -1.4 6.2 -3.4 4.7C-5.5 3.2 -6.5 0.4 -5.8 -1.9C-5 -4.3 -2.5 -6.1 -0.2 -6.1C2.2 -6 4.4 -4.1 5.2 -1.7Z" stroke="#f6b374" fill="none" stroke-width="6"></path></g><g transform="translate(79 56)"><path d="M5.7 -2.1C6.3 0.1 5 2.6 3.2 3.8C1.3 5.1 -1.1 5 -2.7 3.8C-4.3 2.7 -5 0.4 -4.4 -1.7C-3.8 -3.8 -1.9 -5.8 0.3 -5.9C2.5 -5.9 5.1 -4.2 5.7 -2.1Z" stroke="#f6b374" fill="none" stroke-width="6"></path></g><g transform="translate(370 6)"><path d="M4.8 -1.7C5.4 0.3 4.6 2.7 2.8 4C1.1 5.3 -1.6 5.6 -3.3 4.3C-5 3.1 -5.8 0.5 -5.1 -1.7C-4.4 -3.9 -2.2 -5.6 -0.1 -5.6C2.1 -5.6 4.2 -3.8 4.8 -1.7Z" stroke="#f6b374" fill="none" stroke-width="6"></path></g><g transform="translate(608 21)"><path d="M5.6 -1.9C6.3 0.2 5.2 2.9 3.2 4.2C1.3 5.5 -1.4 5.6 -3.2 4.3C-5.1 3 -6 0.4 -5.4 -1.8C-4.7 -3.9 -2.3 -5.5 0.1 -5.5C2.5 -5.6 5 -4 5.6 -1.9Z" stroke="#f6b374" fill="none" stroke-width="6"></path></g><g transform="translate(632 29)"><path d="M5.4 -1.7C6.1 0.4 5.2 3.2 3.4 4.4C1.6 5.7 -1.2 5.5 -2.9 4.2C-4.6 2.9 -5.3 0.5 -4.6 -1.6C-4 -3.7 -2 -5.4 0.2 -5.5C2.4 -5.6 4.7 -3.9 5.4 -1.7Z" stroke="#f6b374" fill="none" stroke-width="6"></path></g><g transform="translate(698 1)"><path d="M4.9 -1.7C5.5 0.3 4.5 2.6 2.8 3.9C1 5.2 -1.6 5.5 -3.3 4.3C-5 3.1 -5.8 0.5 -5.1 -1.6C-4.4 -3.6 -2.2 -5.1 0 -5.1C2.1 -5.1 4.3 -3.6 4.9 -1.7Z" stroke="#f6b374" fill="none" stroke-width="6"></path></g><g transform="translate(995 5)"><path d="M5.5 -1.9C6.1 0.3 5.1 2.9 3.2 4.1C1.4 5.4 -1.2 5.3 -2.9 4.1C-4.6 2.8 -5.4 0.4 -4.7 -1.7C-4.1 -3.7 -2 -5.5 0.2 -5.5C2.4 -5.6 4.8 -4 5.5 -1.9Z" stroke="#f6b374" fill="none" stroke-width="6"></path></g><g transform="translate(838 26)"><path d="M4.9 -1.3C5.7 0.8 5.2 3.6 3.5 4.8C1.8 6.1 -1.1 5.7 -3 4.3C-5 2.8 -6.1 0.2 -5.5 -1.7C-4.8 -3.6 -2.4 -4.8 -0.2 -4.8C2.1 -4.7 4.1 -3.4 4.9 -1.3Z" stroke="#f6b374" fill="none" stroke-width="6"></path></g><g transform="translate(496 92)"><path d="M4.9 -1.6C5.5 0.4 4.7 2.8 2.9 4.1C1.1 5.4 -1.6 5.6 -3.3 4.4C-5.1 3.1 -6 0.5 -5.2 -1.6C-4.5 -3.6 -2.3 -5 -0.1 -5C2.1 -5 4.3 -3.5 4.9 -1.6Z" stroke="#f6b374" fill="none" stroke-width="6"></path></g><g transform="translate(770 4)"><path d="M5.3 -1.8C5.9 0.1 4.8 2.5 3 3.8C1.2 5 -1.3 5 -2.8 3.9C-4.4 2.8 -5.1 0.4 -4.5 -1.5C-3.9 -3.5 -1.9 -5.1 0.2 -5.1C2.4 -5.2 4.7 -3.8 5.3 -1.8Z" stroke="#f6b374" fill="none" stroke-width="6"></path></g><g transform="translate(292 48)"><path d="M4.8 -1.7C5.5 0.6 4.9 3.2 3.2 4.4C1.6 5.7 -1.1 5.4 -3 4.1C-5 2.7 -6.1 0.2 -5.5 -2C-4.8 -4.2 -2.4 -6 -0.2 -5.9C2.1 -5.9 4.1 -3.9 4.8 -1.7Z" stroke="#f6b374" fill="none" stroke-width="6"></path></g><g transform="translate(688 92)"><path d="M5.2 -1.5C6 0.6 5.3 3.4 3.4 4.9C1.5 6.3 -1.6 6.4 -3.5 5C-5.4 3.5 -6.2 0.6 -5.4 -1.5C-4.6 -3.6 -2.3 -5 0 -5C2.2 -4.9 4.5 -3.6 5.2 -1.5Z" stroke="#f6b374" fill="none" stroke-width="6"></path></g><g transform="translate(907 36)"><path d="M5 -1.7C5.7 0.4 4.8 2.9 2.9 4.3C1 5.7 -1.8 6.1 -3.6 4.8C-5.5 3.5 -6.3 0.6 -5.5 -1.6C-4.7 -3.9 -2.4 -5.4 -0.1 -5.4C2.2 -5.4 4.4 -3.8 5 -1.7Z" stroke="#f6b374" fill="none" stroke-width="6"></path></g><g transform="translate(821 44)"><path d="M5.7 -1.6C6.5 0.4 5.4 3.3 3.4 4.7C1.4 6.2 -1.6 6.3 -3.6 4.8C-5.6 3.4 -6.6 0.5 -5.8 -1.6C-5 -3.7 -2.5 -4.9 0 -4.9C2.5 -4.9 5 -3.7 5.7 -1.6Z" stroke="#f6b374" fill="none" stroke-width="6"></path></g><g transform="translate(790 72)"><path d="M4.5 -1.4C5.2 0.5 4.5 2.9 2.8 4.3C1.2 5.6 -1.6 5.8 -3.4 4.5C-5.1 3.2 -5.9 0.5 -5.2 -1.5C-4.5 -3.6 -2.2 -5 -0.2 -4.9C1.9 -4.9 3.9 -3.4 4.5 -1.4Z" stroke="#f6b374" fill="none" stroke-width="6"></path></g><g transform="translate(217 72)"><path d="M4.5 -1.7C5.1 0.4 4.4 2.8 2.8 4C1.2 5.1 -1.2 5.1 -2.9 4C-4.5 2.8 -5.2 0.4 -4.6 -1.7C-4 -3.9 -2 -5.9 0 -5.9C2 -5.9 3.9 -3.9 4.5 -1.7Z" stroke="#f6b374" fill="none" stroke-width="6"></path></g><g transform="translate(488 9)"><path d="M5.6 -1.9C6.2 0.2 5 2.8 3.1 4.1C1.2 5.5 -1.5 5.6 -3.2 4.4C-4.8 3.2 -5.5 0.6 -4.8 -1.5C-4.1 -3.6 -2.1 -5.3 0.2 -5.4C2.5 -5.4 4.9 -3.9 5.6 -1.9Z" stroke="#f6b374" fill="none" stroke-width="6"></path></g><g transform="translate(179 61)"><path d="M5.6 -2.1C6.2 0 4.9 2.4 2.9 3.9C0.9 5.3 -1.8 5.7 -3.4 4.6C-5 3.4 -5.5 0.7 -4.7 -1.6C-4 -3.9 -2 -5.8 0.3 -5.9C2.5 -6 5 -4.2 5.6 -2.1Z" stroke="#f6b374" fill="none" stroke-width="6"></path></g><g transform="translate(320 96)"><path d="M5 -1.7C5.7 0.6 5 3.2 3.3 4.4C1.6 5.6 -1.1 5.4 -3 4C-4.9 2.6 -6.2 0.1 -5.6 -2.1C-4.9 -4.2 -2.5 -6 -0.2 -5.9C2.1 -5.9 4.3 -4 5 -1.7Z" stroke="#f6b374" fill="none" stroke-width="6"></path></g><g transform="translate(600 72)"><path d="M4.7 -1.2C5.4 0.9 5 3.6 3.5 4.8C1.9 5.9 -0.9 5.5 -2.7 4C-4.6 2.6 -5.5 0.3 -4.9 -1.6C-4.3 -3.5 -2.1 -4.9 -0.1 -4.9C1.9 -4.8 3.9 -3.4 4.7 -1.2Z" stroke="#f6b374" fill="none" stroke-width="6"></path></g><g transform="translate(442 38)"><path d="M5.4 -1.9C6 0.3 5 2.9 3.1 4.3C1.2 5.6 -1.6 5.8 -3.3 4.6C-5.1 3.3 -5.8 0.6 -5.1 -1.7C-4.4 -4 -2.2 -5.8 0.1 -5.8C2.4 -5.9 4.7 -4.1 5.4 -1.9Z" stroke="#f6b374" fill="none" stroke-width="6"></path></g><g transform="translate(894 8)"><path d="M5.2 -1.6C6 0.6 5.2 3.3 3.3 4.7C1.5 6.1 -1.4 6 -3.3 4.7C-5.2 3.3 -6.1 0.5 -5.4 -1.6C-4.6 -3.8 -2.3 -5.3 0 -5.3C2.3 -5.3 4.5 -3.7 5.2 -1.6Z" stroke="#f6b374" fill="none" stroke-width="6"></path></g><g transform="translate(875 8)"><path d="M5.4 -1.6C6.1 0.4 5.2 3.2 3.3 4.6C1.4 6 -1.5 6.1 -3.2 4.7C-4.9 3.4 -5.4 0.8 -4.7 -1.3C-4 -3.3 -2 -4.7 0.2 -4.8C2.3 -4.8 4.7 -3.6 5.4 -1.6Z" stroke="#f6b374" fill="none" stroke-width="6"></path></g><g transform="translate(55 98)"><path d="M5.2 -1.6C5.9 0.6 5.1 3.3 3.4 4.5C1.6 5.8 -1.1 5.5 -3.1 4.1C-5.1 2.7 -6.3 0.1 -5.6 -1.9C-5 -4 -2.5 -5.5 -0.1 -5.4C2.2 -5.4 4.4 -3.8 5.2 -1.6Z" stroke="#f6b374" fill="none" stroke-width="6"></path></g><g transform="translate(802 30)"><path d="M5.3 -1.8C5.9 0.1 4.8 2.6 2.9 3.9C1.1 5.2 -1.5 5.4 -3.1 4.2C-4.7 3.1 -5.4 0.6 -4.7 -1.5C-4 -3.6 -2 -5.2 0.2 -5.2C2.3 -5.3 4.7 -3.8 5.3 -1.8Z" stroke="#f6b374" fill="none" stroke-width="6"></path></g><g transform="translate(697 41)"><path d="M5.1 -1.5C5.9 0.7 5.2 3.5 3.4 4.8C1.5 6.2 -1.5 6.2 -3.2 4.9C-4.9 3.5 -5.3 0.8 -4.6 -1.3C-3.8 -3.4 -1.9 -4.9 0.1 -5C2.2 -5 4.4 -3.6 5.1 -1.5Z" stroke="#f6b374" fill="none" stroke-width="6"></path></g><g transform="translate(924 79)"><path d="M5.6 -1.9C6.2 0.2 5 2.7 3.1 4.1C1.2 5.4 -1.5 5.6 -3.3 4.3C-5.2 3.1 -6.1 0.4 -5.5 -1.7C-4.8 -3.8 -2.4 -5.3 0 -5.3C2.5 -5.3 5 -3.9 5.6 -1.9Z" stroke="#f6b374" fill="none" stroke-width="6"></path></g><g transform="translate(294 95)"><path d="M5 -1.5C5.8 0.8 5.2 3.6 3.4 5C1.6 6.4 -1.5 6.3 -3.5 4.9C-5.5 3.4 -6.4 0.5 -5.6 -1.8C-4.8 -4.1 -2.4 -5.7 -0.2 -5.7C2.1 -5.6 4.2 -3.9 5 -1.5Z" stroke="#f6b374" fill="none" stroke-width="6"></path></g><g transform="translate(151 57)"><path d="M5 -1.5C5.8 0.7 5.2 3.5 3.5 4.7C1.7 6 -1.1 5.7 -3.1 4.2C-5 2.8 -6.2 0.2 -5.5 -1.8C-4.9 -3.8 -2.4 -5.3 -0.2 -5.2C2.1 -5.2 4.3 -3.6 5 -1.5Z" stroke="#f6b374" fill="none" stroke-width="6"></path></g><g transform="translate(985 33)"><path d="M4.5 -1.5C5.1 0.5 4.5 2.8 2.9 4C1.3 5.1 -1.2 5.1 -2.9 3.9C-4.6 2.7 -5.5 0.3 -4.9 -1.6C-4.3 -3.6 -2.1 -5 -0.1 -5C1.9 -5 3.9 -3.4 4.5 -1.5Z" stroke="#f6b374" fill="none" stroke-width="6"></path></g><g transform="translate(707 75)"><path d="M5.5 -1.7C6.2 0.3 5.1 2.9 3.2 4.2C1.3 5.5 -1.3 5.4 -3.2 4.1C-5.1 2.8 -6.3 0.2 -5.6 -1.8C-5 -3.8 -2.5 -5.2 0 -5.1C2.4 -5.1 4.8 -3.7 5.5 -1.7Z" stroke="#f6b374" fill="none" stroke-width="6"></path></g><g transform="translate(43 26)"><path d="M5.2 -1.8C5.8 0.2 4.7 2.6 3 3.8C1.2 5 -1.2 5 -3 3.8C-4.7 2.6 -5.8 0.2 -5.2 -1.8C-4.6 -3.7 -2.3 -5.2 0 -5.2C2.3 -5.2 4.6 -3.7 5.2 -1.8Z" stroke="#f6b374" fill="none" stroke-width="6"></path></g><g transform="translate(690 65)"><path d="M5.4 -1.5C6.2 0.6 5.4 3.5 3.5 4.9C1.6 6.3 -1.4 6.2 -3.4 4.7C-5.5 3.3 -6.5 0.4 -5.7 -1.6C-5 -3.7 -2.5 -4.9 -0.1 -4.9C2.3 -4.9 4.7 -3.6 5.4 -1.5Z" stroke="#f6b374" fill="none" stroke-width="6"></path></g><g transform="translate(948 17)"><path d="M4.6 -1.3C5.3 0.8 4.9 3.5 3.3 4.7C1.7 5.8 -1 5.5 -2.7 4.2C-4.4 2.8 -5.1 0.5 -4.4 -1.4C-3.8 -3.4 -1.9 -4.9 0 -4.9C1.9 -4.9 3.8 -3.4 4.6 -1.3Z" stroke="#f6b374" fill="none" stroke-width="6"></path></g><g transform="translate(668 99)"><path d="M4.9 -1.4C5.7 0.8 5.2 3.6 3.5 4.8C1.9 6 -1 5.6 -3 4.1C-5 2.6 -6.3 0.1 -5.7 -1.9C-5.1 -3.9 -2.5 -5.3 -0.2 -5.2C2 -5.1 4.1 -3.6 4.9 -1.4Z" stroke="#f6b374" fill="none" stroke-width="6"></path></g><g transform="translate(987 70)"><path d="M5 -1.5C5.8 0.8 5.2 3.6 3.6 4.8C1.9 6.1 -1 5.7 -2.8 4.3C-4.5 2.8 -5.3 0.4 -4.6 -1.6C-4 -3.6 -2 -5.3 0.1 -5.4C2.1 -5.4 4.2 -3.7 5 -1.5Z" stroke="#f6b374" fill="none" stroke-width="6"></path></g><g transform="translate(841 55)"><path d="M5 -1.5C5.7 0.6 5 3.3 3.3 4.6C1.5 5.9 -1.4 5.9 -3.2 4.5C-5 3.2 -5.7 0.5 -5 -1.6C-4.3 -3.7 -2.1 -5.3 0 -5.3C2.1 -5.3 4.3 -3.7 5 -1.5Z" stroke="#f6b374" fill="none" stroke-width="6"></path></g><g transform="translate(515 97)"><path d="M5.2 -1.7C6 0.6 5.2 3.4 3.5 4.6C1.7 5.9 -1.1 5.6 -2.8 4.2C-4.6 2.9 -5.3 0.5 -4.7 -1.7C-4 -3.8 -2 -5.6 0.1 -5.7C2.2 -5.7 4.5 -3.9 5.2 -1.7Z" stroke="#f6b374" fill="none" stroke-width="6"></path></g><g transform="translate(27 8)"><path d="M5.4 -1.9C6.1 0.3 5.1 2.9 3.1 4.4C1.2 5.8 -1.7 6 -3.4 4.7C-5.2 3.5 -5.8 0.7 -5 -1.6C-4.3 -3.9 -2.1 -5.8 0.1 -5.9C2.4 -5.9 4.7 -4.1 5.4 -1.9Z" stroke="#f6b374" fill="none" stroke-width="6"></path></g><g transform="translate(957 41)"><path d="M5 -1.6C5.6 0.2 4.6 2.6 2.9 3.8C1.2 5 -1.2 5 -3.1 3.7C-4.9 2.5 -6.2 0 -5.6 -1.8C-5 -3.7 -2.5 -5 -0.2 -4.9C2.2 -4.9 4.4 -3.5 5 -1.6Z" stroke="#f6b374" fill="none" stroke-width="6"></path></g><g transform="translate(998 48)"><path d="M5.4 -1.6C6.2 0.6 5.4 3.5 3.6 4.8C1.9 6 -0.9 5.6 -2.9 4.1C-4.9 2.7 -6 0.2 -5.4 -1.8C-4.8 -3.8 -2.4 -5.4 0 -5.3C2.3 -5.3 4.6 -3.8 5.4 -1.6Z" stroke="#f6b374" fill="none" stroke-width="6"></path></g><g transform="translate(627 55)"><path d="M5.7 -1.8C6.5 0.5 5.6 3.5 3.7 4.8C1.8 6.1 -1 5.7 -3.1 4.2C-5.1 2.7 -6.3 0.1 -5.7 -2C-5 -4.1 -2.5 -5.8 0 -5.8C2.5 -5.8 4.9 -4.1 5.7 -1.8Z" stroke="#f6b374" fill="none" stroke-width="6"></path></g><g transform="translate(931 3)"><path d="M4.9 -1.4C5.6 0.6 5 3.3 3.2 4.6C1.5 5.9 -1.3 5.8 -3.1 4.4C-4.9 3.1 -5.8 0.5 -5.1 -1.5C-4.4 -3.4 -2.2 -4.8 -0.1 -4.7C2.1 -4.7 4.1 -3.4 4.9 -1.4Z" stroke="#f6b374" fill="none" stroke-width="6"></path></g><g transform="translate(497 29)"><path d="M5.3 -1.7C6 0.6 5.3 3.4 3.5 4.6C1.8 5.8 -0.9 5.4 -2.7 4C-4.5 2.7 -5.4 0.3 -4.8 -1.8C-4.2 -3.9 -2.1 -5.7 0.1 -5.7C2.3 -5.8 4.5 -4 5.3 -1.7Z" stroke="#f6b374" fill="none" stroke-width="6"></path></g><g transform="translate(733 71)"><path d="M5.8 -1.8C6.5 0.4 5.5 3.3 3.6 4.6C1.6 6 -1.2 5.8 -2.9 4.4C-4.7 3.1 -5.2 0.6 -4.6 -1.5C-3.9 -3.6 -1.9 -5.4 0.3 -5.5C2.5 -5.6 5 -4 5.8 -1.8Z" stroke="#f6b374" fill="none" stroke-width="6"></path></g><g transform="translate(402 45)"><path d="M5.4 -1.8C6.1 0.4 5.1 3 3.2 4.5C1.2 5.9 -1.7 6.2 -3.6 4.9C-5.4 3.5 -6.2 0.6 -5.4 -1.7C-4.6 -4 -2.3 -5.7 0 -5.8C2.3 -5.8 4.7 -4 5.4 -1.8Z" stroke="#f6b374" fill="none" stroke-width="6"></path></g><g transform="translate(498 67)"><path d="M4.7 -1.5C5.4 0.6 4.7 3.1 3.1 4.2C1.5 5.4 -1.1 5.2 -2.7 3.9C-4.4 2.7 -5.2 0.4 -4.6 -1.6C-4 -3.6 -2 -5.2 0 -5.2C2 -5.2 4 -3.6 4.7 -1.5Z" stroke="#f6b374" fill="none" stroke-width="6"></path></g><g transform="translate(308 27)"><path d="M5 -1.6C5.7 0.7 5.1 3.5 3.4 4.7C1.7 6 -1.1 5.8 -2.9 4.4C-4.7 3 -5.4 0.5 -4.7 -1.7C-4.1 -3.9 -2 -5.8 0 -5.8C2.1 -5.8 4.2 -3.9 5 -1.6Z" stroke="#f6b374" fill="none" stroke-width="6"></path></g><g transform="translate(43 82)"><path d="M5 -1.8C5.6 0.4 4.8 2.9 3 4.3C1.1 5.7 -1.7 5.9 -3.5 4.6C-5.4 3.3 -6.4 0.5 -5.6 -1.9C-4.9 -4.2 -2.5 -6.1 -0.1 -6.1C2.2 -6 4.3 -4.1 5 -1.8Z" stroke="#f6b374" fill="none" stroke-width="6"></path></g><g transform="translate(105 80)"><path d="M5.5 -1.9C6.1 0.2 5 2.8 3.1 4.1C1.1 5.5 -1.6 5.7 -3.2 4.5C-4.8 3.3 -5.4 0.7 -4.7 -1.5C-4 -3.6 -2 -5.4 0.2 -5.4C2.4 -5.5 4.8 -3.9 5.5 -1.9Z" stroke="#f6b374" fill="none" stroke-width="6"></path></g><g transform="translate(267 5)"><path d="M5.1 -1.6C5.8 0.6 5.2 3.4 3.4 4.7C1.5 6.1 -1.4 6 -3.4 4.6C-5.3 3.2 -6.4 0.4 -5.7 -1.8C-4.9 -4 -2.5 -5.6 -0.2 -5.6C2.2 -5.5 4.3 -3.8 5.1 -1.6Z" stroke="#f6b374" fill="none" stroke-width="6"></path></g><g transform="translate(413 4)"><path d="M5.3 -1.8C6 0.4 5 3 3.1 4.4C1.2 5.8 -1.7 6 -3.4 4.7C-5.2 3.4 -5.9 0.6 -5.2 -1.6C-4.4 -3.9 -2.2 -5.7 0 -5.7C2.3 -5.7 4.6 -4 5.3 -1.8Z" stroke="#f6b374" fill="none" stroke-width="6"></path></g><g transform="translate(148 98)"><path d="M4.7 -1.6C5.4 0.6 4.8 3.1 3.2 4.3C1.5 5.5 -1.1 5.3 -2.9 4C-4.8 2.6 -5.8 0.2 -5.2 -1.8C-4.6 -3.9 -2.3 -5.5 -0.1 -5.5C2 -5.4 4 -3.7 4.7 -1.6Z" stroke="#f6b374" fill="none" stroke-width="6"></path></g><g transform="translate(62 26)"><path d="M5.6 -1.7C6.4 0.5 5.4 3.3 3.5 4.7C1.5 6.1 -1.4 6.1 -3.4 4.7C-5.3 3.3 -6.1 0.5 -5.4 -1.6C-4.7 -3.8 -2.3 -5.3 0.1 -5.3C2.4 -5.3 4.9 -3.8 5.6 -1.7Z" stroke="#f6b374" fill="none" stroke-width="6"></path></g><g transform="translate(505 1)"><path d="M5.5 -1.7C6.1 0.3 5 2.9 3.2 4.2C1.3 5.4 -1.3 5.4 -3 4.2C-4.6 3 -5.3 0.5 -4.6 -1.5C-4 -3.5 -2 -5 0.2 -5C2.4 -5.1 4.8 -3.7 5.5 -1.7Z" stroke="#f6b374" fill="none" stroke-width="6"></path></g><g transform="translate(948 98)"><path d="M5.7 -1.9C6.5 0.3 5.4 3.1 3.5 4.4C1.6 5.6 -1 5.4 -3 4C-5 2.6 -6.2 0.1 -5.6 -2C-5 -4.1 -2.5 -5.7 0 -5.7C2.5 -5.8 5 -4.1 5.7 -1.9Z" stroke="#f6b374" fill="none" stroke-width="6"></path></g><g transform="translate(68 82)"><path d="M4.8 -1.5C5.5 0.5 4.8 3.1 3 4.5C1.2 5.9 -1.7 6.1 -3.6 4.8C-5.4 3.5 -6.2 0.6 -5.4 -1.6C-4.7 -3.7 -2.3 -5.2 -0.1 -5.1C2.1 -5.1 4.2 -3.6 4.8 -1.5Z" stroke="#f6b374" fill="none" stroke-width="6"></path></g><g transform="translate(125 26)"><path d="M5.6 -2C6.3 0.3 5.2 3 3.4 4.3C1.5 5.5 -1.1 5.3 -3.1 4C-5 2.6 -6.3 0.1 -5.7 -2.1C-5.1 -4.3 -2.5 -6.1 0 -6.1C2.4 -6.1 4.9 -4.2 5.6 -2Z" stroke="#f6b374" fill="none" stroke-width="6"></path></g><g transform="translate(381 98)"><path d="M5.4 -1.8C6.1 0.4 5.2 3.1 3.3 4.5C1.4 5.9 -1.5 6 -3.4 4.6C-5.4 3.2 -6.4 0.4 -5.6 -1.8C-4.9 -4.1 -2.5 -5.7 -0.1 -5.7C2.4 -5.7 4.7 -4 5.4 -1.8Z" stroke="#f6b374" fill="none" stroke-width="6"></path></g><g transform="translate(861 23)"><path d="M4.8 -1.3C5.5 0.8 5 3.5 3.4 4.7C1.7 5.9 -1.1 5.7 -3.1 4.2C-5.1 2.8 -6.2 0.2 -5.6 -1.7C-4.9 -3.6 -2.5 -4.8 -0.2 -4.7C2 -4.7 4 -3.3 4.8 -1.3Z" stroke="#f6b374" fill="none" stroke-width="6"></path></g><g transform="translate(526 2)"><path d="M5.5 -1.9C6.1 0.2 5 2.7 3.1 4C1.3 5.3 -1.3 5.3 -3 4.1C-4.6 2.9 -5.3 0.5 -4.6 -1.6C-4 -3.7 -2 -5.5 0.2 -5.5C2.4 -5.6 4.8 -4 5.5 -1.9Z" stroke="#f6b374" fill="none" stroke-width="6"></path></g><g transform="translate(762 48)"><path d="M5.4 -1.7C6.2 0.6 5.4 3.5 3.6 4.9C1.8 6.2 -1.2 5.9 -3.1 4.5C-5 3 -5.9 0.4 -5.2 -1.8C-4.6 -4 -2.3 -5.8 0 -5.8C2.3 -5.8 4.6 -4 5.4 -1.7Z" stroke="#f6b374" fill="none" stroke-width="6"></path></g><g transform="translate(668 71)"><path d="M5.2 -1.6C5.8 0.4 5 3 3.1 4.4C1.3 5.7 -1.5 5.8 -3.2 4.5C-5 3.2 -5.7 0.6 -5 -1.4C-4.2 -3.5 -2.1 -4.8 0.1 -4.9C2.2 -4.9 4.5 -3.5 5.2 -1.6Z" stroke="#f6b374" fill="none" stroke-width="6"></path></g><g transform="translate(1 97)"><path d="M4.5 -1.4C5.3 0.8 4.8 3.4 3.1 4.7C1.4 6.1 -1.6 6.1 -3.4 4.8C-5.2 3.4 -5.9 0.7 -5.1 -1.5C-4.4 -3.7 -2.2 -5.3 -0.1 -5.3C1.9 -5.3 3.8 -3.6 4.5 -1.4Z" stroke="#f6b374" fill="none" stroke-width="6"></path></g><g transform="translate(533 41)"><path d="M5.1 -1.6C5.8 0.6 5.1 3.4 3.4 4.6C1.6 5.9 -1.2 5.7 -3.1 4.3C-5 2.9 -6.1 0.3 -5.4 -1.8C-4.7 -4 -2.4 -5.7 -0.1 -5.6C2.2 -5.6 4.3 -3.9 5.1 -1.6Z" stroke="#f6b374" fill="none" stroke-width="6"></path></g><g transform="translate(552 26)"><path d="M5.3 -1.8C5.9 0.2 4.8 2.6 2.9 3.9C1.1 5.2 -1.5 5.4 -3.3 4.1C-5.1 2.9 -6.2 0.3 -5.5 -1.7C-4.9 -3.7 -2.4 -5.1 -0.1 -5.1C2.3 -5.1 4.7 -3.7 5.3 -1.8Z" stroke="#f6b374" fill="none" stroke-width="6"></path></g><g transform="translate(763 98)"><path d="M5.4 -1.8C6.1 0.4 5.1 3 3.2 4.5C1.2 5.9 -1.7 6.1 -3.6 4.7C-5.5 3.4 -6.4 0.5 -5.6 -1.8C-4.9 -4.1 -2.4 -5.8 0 -5.8C2.4 -5.8 4.7 -4 5.4 -1.8Z" stroke="#f6b374" fill="none" stroke-width="6"></path></g><g transform="translate(568 98)"><path d="M4.6 -1.5C5.3 0.8 4.9 3.5 3.2 4.8C1.6 6.1 -1.4 6 -3.3 4.6C-5.2 3.2 -6.1 0.4 -5.4 -1.8C-4.7 -4 -2.4 -5.7 -0.2 -5.6C1.9 -5.6 3.8 -3.7 4.6 -1.5Z" stroke="#f6b374" fill="none" stroke-width="6"></path></g><g transform="translate(104 99)"><path d="M5.6 -1.8C6.4 0.5 5.5 3.4 3.5 4.9C1.5 6.4 -1.6 6.4 -3.3 5C-5.1 3.6 -5.6 0.8 -4.8 -1.6C-4 -4 -2 -6 0.2 -6C2.4 -6.1 4.9 -4.2 5.6 -1.8Z" stroke="#f6b374" fill="none" stroke-width="6"></path></g><g transform="translate(183 99)"><path d="M5.5 -1.9C6.1 0.3 5.1 2.9 3.2 4.3C1.4 5.6 -1.3 5.6 -3.2 4.2C-5.1 2.9 -6.2 0.3 -5.6 -2C-4.9 -4.2 -2.4 -6 0 -6C2.4 -6 4.8 -4.2 5.5 -1.9Z" stroke="#f6b374" fill="none" stroke-width="6"></path></g><g transform="translate(164 2)"><path d="M5.6 -1.7C6.3 0.5 5.4 3.4 3.6 4.7C1.7 6 -1.1 5.7 -2.9 4.3C-4.7 2.9 -5.5 0.5 -4.8 -1.6C-4.1 -3.8 -2.1 -5.5 0.2 -5.5C2.4 -5.6 4.8 -4 5.6 -1.7Z" stroke="#f6b374" fill="none" stroke-width="6"></path></g><g transform="translate(368 46)"><path d="M4.5 -1.5C5.2 0.5 4.5 2.9 2.9 4C1.4 5.1 -1.1 5 -2.8 3.8C-4.6 2.5 -5.6 0.2 -5 -1.7C-4.4 -3.6 -2.2 -5 -0.1 -5C2 -4.9 3.9 -3.4 4.5 -1.5Z" stroke="#f6b374" fill="none" stroke-width="6"></path></g><g transform="translate(384 78)"><path d="M5.2 -1.7C5.9 0.6 5.2 3.4 3.4 4.6C1.7 5.8 -1 5.5 -2.9 4.1C-4.8 2.7 -5.9 0.2 -5.3 -2C-4.7 -4.1 -2.3 -6 -0.1 -6C2.2 -6 4.4 -4.1 5.2 -1.7Z" stroke="#f6b374" fill="none" stroke-width="6"></path></g><g transform="translate(430 21)"><path d="M5.1 -1.9C5.7 0.2 4.6 2.5 2.8 3.8C1.1 5 -1.4 5.2 -3 4C-4.7 2.8 -5.5 0.4 -4.9 -1.8C-4.3 -3.9 -2.1 -5.8 0.1 -5.8C2.2 -5.8 4.5 -4 5.1 -1.9Z" stroke="#f6b374" fill="none" stroke-width="6"></path></g></g></svg>