<svg id="visual" viewBox="0 0 1000 100" width="1000" height="100" xmlns="http://www.w3.org/2000/svg" xmlns:xlink="http://www.w3.org/1999/xlink" version="1.1"><rect width="1000" height="100" fill="#faf9f6"></rect><g><g transform="translate(514 23)"><path d="M6.4 -2.3C7.2 0.1 5.7 3 3.5 4.6C1.2 6.2 -1.8 6.4 -3.9 5C-5.9 3.6 -7 0.5 -6.2 -2.1C-5.4 -4.7 -2.7 -6.7 0.1 -6.7C2.9 -6.7 5.7 -4.7 6.4 -2.3Z" stroke="#bee6ce" fill="none" stroke-width="6"></path></g><g transform="translate(656 60)"><path d="M4.9 -1.6C5.6 0.6 5 3.2 3.3 4.4C1.7 5.6 -1 5.3 -2.9 3.9C-4.9 2.5 -6.2 0 -5.6 -2C-5 -4 -2.5 -5.5 -0.2 -5.5C2.1 -5.4 4.2 -3.7 4.9 -1.6Z" stroke="#bee6ce" fill="none" stroke-width="6"></path></g><g transform="translate(467 52)"><path d="M4.9 -1.6C5.6 0.7 5 3.3 3.3 4.5C1.7 5.7 -1 5.5 -2.7 4.1C-4.4 2.8 -5.1 0.5 -4.5 -1.7C-3.8 -3.8 -1.9 -5.7 0.1 -5.8C2.1 -5.8 4.1 -3.9 4.9 -1.6Z" stroke="#bee6ce" fill="none" stroke-width="6"></path></g><g transform="translate(700 95)"><path d="M5.3 -1.7C6 0.5 5.2 3.2 3.4 4.4C1.7 5.6 -1 5.3 -2.7 4C-4.5 2.6 -5.5 0.3 -4.9 -1.7C-4.3 -3.7 -2.1 -5.4 0.1 -5.4C2.3 -5.4 4.6 -3.8 5.3 -1.7Z" stroke="#bee6ce" fill="none" stroke-width="6"></path></g><g transform="translate(533 54)"><path d="M5.3 -1.7C6 0.4 5.1 3.1 3.3 4.3C1.5 5.6 -1.2 5.4 -3 4.1C-4.8 2.8 -5.8 0.3 -5.2 -1.8C-4.6 -3.9 -2.3 -5.6 0 -5.6C2.3 -5.6 4.6 -3.9 5.3 -1.7Z" stroke="#bee6ce" fill="none" stroke-width="6"></path></g><g transform="translate(506 95)"><path d="M5.5 -2C6.2 0.2 5.1 2.9 3.2 4.2C1.3 5.5 -1.3 5.5 -2.9 4.2C-4.6 3 -5.2 0.6 -4.5 -1.6C-3.9 -3.8 -1.9 -5.8 0.3 -5.9C2.4 -6 4.9 -4.2 5.5 -2Z" stroke="#bee6ce" fill="none" stroke-width="6"></path></g><g transform="translate(834 35)"><path d="M4.5 -1.5C5.3 0.8 4.8 3.4 3.1 4.7C1.3 6.1 -1.6 6.2 -3.4 4.9C-5.1 3.6 -5.6 0.8 -4.8 -1.5C-4 -3.8 -2 -5.6 -0.1 -5.6C1.9 -5.6 3.8 -3.7 4.5 -1.5Z" stroke="#bee6ce" fill="none" stroke-width="6"></path></g><g transform="translate(583 67)"><path d="M4.8 -1.7C5.4 0.5 4.8 3.1 3 4.4C1.2 5.8 -1.7 6 -3.6 4.7C-5.5 3.3 -6.5 0.5 -5.7 -1.8C-4.9 -4.1 -2.5 -5.8 -0.2 -5.8C2 -5.7 4.1 -3.8 4.8 -1.7Z" stroke="#bee6ce" fill="none" stroke-width="6"></path></g><g transform="translate(730 98)"><path d="M4.7 -1.8C5.3 0.3 4.5 2.7 2.7 4.1C0.9 5.4 -1.8 5.9 -3.5 4.7C-5.2 3.5 -5.8 0.7 -5 -1.6C-4.3 -3.9 -2.1 -5.8 0 -5.8C2 -5.7 4.1 -3.9 4.7 -1.8Z" stroke="#bee6ce" fill="none" stroke-width="6"></path></g><g transform="translate(18 90)"><path d="M5.7 -1.9C6.4 0.5 5.4 3.3 3.5 4.6C1.6 6 -1.2 5.8 -3.1 4.4C-5 3 -5.9 0.4 -5.2 -1.8C-4.5 -4.1 -2.3 -5.9 0.1 -6C2.5 -6 4.9 -4.2 5.7 -1.9Z" stroke="#bee6ce" fill="none" stroke-width="6"></path></g><g transform="translate(312 14)"><path d="M4.9 -1.6C5.6 0.3 4.7 2.8 2.9 4.1C1.1 5.4 -1.6 5.7 -3.2 4.5C-4.9 3.3 -5.5 0.7 -4.7 -1.4C-4 -3.4 -2 -4.8 0.1 -4.8C2.2 -4.8 4.3 -3.5 4.9 -1.6Z" stroke="#bee6ce" fill="none" stroke-width="6"></path></g><g transform="translate(552 39)"><path d="M5.2 -1.7C5.8 0.4 4.9 2.9 3.1 4.2C1.3 5.5 -1.3 5.5 -3 4.2C-4.7 3 -5.4 0.5 -4.7 -1.6C-4 -3.6 -2 -5.3 0.1 -5.3C2.2 -5.4 4.5 -3.8 5.2 -1.7Z" stroke="#bee6ce" fill="none" stroke-width="6"></path></g><g transform="translate(213 18)"><path d="M5.4 -1.7C6.1 0.5 5.3 3.3 3.4 4.8C1.4 6.2 -1.6 6.3 -3.6 4.9C-5.5 3.5 -6.4 0.5 -5.7 -1.8C-4.9 -4.1 -2.4 -5.8 -0.1 -5.8C2.3 -5.7 4.6 -4 5.4 -1.7Z" stroke="#bee6ce" fill="none" stroke-width="6"></path></g><g transform="translate(370 6)"><path d="M5 -1.7C5.7 0.6 5 3.4 3.4 4.5C1.7 5.7 -0.9 5.3 -2.9 3.9C-4.9 2.5 -6.2 0 -5.6 -2.1C-5 -4.2 -2.5 -6 -0.2 -5.9C2.1 -5.9 4.2 -4 5 -1.7Z" stroke="#bee6ce" fill="none" stroke-width="6"></path></g><g transform="translate(414 53)"><path d="M5.5 -1.7C6.3 0.5 5.4 3.4 3.5 4.7C1.7 6.1 -1.2 5.8 -3.1 4.4C-4.9 3 -5.8 0.4 -5.1 -1.7C-4.4 -3.9 -2.2 -5.6 0.1 -5.7C2.4 -5.7 4.8 -4 5.5 -1.7Z" stroke="#bee6ce" fill="none" stroke-width="6"></path></g><g transform="translate(726 35)"><path d="M5.4 -1.8C6 0.1 4.8 2.5 2.9 3.9C1 5.2 -1.5 5.4 -3.3 4.2C-5.1 3 -6 0.4 -5.4 -1.6C-4.7 -3.6 -2.3 -5 0 -5C2.4 -5 4.8 -3.7 5.4 -1.8Z" stroke="#bee6ce" fill="none" stroke-width="6"></path></g><g transform="translate(88 90)"><path d="M5 -1.6C5.7 0.6 5 3.2 3.2 4.5C1.5 5.8 -1.3 5.7 -3.2 4.4C-5.1 3 -6 0.4 -5.3 -1.8C-4.6 -3.9 -2.3 -5.6 -0.1 -5.6C2.2 -5.6 4.3 -3.8 5 -1.6Z" stroke="#bee6ce" fill="none" stroke-width="6"></path></g><g transform="translate(820 55)"><path d="M5.2 -1.4C6 0.7 5.4 3.6 3.6 4.8C1.8 6.1 -1 5.7 -2.9 4.3C-4.8 2.8 -5.6 0.4 -5 -1.6C-4.4 -3.5 -2.2 -4.9 0 -4.9C2.2 -4.9 4.5 -3.6 5.2 -1.4Z" stroke="#bee6ce" fill="none" stroke-width="6"></path></g><g transform="translate(130 44)"><path d="M4.7 -1.6C5.4 0.7 4.8 3.2 3 4.6C1.3 6 -1.7 6.2 -3.5 4.8C-5.4 3.5 -6.1 0.6 -5.4 -1.7C-4.6 -4 -2.3 -5.8 -0.2 -5.7C2 -5.7 3.9 -3.8 4.7 -1.6Z" stroke="#bee6ce" fill="none" stroke-width="6"></path></g><g transform="translate(611 3)"><path d="M4.6 -1.4C5.2 0.4 4.5 2.8 2.7 4.2C1 5.5 -1.8 5.9 -3.6 4.6C-5.5 3.4 -6.5 0.5 -5.7 -1.6C-4.9 -3.6 -2.5 -4.8 -0.2 -4.8C2 -4.7 4 -3.3 4.6 -1.4Z" stroke="#bee6ce" fill="none" stroke-width="6"></path></g><g transform="translate(482 22)"><path d="M4.8 -1.6C5.5 0.7 4.9 3.3 3.2 4.7C1.4 6.1 -1.6 6.2 -3.3 4.9C-4.9 3.6 -5.3 0.9 -4.6 -1.5C-3.8 -3.9 -1.9 -5.9 0.1 -5.9C2 -6 4 -4 4.8 -1.6Z" stroke="#bee6ce" fill="none" stroke-width="6"></path></g><g transform="translate(153 33)"><path d="M5.6 -1.9C6.3 0.4 5.4 3.2 3.4 4.6C1.4 6.1 -1.5 6.1 -3.5 4.7C-5.4 3.3 -6.4 0.5 -5.6 -1.9C-4.9 -4.2 -2.4 -6.1 0 -6.1C2.4 -6.1 4.9 -4.2 5.6 -1.9Z" stroke="#bee6ce" fill="none" stroke-width="6"></path></g><g transform="translate(656 30)"><path d="M5.3 -1.8C5.9 0.3 4.9 2.9 3.1 4.2C1.2 5.6 -1.6 5.8 -3.4 4.5C-5.2 3.2 -6.1 0.5 -5.4 -1.8C-4.6 -4 -2.3 -5.8 0 -5.8C2.3 -5.8 4.6 -4 5.3 -1.8Z" stroke="#bee6ce" fill="none" stroke-width="6"></path></g><g transform="translate(484 84)"><path d="M5.8 -1.8C6.6 0.5 5.6 3.4 3.6 4.8C1.6 6.3 -1.4 6.2 -3.2 4.8C-5 3.4 -5.6 0.7 -4.8 -1.5C-4.1 -3.7 -2 -5.5 0.2 -5.6C2.5 -5.7 5 -4.1 5.8 -1.8Z" stroke="#bee6ce" fill="none" stroke-width="6"></path></g><g transform="translate(759 62)"><path d="M4.6 -1.5C5.3 0.7 4.8 3.2 3.1 4.5C1.4 5.8 -1.4 5.9 -3.1 4.6C-4.8 3.3 -5.3 0.7 -4.6 -1.5C-3.9 -3.6 -1.9 -5.4 0 -5.4C1.9 -5.4 3.9 -3.6 4.6 -1.5Z" stroke="#bee6ce" fill="none" stroke-width="6"></path></g><g transform="translate(168 48)"><path d="M4.9 -1.7C5.6 0.5 4.8 3 3.1 4.1C1.5 5.3 -1 5.1 -2.8 3.8C-4.6 2.6 -5.6 0.2 -5 -1.8C-4.4 -3.8 -2.2 -5.6 0 -5.5C2.1 -5.5 4.2 -3.8 4.9 -1.7Z" stroke="#bee6ce" fill="none" stroke-width="6"></path></g><g transform="translate(281 90)"><path d="M4.5 -1.5C5.1 0.4 4.3 2.6 2.6 4C0.9 5.3 -1.8 5.7 -3.4 4.6C-5 3.4 -5.6 0.7 -4.8 -1.3C-4.1 -3.4 -2 -4.8 -0.1 -4.8C1.9 -4.7 3.9 -3.3 4.5 -1.5Z" stroke="#bee6ce" fill="none" stroke-width="6"></path></g><g transform="translate(970 68)"><path d="M4.5 -1.7C5.1 0.4 4.4 2.7 2.7 4.1C1 5.4 -1.7 5.7 -3.4 4.5C-5.2 3.3 -6 0.5 -5.3 -1.7C-4.5 -4 -2.3 -5.8 -0.2 -5.8C1.9 -5.7 3.9 -3.8 4.5 -1.7Z" stroke="#bee6ce" fill="none" stroke-width="6"></path></g><g transform="translate(782 76)"><path d="M5 -1.5C5.7 0.6 5 3.2 3.2 4.5C1.4 5.9 -1.5 5.9 -3.4 4.6C-5.3 3.2 -6.3 0.4 -5.6 -1.7C-4.9 -3.7 -2.4 -5.1 -0.1 -5C2.1 -5 4.3 -3.5 5 -1.5Z" stroke="#bee6ce" fill="none" stroke-width="6"></path></g><g transform="translate(170 27)"><path d="M4.9 -1.7C5.5 0.3 4.6 2.7 2.8 4C0.9 5.4 -1.8 5.8 -3.5 4.6C-5.2 3.4 -5.8 0.7 -5 -1.5C-4.3 -3.6 -2.1 -5.2 0 -5.2C2.1 -5.2 4.3 -3.6 4.9 -1.7Z" stroke="#bee6ce" fill="none" stroke-width="6"></path></g><g transform="translate(655 2)"><path d="M5.1 -1.5C5.9 0.7 5.2 3.4 3.3 4.8C1.5 6.2 -1.5 6.2 -3.4 4.8C-5.3 3.4 -6.1 0.6 -5.4 -1.6C-4.6 -3.8 -2.3 -5.4 -0.1 -5.4C2.2 -5.3 4.4 -3.7 5.1 -1.5Z" stroke="#bee6ce" fill="none" stroke-width="6"></path></g><g transform="translate(327 78)"><path d="M4.8 -1.3C5.6 0.7 5 3.4 3.2 4.8C1.5 6.2 -1.5 6.2 -3.3 4.8C-5.1 3.5 -5.6 0.7 -4.9 -1.4C-4.1 -3.4 -2.1 -4.9 0 -4.8C2 -4.8 4.1 -3.4 4.8 -1.3Z" stroke="#bee6ce" fill="none" stroke-width="6"></path></g><g transform="translate(395 63)"><path d="M5.5 -1.8C6.1 0.1 4.9 2.6 3 3.9C1.1 5.2 -1.4 5.3 -3.2 4C-5.1 2.8 -6.2 0.2 -5.5 -1.7C-4.9 -3.6 -2.4 -4.9 0 -4.9C2.4 -4.9 4.9 -3.6 5.5 -1.8Z" stroke="#bee6ce" fill="none" stroke-width="6"></path></g><g transform="translate(706 20)"><path d="M5.5 -1.8C6.1 0.2 5 2.7 3.2 4C1.3 5.2 -1.2 5.2 -2.9 3.9C-4.7 2.7 -5.7 0.2 -5.1 -1.7C-4.5 -3.6 -2.2 -5.1 0.1 -5.1C2.4 -5.1 4.8 -3.7 5.5 -1.8Z" stroke="#bee6ce" fill="none" stroke-width="6"></path></g><g transform="translate(3 10)"><path d="M4.6 -1.7C5.3 0.4 4.5 2.8 2.9 4C1.3 5.2 -1.2 5.2 -3.1 3.9C-5 2.6 -6.2 0.1 -5.6 -2.1C-5 -4.2 -2.5 -6.1 -0.2 -6C2 -5.9 4 -3.9 4.6 -1.7Z" stroke="#bee6ce" fill="none" stroke-width="6"></path></g><g transform="translate(977 37)"><path d="M5.4 -1.8C6.1 0.5 5.2 3.2 3.4 4.4C1.6 5.7 -1.1 5.4 -2.9 4.1C-4.7 2.7 -5.7 0.3 -5.1 -1.8C-4.4 -3.9 -2.2 -5.6 0.1 -5.7C2.3 -5.7 4.7 -4 5.4 -1.8Z" stroke="#bee6ce" fill="none" stroke-width="6"></path></g><g transform="translate(963 7)"><path d="M4.6 -1.3C5.3 0.6 4.7 3.1 3 4.3C1.4 5.5 -1.2 5.4 -3.1 4C-5.1 2.7 -6.3 0.1 -5.6 -1.7C-5 -3.6 -2.5 -4.8 -0.3 -4.7C2 -4.6 3.9 -3.3 4.6 -1.3Z" stroke="#bee6ce" fill="none" stroke-width="6"></path></g><g transform="translate(933 8)"><path d="M5 -1.7C5.6 0.5 4.9 3 3.1 4.4C1.3 5.8 -1.6 5.9 -3.2 4.7C-4.9 3.4 -5.3 0.8 -4.6 -1.5C-3.8 -3.8 -1.9 -5.7 0.1 -5.7C2.1 -5.8 4.3 -3.9 5 -1.7Z" stroke="#bee6ce" fill="none" stroke-width="6"></path></g><g transform="translate(297 45)"><path d="M5.1 -1.8C5.8 0.5 5 3.1 3.1 4.5C1.2 5.9 -1.6 6.1 -3.4 4.7C-5.2 3.4 -5.9 0.6 -5.2 -1.7C-4.4 -4 -2.2 -5.9 0 -5.9C2.2 -5.9 4.4 -4 5.1 -1.8Z" stroke="#bee6ce" fill="none" stroke-width="6"></path></g><g transform="translate(925 87)"><path d="M5.5 -1.8C6.2 0.2 5.1 2.8 3.1 4.3C1.2 5.7 -1.6 5.9 -3.3 4.6C-5 3.4 -5.6 0.7 -4.9 -1.5C-4.1 -3.7 -2.1 -5.3 0.2 -5.4C2.4 -5.4 4.8 -3.9 5.5 -1.8Z" stroke="#bee6ce" fill="none" stroke-width="6"></path></g><g transform="translate(854 9)"><path d="M5.6 -1.8C6.2 0.2 5 2.8 3 4.2C1 5.7 -1.8 6.1 -3.5 4.9C-5.2 3.6 -5.8 0.8 -5 -1.4C-4.2 -3.5 -2.1 -5 0.2 -5C2.5 -5.1 4.9 -3.7 5.6 -1.8Z" stroke="#bee6ce" fill="none" stroke-width="6"></path></g><g transform="translate(882 79)"><path d="M5.7 -1.8C6.4 0.4 5.4 3.2 3.6 4.4C1.7 5.7 -0.9 5.3 -2.7 3.9C-4.5 2.6 -5.4 0.3 -4.8 -1.7C-4.2 -3.7 -2.1 -5.3 0.2 -5.3C2.5 -5.4 5 -3.9 5.7 -1.8Z" stroke="#bee6ce" fill="none" stroke-width="6"></path></g><g transform="translate(404 16)"><path d="M4.5 -1.5C5.1 0.4 4.4 2.7 2.8 3.9C1.2 5 -1.2 5.1 -3.1 3.8C-5 2.6 -6.3 0 -5.7 -1.8C-5.1 -3.7 -2.5 -5 -0.3 -4.9C1.9 -4.8 3.8 -3.3 4.5 -1.5Z" stroke="#bee6ce" fill="none" stroke-width="6"></path></g><g transform="translate(698 48)"><path d="M5.3 -1.6C6 0.4 5.1 3.1 3.3 4.3C1.6 5.6 -1.1 5.3 -3 4C-4.8 2.7 -5.9 0.2 -5.3 -1.7C-4.7 -3.6 -2.3 -5 0 -5C2.3 -4.9 4.6 -3.6 5.3 -1.6Z" stroke="#bee6ce" fill="none" stroke-width="6"></path></g><g transform="translate(139 70)"><path d="M4.7 -1.5C5.3 0.3 4.5 2.7 2.7 4C0.9 5.4 -1.8 5.8 -3.4 4.7C-5 3.5 -5.4 0.8 -4.6 -1.3C-3.9 -3.3 -1.9 -4.8 0.1 -4.8C2.1 -4.8 4.1 -3.4 4.7 -1.5Z" stroke="#bee6ce" fill="none" stroke-width="6"></path></g><g transform="translate(272 68)"><path d="M5.7 -2.1C6.4 0.2 5.2 2.8 3.3 4.1C1.4 5.4 -1.3 5.4 -3 4.2C-4.7 2.9 -5.5 0.4 -4.9 -1.8C-4.2 -4 -2.1 -6 0.2 -6.1C2.5 -6.2 5 -4.3 5.7 -2.1Z" stroke="#bee6ce" fill="none" stroke-width="6"></path></g><g transform="translate(333 29)"><path d="M5.7 -1.8C6.4 0.2 5.2 2.9 3.2 4.3C1.2 5.7 -1.6 5.9 -3.5 4.6C-5.3 3.3 -6.2 0.5 -5.4 -1.6C-4.7 -3.8 -2.3 -5.2 0.1 -5.3C2.5 -5.3 5.1 -3.9 5.7 -1.8Z" stroke="#bee6ce" fill="none" stroke-width="6"></path></g><g transform="translate(455 18)"><path d="M4.5 -1.5C5.2 0.6 4.6 3.1 3 4.2C1.5 5.4 -1.1 5.2 -2.8 4C-4.4 2.7 -5.2 0.4 -4.6 -1.6C-4 -3.6 -2 -5.4 0 -5.3C1.9 -5.3 3.8 -3.6 4.5 -1.5Z" stroke="#bee6ce" fill="none" stroke-width="6"></path></g><g transform="translate(315 37)"><path d="M5.3 -2C6 0.2 4.9 2.7 3.1 3.9C1.3 5.2 -1.1 5.1 -2.9 3.8C-4.7 2.6 -5.8 0.2 -5.1 -2C-4.5 -4.1 -2.3 -6 0 -6C2.4 -6 4.7 -4.2 5.3 -2Z" stroke="#bee6ce" fill="none" stroke-width="6"></path></g><g transform="translate(939 36)"><path d="M5.1 -1.7C5.8 0.4 4.9 3 3.2 4.1C1.5 5.3 -1 5.1 -2.7 3.9C-4.4 2.6 -5.2 0.3 -4.6 -1.6C-4 -3.6 -2 -5.2 0.1 -5.3C2.2 -5.3 4.4 -3.7 5.1 -1.7Z" stroke="#bee6ce" fill="none" stroke-width="6"></path></g><g transform="translate(27 34)"><path d="M5.6 -1.8C6.4 0.5 5.5 3.4 3.6 4.7C1.7 6 -1.2 5.8 -3 4.4C-4.8 3 -5.7 0.4 -5 -1.8C-4.3 -3.9 -2.2 -5.8 0.1 -5.8C2.4 -5.8 4.9 -4.1 5.6 -1.8Z" stroke="#bee6ce" fill="none" stroke-width="6"></path></g><g transform="translate(589 7)"><path d="M5.4 -1.7C6 0.2 4.9 2.7 3.1 4C1.2 5.3 -1.4 5.4 -3.1 4.2C-4.8 2.9 -5.6 0.4 -4.9 -1.5C-4.3 -3.5 -2.1 -4.9 0.1 -4.9C2.4 -5 4.8 -3.7 5.4 -1.7Z" stroke="#bee6ce" fill="none" stroke-width="6"></path></g><g transform="translate(378 87)"><path d="M5.1 -1.7C5.8 0.3 4.8 2.8 3.1 4.1C1.3 5.4 -1.3 5.4 -3.1 4.1C-4.8 2.9 -5.8 0.3 -5.1 -1.7C-4.5 -3.8 -2.2 -5.4 0 -5.4C2.2 -5.4 4.5 -3.8 5.1 -1.7Z" stroke="#bee6ce" fill="none" stroke-width="6"></path></g><g transform="translate(550 19)"><path d="M5.4 -1.7C6 0.2 5 2.8 3 4.2C1.1 5.6 -1.7 5.9 -3.4 4.7C-5.1 3.5 -5.6 0.7 -4.8 -1.3C-4.1 -3.4 -2 -4.8 0.2 -4.8C2.4 -4.9 4.7 -3.6 5.4 -1.7Z" stroke="#bee6ce" fill="none" stroke-width="6"></path></g><g transform="translate(352 88)"><path d="M4.8 -1.3C5.5 0.8 5.1 3.6 3.4 4.9C1.8 6.1 -1.1 5.9 -2.9 4.5C-4.6 3.1 -5.2 0.6 -4.5 -1.4C-3.9 -3.5 -1.9 -5 0 -5.1C2 -5.1 4 -3.5 4.8 -1.3Z" stroke="#bee6ce" fill="none" stroke-width="6"></path></g><g transform="translate(293 72)"><path d="M4.7 -1.6C5.4 0.5 4.7 3.1 3 4.3C1.3 5.6 -1.4 5.7 -3.2 4.4C-5 3.1 -5.8 0.5 -5.1 -1.7C-4.4 -3.8 -2.2 -5.5 -0.1 -5.5C2 -5.5 4 -3.7 4.7 -1.6Z" stroke="#bee6ce" fill="none" stroke-width="6"></path></g><g transform="translate(410 85)"><path d="M4.6 -1.4C5.3 0.6 4.7 3.2 3.1 4.4C1.4 5.6 -1.2 5.5 -3 4.2C-4.8 2.9 -5.6 0.4 -5 -1.6C-4.3 -3.6 -2.2 -5 -0.1 -5C1.9 -4.9 3.9 -3.4 4.6 -1.4Z" stroke="#bee6ce" fill="none" stroke-width="6"></path></g><g transform="translate(376 56)"><path d="M5.7 -1.8C6.4 0.4 5.4 3.3 3.4 4.7C1.5 6.1 -1.5 6.1 -3.2 4.8C-4.9 3.5 -5.4 0.8 -4.7 -1.4C-3.9 -3.7 -2 -5.4 0.3 -5.5C2.5 -5.6 5 -4 5.7 -1.8Z" stroke="#bee6ce" fill="none" stroke-width="6"></path></g><g transform="translate(779 4)"><path d="M5.6 -1.5C6.4 0.6 5.5 3.5 3.7 4.9C1.8 6.2 -1.1 5.9 -3.1 4.4C-5 3 -6 0.4 -5.3 -1.6C-4.6 -3.6 -2.3 -4.9 0 -4.9C2.4 -5 4.8 -3.6 5.6 -1.5Z" stroke="#bee6ce" fill="none" stroke-width="6"></path></g><g transform="translate(802 45)"><path d="M5.7 -1.8C6.5 0.5 5.6 3.5 3.6 4.9C1.6 6.3 -1.4 6.2 -3.2 4.8C-5.1 3.4 -5.7 0.6 -5 -1.6C-4.3 -3.8 -2.1 -5.6 0.2 -5.6C2.5 -5.7 4.9 -4.1 5.7 -1.8Z" stroke="#bee6ce" fill="none" stroke-width="6"></path></g><g transform="translate(61 81)"><path d="M4.5 -1.6C5.2 0.5 4.5 2.9 2.8 4.3C1 5.7 -1.8 6 -3.6 4.7C-5.5 3.4 -6.3 0.5 -5.6 -1.8C-4.8 -4.1 -2.4 -5.8 -0.2 -5.8C1.9 -5.7 3.9 -3.8 4.5 -1.6Z" stroke="#bee6ce" fill="none" stroke-width="6"></path></g><g transform="translate(586 32)"><path d="M5.6 -2C6.3 0.3 5.2 3 3.2 4.4C1.3 5.8 -1.5 5.9 -3.2 4.6C-4.8 3.4 -5.3 0.8 -4.6 -1.6C-3.8 -3.9 -1.9 -5.9 0.3 -6C2.5 -6.1 4.9 -4.2 5.6 -2Z" stroke="#bee6ce" fill="none" stroke-width="6"></path></g><g transform="translate(603 21)"><path d="M5.6 -1.6C6.3 0.3 5.3 3.1 3.4 4.3C1.6 5.6 -1.1 5.3 -2.8 4C-4.5 2.7 -5.4 0.4 -4.8 -1.5C-4.1 -3.4 -2.1 -4.7 0.2 -4.8C2.5 -4.8 4.9 -3.6 5.6 -1.6Z" stroke="#bee6ce" fill="none" stroke-width="6"></path></g><g transform="translate(94 47)"><path d="M4.6 -1.5C5.2 0.4 4.5 2.8 2.8 4C1.2 5.2 -1.3 5.3 -3 4.1C-4.6 2.9 -5.4 0.4 -4.8 -1.5C-4.1 -3.4 -2.1 -4.9 0 -4.9C2 -4.8 4 -3.4 4.6 -1.5Z" stroke="#bee6ce" fill="none" stroke-width="6"></path></g><g transform="translate(344 48)"><path d="M5 -1.9C5.6 0.2 4.6 2.5 2.7 3.9C0.8 5.3 -1.9 5.8 -3.6 4.6C-5.4 3.4 -6.2 0.6 -5.5 -1.8C-4.7 -4.1 -2.3 -5.9 -0.1 -5.9C2.2 -5.8 4.4 -4 5 -1.9Z" stroke="#bee6ce" fill="none" stroke-width="6"></path></g><g transform="translate(464 92)"><path d="M5.4 -1.7C6.2 0.6 5.4 3.4 3.5 4.8C1.6 6.2 -1.4 6.1 -3.3 4.7C-5.2 3.2 -6.1 0.5 -5.4 -1.7C-4.6 -3.9 -2.3 -5.5 0 -5.5C2.3 -5.5 4.7 -3.9 5.4 -1.7Z" stroke="#bee6ce" fill="none" stroke-width="6"></path></g><g transform="translate(902 82)"><path d="M5.3 -1.5C6.1 0.6 5.4 3.5 3.5 4.8C1.7 6.2 -1.3 6 -3.3 4.5C-5.3 3.1 -6.4 0.3 -5.7 -1.7C-5 -3.7 -2.5 -5.1 -0.1 -5.1C2.3 -5 4.6 -3.6 5.3 -1.5Z" stroke="#bee6ce" fill="none" stroke-width="6"></path></g><g transform="translate(404 35)"><path d="M5.4 -1.5C6.1 0.6 5.3 3.4 3.6 4.6C1.8 5.8 -0.9 5.3 -2.6 4C-4.3 2.6 -5.1 0.4 -4.5 -1.5C-3.9 -3.4 -2 -4.9 0.2 -4.9C2.3 -5 4.6 -3.6 5.4 -1.5Z" stroke="#bee6ce" fill="none" stroke-width="6"></path></g><g transform="translate(279 29)"><path d="M5.5 -1.8C6.1 0.1 4.8 2.5 2.9 3.8C1 5.2 -1.5 5.4 -3.4 4.2C-5.2 2.9 -6.4 0.2 -5.7 -1.7C-5 -3.7 -2.5 -4.9 0 -4.9C2.5 -4.9 4.9 -3.7 5.5 -1.8Z" stroke="#bee6ce" fill="none" stroke-width="6"></path></g><g transform="translate(113 69)"><path d="M5 -1.9C5.6 0.2 4.6 2.5 2.8 3.8C1 5.1 -1.6 5.4 -3.4 4.2C-5.1 3 -6.2 0.3 -5.5 -1.9C-4.8 -4.1 -2.4 -5.8 -0.1 -5.8C2.2 -5.8 4.4 -4 5 -1.9Z" stroke="#bee6ce" fill="none" stroke-width="6"></path></g><g transform="translate(846 90)"><path d="M4.7 -1.8C5.3 0.3 4.5 2.7 2.8 3.9C1.2 5.1 -1.3 5.1 -3 3.9C-4.8 2.7 -5.8 0.2 -5.2 -1.9C-4.5 -4.1 -2.3 -6 -0.1 -6C2.1 -6 4.1 -4 4.7 -1.8Z" stroke="#bee6ce" fill="none" stroke-width="6"></path></g><g transform="translate(86 19)"><path d="M5.3 -1.7C5.9 0.4 5 3 3.2 4.3C1.4 5.6 -1.3 5.6 -3.2 4.3C-5 3 -5.9 0.4 -5.2 -1.7C-4.6 -3.8 -2.3 -5.3 0 -5.3C2.3 -5.3 4.6 -3.8 5.3 -1.7Z" stroke="#bee6ce" fill="none" stroke-width="6"></path></g><g transform="translate(566 77)"><path d="M4.9 -1.7C5.6 0.6 4.9 3.3 3.3 4.4C1.7 5.6 -0.9 5.2 -2.7 3.9C-4.5 2.6 -5.4 0.3 -4.8 -1.9C-4.2 -4 -2.1 -6 0 -6C2.1 -6 4.2 -4 4.9 -1.7Z" stroke="#bee6ce" fill="none" stroke-width="6"></path></g><g transform="translate(201 93)"><path d="M4.6 -1.4C5.3 0.6 4.7 3.2 3 4.5C1.3 5.9 -1.6 6 -3.4 4.6C-5.3 3.3 -6.1 0.5 -5.4 -1.6C-4.6 -3.7 -2.3 -5.2 -0.2 -5.1C1.9 -5.1 3.9 -3.5 4.6 -1.4Z" stroke="#bee6ce" fill="none" stroke-width="6"></path></g><g transform="translate(964 98)"><path d="M4.5 -1.4C5.2 0.7 4.7 3.2 3 4.5C1.4 5.8 -1.4 5.8 -3.3 4.5C-5.2 3.1 -6.2 0.4 -5.5 -1.6C-4.8 -3.7 -2.4 -5 -0.2 -4.9C1.9 -4.9 3.8 -3.4 4.5 -1.4Z" stroke="#bee6ce" fill="none" stroke-width="6"></path></g><g transform="translate(783 35)"><path d="M4.9 -1.4C5.6 0.8 5.1 3.5 3.5 4.7C1.8 5.9 -1 5.5 -2.8 4.1C-4.6 2.7 -5.5 0.3 -4.9 -1.7C-4.3 -3.7 -2.1 -5.2 0 -5.2C2.1 -5.2 4.1 -3.6 4.9 -1.4Z" stroke="#bee6ce" fill="none" stroke-width="6"></path></g><g transform="translate(834 74)"><path d="M5 -1.9C5.6 0.2 4.6 2.6 2.9 3.9C1.2 5.1 -1.3 5.1 -2.9 4C-4.4 2.8 -5.1 0.5 -4.5 -1.7C-3.9 -3.9 -1.9 -5.9 0.1 -5.9C2.2 -6 4.4 -4.1 5 -1.9Z" stroke="#bee6ce" fill="none" stroke-width="6"></path></g><g transform="translate(104 26)"><path d="M5.2 -1.6C5.9 0.5 5.1 3.2 3.3 4.6C1.4 5.9 -1.5 6 -3.3 4.6C-5.2 3.3 -6 0.5 -5.2 -1.6C-4.5 -3.8 -2.3 -5.4 0 -5.4C2.2 -5.4 4.5 -3.8 5.2 -1.6Z" stroke="#bee6ce" fill="none" stroke-width="6"></path></g><g transform="translate(619 85)"><path d="M5.7 -2C6.3 0.2 5.1 2.8 3.2 4.2C1.2 5.6 -1.5 5.7 -3.3 4.4C-5 3.1 -5.8 0.5 -5.1 -1.8C-4.4 -4.1 -2.2 -6 0.1 -6.1C2.5 -6.1 5 -4.3 5.7 -2Z" stroke="#bee6ce" fill="none" stroke-width="6"></path></g><g transform="translate(267 13)"><path d="M4.7 -1.4C5.5 0.8 5 3.6 3.3 5C1.5 6.4 -1.6 6.4 -3.5 5C-5.4 3.6 -6.1 0.7 -5.3 -1.6C-4.6 -3.9 -2.3 -5.6 -0.2 -5.6C2 -5.5 3.9 -3.7 4.7 -1.4Z" stroke="#bee6ce" fill="none" stroke-width="6"></path></g><g transform="translate(142 5)"><path d="M5.3 -1.8C5.9 0.3 5 2.9 3.2 4.2C1.4 5.5 -1.3 5.4 -3 4.2C-4.6 3 -5.3 0.5 -4.7 -1.7C-4 -3.8 -2 -5.6 0.1 -5.7C2.3 -5.7 4.6 -4 5.3 -1.8Z" stroke="#bee6ce" fill="none" stroke-width="6"></path></g><g transform="translate(879 4)"><path d="M5.3 -1.7C6 0.4 5.1 3.1 3.3 4.3C1.6 5.6 -1.1 5.3 -2.9 4C-4.6 2.7 -5.5 0.3 -4.9 -1.7C-4.3 -3.8 -2.1 -5.5 0.1 -5.5C2.3 -5.6 4.6 -3.9 5.3 -1.7Z" stroke="#bee6ce" fill="none" stroke-width="6"></path></g><g transform="translate(31 6)"><path d="M5.3 -1.7C6 0.4 5.1 3.1 3.2 4.4C1.4 5.7 -1.3 5.7 -3 4.4C-4.7 3.1 -5.3 0.6 -4.7 -1.5C-4 -3.6 -2 -5.3 0.2 -5.3C2.3 -5.4 4.6 -3.8 5.3 -1.7Z" stroke="#bee6ce" fill="none" stroke-width="6"></path></g><g transform="translate(870 96)"><path d="M4.6 -1.6C5.3 0.8 4.9 3.4 3.2 4.7C1.6 5.9 -1.2 5.8 -3 4.4C-4.8 3.1 -5.6 0.5 -4.9 -1.7C-4.2 -4 -2.1 -5.9 -0.1 -5.9C1.9 -5.8 3.9 -3.9 4.6 -1.6Z" stroke="#bee6ce" fill="none" stroke-width="6"></path></g><g transform="translate(493 40)"><path d="M4.6 -1.5C5.3 0.8 4.9 3.4 3.1 4.8C1.4 6.2 -1.6 6.3 -3.4 5C-5.2 3.6 -5.7 0.8 -4.9 -1.5C-4.1 -3.8 -2.1 -5.6 -0.1 -5.6C1.9 -5.6 3.9 -3.7 4.6 -1.5Z" stroke="#bee6ce" fill="none" stroke-width="6"></path></g><g transform="translate(227 72)"><path d="M4.5 -1.7C5.2 0.6 4.6 3 3 4.2C1.4 5.4 -1.2 5.3 -2.9 4.1C-4.6 2.8 -5.4 0.4 -4.8 -1.8C-4.1 -4 -2.1 -5.9 -0.1 -5.9C1.9 -5.9 3.8 -3.9 4.5 -1.7Z" stroke="#bee6ce" fill="none" stroke-width="6"></path></g><g transform="translate(737 14)"><path d="M4.6 -1.4C5.4 0.7 4.8 3.3 3.1 4.7C1.4 6 -1.5 6 -3.2 4.7C-4.9 3.4 -5.4 0.7 -4.7 -1.4C-3.9 -3.6 -2 -5.2 0 -5.2C2 -5.2 3.9 -3.6 4.6 -1.4Z" stroke="#bee6ce" fill="none" stroke-width="6"></path></g><g transform="translate(662 94)"><path d="M4.9 -1.7C5.5 0.4 4.7 2.8 3 4C1.3 5.2 -1.2 5.1 -2.8 3.9C-4.5 2.6 -5.4 0.3 -4.8 -1.7C-4.2 -3.7 -2.1 -5.4 0 -5.4C2.1 -5.4 4.2 -3.7 4.9 -1.7Z" stroke="#bee6ce" fill="none" stroke-width="6"></path></g><g transform="translate(709 73)"><path d="M4.5 -1.5C5.1 0.4 4.4 2.7 2.7 4C1.1 5.3 -1.5 5.4 -3.2 4.3C-4.9 3.1 -5.7 0.5 -5 -1.5C-4.3 -3.5 -2.2 -4.9 -0.1 -4.9C1.9 -4.8 3.9 -3.4 4.5 -1.5Z" stroke="#bee6ce" fill="none" stroke-width="6"></path></g><g transform="translate(926 55)"><path d="M5.3 -1.7C6 0.4 5.1 3.1 3.2 4.5C1.2 6 -1.7 6.2 -3.4 4.9C-5.1 3.6 -5.5 0.8 -4.8 -1.4C-4 -3.7 -2 -5.4 0.2 -5.5C2.3 -5.5 4.6 -3.9 5.3 -1.7Z" stroke="#bee6ce" fill="none" stroke-width="6"></path></g><g transform="translate(746 38)"><path d="M5.5 -1.9C6.2 0.3 5.1 3 3.2 4.3C1.3 5.7 -1.5 5.8 -3.3 4.4C-5.2 3.1 -6.1 0.4 -5.4 -1.8C-4.7 -4.1 -2.3 -5.8 0 -5.8C2.4 -5.8 4.8 -4.1 5.5 -1.9Z" stroke="#bee6ce" fill="none" stroke-width="6"></path></g><g transform="translate(59 45)"><path d="M5.7 -1.9C6.3 0.1 5 2.6 3 4C1.1 5.4 -1.6 5.6 -3.4 4.4C-5.1 3.2 -6 0.5 -5.3 -1.6C-4.6 -3.6 -2.3 -5 0.1 -5.1C2.5 -5.1 5.1 -3.8 5.7 -1.9Z" stroke="#bee6ce" fill="none" stroke-width="6"></path></g><g transform="translate(3 49)"><path d="M4.6 -1.6C5.3 0.5 4.6 2.9 2.8 4.3C1 5.6 -1.8 6 -3.5 4.7C-5.2 3.5 -5.8 0.7 -5 -1.5C-4.3 -3.7 -2.1 -5.4 -0.1 -5.4C2 -5.3 4 -3.6 4.6 -1.6Z" stroke="#bee6ce" fill="none" stroke-width="6"></path></g><g transform="translate(945 94)"><path d="M4.8 -1.5C5.5 0.6 4.9 3.2 3.1 4.6C1.4 5.9 -1.6 6 -3.5 4.7C-5.5 3.3 -6.5 0.4 -5.7 -1.7C-5 -3.9 -2.5 -5.3 -0.2 -5.3C2 -5.2 4.1 -3.6 4.8 -1.5Z" stroke="#bee6ce" fill="none" stroke-width="6"></path></g><g transform="translate(540 4)"><path d="M5.3 -1.8C5.9 0.1 4.8 2.6 3 3.8C1.2 5 -1.2 5.1 -3.1 3.8C-5 2.6 -6.3 0.1 -5.6 -1.9C-5 -3.8 -2.5 -5.2 -0.1 -5.2C2.4 -5.2 4.7 -3.7 5.3 -1.8Z" stroke="#bee6ce" fill="none" stroke-width="6"></path></g><g transform="translate(434 24)"><path d="M5.5 -1.9C6.1 0.3 5.1 2.9 3.2 4.2C1.4 5.5 -1.2 5.4 -3.1 4.1C-4.9 2.8 -6 0.2 -5.4 -1.9C-4.7 -4.1 -2.4 -5.9 0 -5.9C2.4 -5.9 4.8 -4.1 5.5 -1.9Z" stroke="#bee6ce" fill="none" stroke-width="6"></path></g><g transform="translate(526 72)"><path d="M5 -1.9C5.6 0.2 4.6 2.6 2.8 3.9C1 5.2 -1.5 5.4 -3.1 4.3C-4.7 3.1 -5.3 0.6 -4.6 -1.6C-3.9 -3.9 -2 -5.9 0.1 -6C2.2 -6 4.4 -4.1 5 -1.9Z" stroke="#bee6ce" fill="none" stroke-width="6"></path></g><g transform="translate(126 83)"><path d="M4.9 -1.3C5.7 0.8 5.2 3.6 3.5 4.9C1.8 6.1 -1 5.7 -3 4.3C-4.9 2.8 -5.9 0.3 -5.3 -1.6C-4.6 -3.5 -2.3 -4.8 -0.1 -4.7C2.1 -4.7 4.1 -3.4 4.9 -1.3Z" stroke="#bee6ce" fill="none" stroke-width="6"></path></g><g transform="translate(675 9)"><path d="M4.7 -1.5C5.4 0.5 4.7 3 3 4.3C1.2 5.7 -1.6 5.8 -3.2 4.6C-4.9 3.3 -5.4 0.7 -4.7 -1.4C-4 -3.4 -2 -5 0 -5C2 -5 4 -3.5 4.7 -1.5Z" stroke="#bee6ce" fill="none" stroke-width="6"></path></g><g transform="translate(989 63)"><path d="M5.3 -1.6C6.1 0.7 5.4 3.5 3.5 4.8C1.7 6.2 -1.2 5.9 -3.1 4.5C-4.9 3.1 -5.7 0.5 -5 -1.6C-4.4 -3.8 -2.2 -5.4 0 -5.4C2.3 -5.4 4.5 -3.8 5.3 -1.6Z" stroke="#bee6ce" fill="none" stroke-width="6"></path></g><g transform="translate(878 50)"><path d="M5.2 -1.8C5.8 0.2 4.7 2.6 2.9 4C1.1 5.3 -1.5 5.5 -3.3 4.3C-5 3 -5.9 0.4 -5.2 -1.7C-4.6 -3.9 -2.3 -5.6 0 -5.6C2.3 -5.6 4.5 -3.9 5.2 -1.8Z" stroke="#bee6ce" fill="none" stroke-width="6"></path></g><g transform="translate(896 12)"><path d="M5.2 -1.9C5.9 0.3 4.9 2.9 3 4.3C1.1 5.7 -1.7 6 -3.4 4.8C-5.1 3.6 -5.6 0.8 -4.9 -1.6C-4.1 -4 -2.1 -6 0.1 -6C2.3 -6 4.6 -4.1 5.2 -1.9Z" stroke="#bee6ce" fill="none" stroke-width="6"></path></g><g transform="translate(738 75)"><path d="M4.7 -1.6C5.5 0.7 5 3.4 3.3 4.7C1.6 6 -1.3 5.8 -3.2 4.4C-5.1 3 -6.1 0.3 -5.4 -1.9C-4.7 -4.2 -2.4 -6 -0.2 -6C2 -5.9 4 -3.9 4.7 -1.6Z" stroke="#bee6ce" fill="none" stroke-width="6"></path></g><g transform="translate(430 91)"><path d="M5.6 -1.9C6.3 0.3 5.3 3 3.3 4.4C1.4 5.8 -1.5 5.9 -3.3 4.5C-5.2 3.2 -6.1 0.5 -5.3 -1.8C-4.6 -4.1 -2.3 -5.9 0.1 -5.9C2.5 -6 4.9 -4.2 5.6 -1.9Z" stroke="#bee6ce" fill="none" stroke-width="6"></path></g><g transform="translate(243 4)"><path d="M5.5 -1.9C6.2 0.1 5 2.7 3.1 4C1.2 5.3 -1.4 5.3 -3 4.2C-4.6 3 -5.2 0.5 -4.6 -1.6C-3.9 -3.7 -2 -5.5 0.2 -5.6C2.4 -5.7 4.9 -4 5.5 -1.9Z" stroke="#bee6ce" fill="none" stroke-width="6"></path></g><g transform="translate(56 14)"><path d="M5.3 -1.8C6.1 0.5 5.3 3.3 3.4 4.7C1.5 6.1 -1.5 6.1 -3.3 4.8C-5 3.4 -5.6 0.7 -4.8 -1.6C-4.1 -3.9 -2 -5.9 0.1 -5.9C2.3 -6 4.6 -4.1 5.3 -1.8Z" stroke="#bee6ce" fill="none" stroke-width="6"></path></g><g transform="translate(984 4)"><path d="M4.8 -1.6C5.5 0.8 5.1 3.6 3.4 4.7C1.8 5.9 -1 5.5 -2.7 4.1C-4.5 2.8 -5.3 0.4 -4.6 -1.8C-4 -3.9 -2 -5.9 0 -5.9C2 -5.9 4 -3.9 4.8 -1.6Z" stroke="#bee6ce" fill="none" stroke-width="6"></path></g><g transform="translate(640 94)"><path d="M5.5 -1.8C6.2 0.2 5 2.7 3.1 4.1C1.2 5.5 -1.5 5.6 -3.2 4.4C-4.8 3.2 -5.5 0.6 -4.8 -1.4C-4.1 -3.5 -2 -4.9 0.2 -5C2.4 -5 4.9 -3.7 5.5 -1.8Z" stroke="#bee6ce" fill="none" stroke-width="6"></path></g><g transform="translate(200 34)"><path d="M5.4 -1.6C6.2 0.5 5.3 3.3 3.5 4.5C1.7 5.8 -0.9 5.4 -2.7 4C-4.5 2.7 -5.3 0.3 -4.7 -1.6C-4.1 -3.5 -2.1 -5.1 0.2 -5.1C2.4 -5.2 4.7 -3.7 5.4 -1.6Z" stroke="#bee6ce" fill="none" stroke-width="6"></path></g><g transform="translate(893 62)"><path d="M5.4 -1.6C6.1 0.5 5.2 3.2 3.3 4.6C1.5 6 -1.4 6 -3.3 4.6C-5.2 3.2 -6.1 0.5 -5.4 -1.6C-4.7 -3.7 -2.3 -5.1 0 -5.1C2.3 -5.1 4.6 -3.7 5.4 -1.6Z" stroke="#bee6ce" fill="none" stroke-width="6"></path></g><g transform="translate(807 70)"><path d="M5.3 -2C5.9 0.1 4.7 2.5 3 3.7C1.2 4.9 -1.2 4.9 -3 3.7C-4.9 2.5 -6.2 0 -5.6 -2.1C-5 -4.2 -2.5 -5.9 -0.1 -5.9C2.4 -5.9 4.7 -4.1 5.3 -2Z" stroke="#bee6ce" fill="none" stroke-width="6"></path></g><g transform="translate(240 54)"><path d="M5.7 -1.9C6.4 0.3 5.3 3.1 3.4 4.4C1.5 5.7 -1.2 5.5 -2.9 4.2C-4.6 2.9 -5.4 0.5 -4.7 -1.6C-4.1 -3.8 -2 -5.6 0.2 -5.6C2.5 -5.7 5 -4.1 5.7 -1.9Z" stroke="#bee6ce" fill="none" stroke-width="6"></path></g><g transform="translate(817 4)"><path d="M5.6 -1.8C6.3 0.4 5.4 3.3 3.6 4.5C1.7 5.7 -0.9 5.3 -2.8 4C-4.6 2.6 -5.7 0.2 -5.1 -1.8C-4.5 -3.8 -2.2 -5.5 0.1 -5.5C2.4 -5.6 4.9 -4 5.6 -1.8Z" stroke="#bee6ce" fill="none" stroke-width="6"></path></g><g transform="translate(155 97)"><path d="M5.5 -1.6C6.3 0.4 5.3 3.2 3.4 4.4C1.6 5.7 -1.2 5.5 -3.1 4.2C-4.9 2.8 -6 0.2 -5.4 -1.7C-4.7 -3.6 -2.4 -5 0 -5C2.4 -5 4.8 -3.7 5.5 -1.6Z" stroke="#bee6ce" fill="none" stroke-width="6"></path></g><g transform="translate(344 9)"><path d="M4.7 -1.4C5.4 0.8 5 3.6 3.3 4.9C1.7 6.1 -1.3 5.9 -3.1 4.5C-4.9 3.1 -5.7 0.5 -5 -1.6C-4.3 -3.7 -2.2 -5.3 -0.1 -5.3C2 -5.2 3.9 -3.6 4.7 -1.4Z" stroke="#bee6ce" fill="none" stroke-width="6"></path></g><g transform="translate(569 48)"><path d="M4.5 -1.6C5.1 0.4 4.4 2.7 2.6 4.1C0.9 5.4 -1.8 5.8 -3.6 4.6C-5.5 3.4 -6.4 0.5 -5.6 -1.8C-4.9 -4 -2.4 -5.7 -0.3 -5.6C1.9 -5.5 3.8 -3.7 4.5 -1.6Z" stroke="#bee6ce" fill="none" stroke-width="6"></path></g><g transform="translate(181 9)"><path d="M4.5 -1.5C5.2 0.6 4.6 3.1 2.9 4.5C1.1 5.8 -1.8 6.1 -3.5 4.9C-5.2 3.6 -5.7 0.8 -5 -1.4C-4.2 -3.6 -2.1 -5.2 -0.1 -5.2C1.9 -5.2 3.9 -3.5 4.5 -1.5Z" stroke="#bee6ce" fill="none" stroke-width="6"></path></g><g transform="translate(349 69)"><path d="M5.2 -1.8C5.9 0.4 5 3.1 3.2 4.4C1.4 5.6 -1.3 5.6 -3 4.3C-4.8 3 -5.6 0.5 -4.9 -1.8C-4.2 -4 -2.1 -5.9 0.1 -5.9C2.3 -5.9 4.5 -4.1 5.2 -1.8Z" stroke="#bee6ce" fill="none" stroke-width="6"></path></g><g transform="translate(217 49)"><path d="M4.7 -1.6C5.4 0.6 4.8 3.1 3.1 4.4C1.4 5.6 -1.3 5.6 -3.2 4.2C-5.1 2.9 -6.2 0.3 -5.5 -1.9C-4.8 -4 -2.4 -5.7 -0.2 -5.7C2 -5.6 4 -3.8 4.7 -1.6Z" stroke="#bee6ce" fill="none" stroke-width="6"></path></g><g transform="translate(673 72)"><path d="M5.1 -1.7C5.8 0.6 5.1 3.4 3.4 4.6C1.7 5.9 -1.1 5.6 -3.1 4.2C-5 2.8 -6.1 0.2 -5.4 -1.9C-4.8 -4.1 -2.4 -5.9 -0.1 -5.9C2.2 -5.8 4.3 -4 5.1 -1.7Z" stroke="#bee6ce" fill="none" stroke-width="6"></path></g><g transform="translate(429 4)"><path d="M5 -1.6C5.8 0.7 5.2 3.5 3.4 4.9C1.5 6.3 -1.5 6.3 -3.3 4.9C-5 3.5 -5.4 0.8 -4.7 -1.5C-3.9 -3.8 -2 -5.7 0.1 -5.8C2.1 -5.8 4.3 -3.9 5 -1.6Z" stroke="#bee6ce" fill="none" stroke-width="6"></path></g><g transform="translate(316 58)"><path d="M5 -1.5C5.8 0.6 5 3.3 3.3 4.5C1.6 5.8 -1.2 5.6 -3 4.2C-4.9 2.8 -5.9 0.3 -5.2 -1.7C-4.6 -3.6 -2.3 -5.1 -0.1 -5.1C2.2 -5 4.3 -3.6 5 -1.5Z" stroke="#bee6ce" fill="none" stroke-width="6"></path></g><g transform="translate(628 12)"><path d="M5.6 -2.1C6.2 0.1 4.9 2.5 2.9 4C1 5.4 -1.7 5.7 -3.4 4.5C-5.1 3.4 -5.8 0.6 -5.1 -1.7C-4.3 -4 -2.2 -5.9 0.2 -6C2.5 -6 5 -4.2 5.6 -2.1Z" stroke="#bee6ce" fill="none" stroke-width="6"></path></g><g transform="translate(954 57)"><path d="M5.1 -1.6C5.8 0.6 5.1 3.3 3.4 4.5C1.6 5.7 -1.1 5.5 -2.9 4.1C-4.8 2.8 -5.7 0.3 -5.1 -1.7C-4.5 -3.7 -2.2 -5.3 0 -5.3C2.2 -5.3 4.4 -3.7 5.1 -1.6Z" stroke="#bee6ce" fill="none" stroke-width="6"></path></g><g transform="translate(502 57)"><path d="M5.4 -1.9C6.1 0.2 5 2.8 3.1 4.2C1.2 5.5 -1.4 5.6 -3.3 4.3C-5.1 3 -6.1 0.4 -5.4 -1.8C-4.8 -4 -2.4 -5.6 0 -5.6C2.4 -5.6 4.8 -4 5.4 -1.9Z" stroke="#bee6ce" fill="none" stroke-width="6"></path></g><g transform="translate(291 8)"><path d="M5.2 -1.7C5.9 0.5 5.1 3.2 3.3 4.5C1.5 5.8 -1.4 5.8 -3.2 4.4C-5.1 3.1 -6 0.4 -5.4 -1.7C-4.7 -3.9 -2.3 -5.5 0 -5.5C2.2 -5.5 4.5 -3.8 5.2 -1.7Z" stroke="#bee6ce" fill="none" stroke-width="6"></path></g><g transform="translate(596 84)"><path d="M4.9 -1.6C5.7 0.7 5.1 3.4 3.3 4.8C1.5 6.1 -1.5 6.1 -3.4 4.7C-5.4 3.3 -6.3 0.5 -5.6 -1.8C-4.8 -4.1 -2.4 -5.9 -0.2 -5.9C2.1 -5.8 4.2 -3.9 4.9 -1.6Z" stroke="#bee6ce" fill="none" stroke-width="6"></path></g><g transform="translate(316 95)"><path d="M4.6 -1.5C5.3 0.6 4.7 3.2 3.1 4.4C1.5 5.6 -1.2 5.5 -3.1 4.2C-5 2.8 -6 0.3 -5.3 -1.8C-4.7 -3.9 -2.3 -5.6 -0.2 -5.5C2 -5.4 4 -3.7 4.6 -1.5Z" stroke="#bee6ce" fill="none" stroke-width="6"></path></g><g transform="translate(432 67)"><path d="M5.3 -1.9C5.9 0.1 4.7 2.5 2.8 3.9C0.9 5.3 -1.8 5.7 -3.4 4.6C-5.1 3.4 -5.8 0.7 -5 -1.5C-4.3 -3.7 -2.1 -5.3 0.1 -5.4C2.3 -5.4 4.7 -3.8 5.3 -1.9Z" stroke="#bee6ce" fill="none" stroke-width="6"></path></g><g transform="translate(39 79)"><path d="M5 -1.6C5.7 0.4 4.8 2.9 3.1 4.1C1.4 5.3 -1.2 5.2 -2.8 4C-4.4 2.8 -5.1 0.5 -4.5 -1.5C-3.8 -3.5 -1.9 -5.2 0.1 -5.2C2.2 -5.3 4.3 -3.7 5 -1.6Z" stroke="#bee6ce" fill="none" stroke-width="6"></path></g><g transform="translate(607 43)"><path d="M4.6 -1.6C5.3 0.6 4.6 3.1 3 4.3C1.4 5.5 -1.2 5.4 -3 4.1C-4.8 2.8 -5.8 0.3 -5.2 -1.9C-4.5 -4.1 -2.3 -5.9 -0.2 -5.9C2 -5.8 3.9 -3.9 4.6 -1.6Z" stroke="#bee6ce" fill="none" stroke-width="6"></path></g><g transform="translate(171 86)"><path d="M5 -1.6C5.7 0.6 5 3.3 3.3 4.6C1.5 5.9 -1.3 5.8 -3.3 4.4C-5.3 3 -6.3 0.3 -5.6 -1.9C-4.9 -4.1 -2.5 -5.8 -0.2 -5.8C2.1 -5.7 4.2 -3.9 5 -1.6Z" stroke="#bee6ce" fill="none" stroke-width="6"></path></g><g transform="translate(256 32)"><path d="M5.6 -1.8C6.4 0.6 5.5 3.5 3.6 4.8C1.7 6.1 -1.2 5.9 -3.1 4.4C-5 3 -5.9 0.4 -5.3 -1.8C-4.6 -4 -2.3 -5.8 0.1 -5.8C2.4 -5.9 4.8 -4.1 5.6 -1.8Z" stroke="#bee6ce" fill="none" stroke-width="6"></path></g><g transform="translate(997 99)"><path d="M5.8 -1.7C6.5 0.4 5.5 3.2 3.6 4.4C1.7 5.7 -0.9 5.3 -2.9 3.9C-4.8 2.5 -6.1 0.1 -5.5 -1.9C-4.9 -3.8 -2.4 -5.2 0 -5.2C2.5 -5.2 5.1 -3.8 5.8 -1.7Z" stroke="#bee6ce" fill="none" stroke-width="6"></path></g><g transform="translate(383 20)"><path d="M5.3 -1.7C6.1 0.7 5.4 3.6 3.5 4.9C1.7 6.3 -1.3 6.1 -3.3 4.7C-5.3 3.2 -6.2 0.4 -5.5 -1.8C-4.7 -4.1 -2.4 -5.9 -0.1 -5.9C2.2 -5.9 4.5 -4 5.3 -1.7Z" stroke="#bee6ce" fill="none" stroke-width="6"></path></g><g transform="translate(625 53)"><path d="M5.6 -1.8C6.2 0.2 5 2.7 3.2 4C1.3 5.3 -1.3 5.3 -3 4.1C-4.6 2.9 -5.3 0.5 -4.7 -1.5C-4 -3.5 -2 -5 0.2 -5.1C2.5 -5.2 4.9 -3.8 5.6 -1.8Z" stroke="#bee6ce" fill="none" stroke-width="6"></path></g><g transform="translate(1 74)"><path d="M5.5 -1.9C6.1 0.1 4.9 2.6 3 4C1 5.4 -1.7 5.7 -3.5 4.5C-5.2 3.2 -6.1 0.5 -5.4 -1.7C-4.7 -3.9 -2.3 -5.5 0 -5.5C2.4 -5.5 4.8 -3.9 5.5 -1.9Z" stroke="#bee6ce" fill="none" stroke-width="6"></path></g><g transform="translate(236 25)"><path d="M5.5 -1.9C6.3 0.5 5.3 3.3 3.5 4.6C1.6 5.9 -1.3 5.8 -3.3 4.4C-5.3 2.9 -6.4 0.2 -5.7 -2C-5.1 -4.3 -2.5 -6.1 -0.1 -6.1C2.4 -6.1 4.8 -4.2 5.5 -1.9Z" stroke="#bee6ce" fill="none" stroke-width="6"></path></g><g transform="translate(39 52)"><path d="M5.5 -1.7C6.3 0.4 5.3 3.2 3.5 4.5C1.6 5.8 -1.1 5.5 -2.9 4.2C-4.7 2.8 -5.6 0.4 -5 -1.7C-4.3 -3.8 -2.2 -5.4 0.1 -5.5C2.4 -5.5 4.8 -3.9 5.5 -1.7Z" stroke="#bee6ce" fill="none" stroke-width="6"></path></g><g transform="translate(807 90)"><path d="M5.5 -1.8C6.2 0.5 5.3 3.3 3.3 4.7C1.4 6.2 -1.7 6.3 -3.6 4.9C-5.6 3.5 -6.5 0.6 -5.7 -1.8C-4.9 -4.1 -2.5 -5.8 0 -5.8C2.4 -5.7 4.8 -4 5.5 -1.8Z" stroke="#bee6ce" fill="none" stroke-width="6"></path></g><g transform="translate(999 39)"><path d="M5 -1.6C5.6 0.4 4.7 2.8 3 4.1C1.3 5.4 -1.3 5.4 -3.1 4.1C-4.9 2.9 -5.9 0.3 -5.2 -1.6C-4.5 -3.6 -2.3 -5 -0.1 -5C2.2 -5 4.3 -3.5 5 -1.6Z" stroke="#bee6ce" fill="none" stroke-width="6"></path></g><g transform="translate(850 63)"><path d="M5.1 -1.5C5.8 0.5 5 3.2 3.3 4.5C1.5 5.8 -1.3 5.7 -3 4.4C-4.8 3 -5.5 0.5 -4.9 -1.5C-4.2 -3.4 -2.1 -4.8 0 -4.8C2.2 -4.8 4.4 -3.5 5.1 -1.5Z" stroke="#bee6ce" fill="none" stroke-width="6"></path></g><g transform="translate(898 39)"><path d="M5.6 -1.8C6.4 0.5 5.4 3.4 3.6 4.6C1.8 5.9 -1 5.5 -2.9 4.1C-4.7 2.7 -5.7 0.3 -5.1 -1.8C-4.4 -3.9 -2.2 -5.7 0.1 -5.7C2.4 -5.7 4.8 -4 5.6 -1.8Z" stroke="#bee6ce" fill="none" stroke-width="6"></path></g><g transform="translate(918 23)"><path d="M5.1 -1.7C5.9 0.5 5.1 3.2 3.3 4.5C1.5 5.8 -1.3 5.7 -3 4.4C-4.7 3.1 -5.3 0.6 -4.7 -1.6C-4 -3.9 -2 -5.8 0.1 -5.8C2.2 -5.8 4.4 -4 5.1 -1.7Z" stroke="#bee6ce" fill="none" stroke-width="6"></path></g><g transform="translate(111 95)"><path d="M5.4 -2C6 0.2 4.9 2.7 3.1 3.9C1.2 5.2 -1.3 5.2 -3.1 4C-4.9 2.8 -5.9 0.3 -5.2 -1.9C-4.6 -4 -2.3 -5.8 0 -5.8C2.4 -5.9 4.8 -4.1 5.4 -2Z" stroke="#bee6ce" fill="none" stroke-width="6"></path></g><g transform="translate(354 29)"><path d="M5 -1.4C5.8 0.7 5.2 3.5 3.5 4.7C1.8 5.9 -1 5.5 -2.7 4.2C-4.4 2.8 -5.2 0.4 -4.5 -1.5C-3.9 -3.4 -2 -4.9 0.1 -4.9C2.1 -4.9 4.2 -3.5 5 -1.4Z" stroke="#bee6ce" fill="none" stroke-width="6"></path></g><g transform="translate(570 15)"><path d="M5.6 -1.8C6.4 0.4 5.4 3.2 3.4 4.6C1.5 6 -1.4 6 -3.4 4.6C-5.3 3.2 -6.2 0.4 -5.5 -1.8C-4.8 -4 -2.4 -5.7 0 -5.7C2.5 -5.7 4.9 -4.1 5.6 -1.8Z" stroke="#bee6ce" fill="none" stroke-width="6"></path></g><g transform="translate(121 14)"><path d="M5.2 -1.6C5.9 0.5 5.1 3.2 3.4 4.5C1.6 5.7 -1 5.4 -2.8 4.1C-4.5 2.7 -5.3 0.4 -4.7 -1.6C-4.1 -3.6 -2.1 -5.3 0.1 -5.3C2.2 -5.4 4.5 -3.8 5.2 -1.6Z" stroke="#bee6ce" fill="none" stroke-width="6"></path></g><g transform="translate(84 66)"><path d="M4.7 -1.4C5.4 0.7 4.8 3.3 3.2 4.5C1.5 5.7 -1.2 5.5 -2.9 4.2C-4.6 2.9 -5.3 0.5 -4.7 -1.5C-4 -3.6 -2 -5.2 0 -5.2C2 -5.2 4 -3.6 4.7 -1.4Z" stroke="#bee6ce" fill="none" stroke-width="6"></path></g><g transform="translate(880 26)"><path d="M4.5 -1.4C5.1 0.6 4.6 3 3 4.2C1.5 5.3 -1.1 5.1 -2.8 3.9C-4.5 2.6 -5.5 0.3 -4.9 -1.6C-4.3 -3.5 -2.1 -5 -0.1 -4.9C1.9 -4.9 3.8 -3.4 4.5 -1.4Z" stroke="#bee6ce" fill="none" stroke-width="6"></path></g><g transform="translate(694 1)"><path d="M5.1 -1.8C5.7 0.2 4.6 2.6 2.8 4C0.9 5.4 -1.9 5.9 -3.7 4.7C-5.5 3.5 -6.3 0.6 -5.5 -1.7C-4.8 -4 -2.4 -5.6 -0.1 -5.6C2.2 -5.5 4.5 -3.8 5.1 -1.8Z" stroke="#bee6ce" fill="none" stroke-width="6"></path></g><g transform="translate(862 33)"><path d="M5.7 -1.6C6.5 0.5 5.5 3.4 3.6 4.8C1.6 6.2 -1.3 6.1 -3.3 4.6C-5.3 3.2 -6.3 0.4 -5.6 -1.7C-4.9 -3.8 -2.5 -5.2 0 -5.2C2.5 -5.2 4.9 -3.8 5.7 -1.6Z" stroke="#bee6ce" fill="none" stroke-width="6"></path></g><g transform="translate(250 76)"><path d="M5 -1.8C5.6 0.3 4.7 2.7 2.8 4.2C1 5.6 -1.8 6 -3.4 4.8C-5 3.6 -5.4 0.9 -4.7 -1.4C-3.9 -3.7 -1.9 -5.6 0.1 -5.6C2.2 -5.6 4.4 -3.9 5 -1.8Z" stroke="#bee6ce" fill="none" stroke-width="6"></path></g><g transform="translate(278 48)"><path d="M5.4 -1.4C6.1 0.7 5.4 3.6 3.7 4.8C1.9 6 -0.8 5.5 -2.8 4C-4.8 2.5 -6 0.1 -5.4 -1.8C-4.8 -3.6 -2.4 -4.9 -0.1 -4.9C2.3 -4.9 4.6 -3.6 5.4 -1.4Z" stroke="#bee6ce" fill="none" stroke-width="6"></path></g><g transform="translate(572 97)"><path d="M4.7 -1.5C5.3 0.4 4.5 2.8 2.9 4C1.3 5.1 -1.2 5.1 -2.9 3.9C-4.7 2.7 -5.7 0.3 -5 -1.7C-4.4 -3.6 -2.2 -5.1 -0.1 -5C2 -5 4.1 -3.5 4.7 -1.5Z" stroke="#bee6ce" fill="none" stroke-width="6"></path></g><g transform="translate(758 24)"><path d="M5 -1.7C5.7 0.6 5 3.3 3.3 4.6C1.6 5.9 -1.3 5.7 -3.2 4.3C-5.1 2.9 -6.2 0.3 -5.5 -1.9C-4.8 -4.2 -2.4 -6.1 -0.1 -6C2.1 -6 4.3 -4 5 -1.7Z" stroke="#bee6ce" fill="none" stroke-width="6"></path></g><g transform="translate(777 98)"><path d="M5.2 -1.4C5.9 0.7 5.3 3.5 3.5 4.8C1.8 6 -1 5.7 -2.8 4.3C-4.5 2.9 -5.2 0.5 -4.6 -1.4C-3.9 -3.3 -2 -4.7 0.1 -4.7C2.2 -4.7 4.4 -3.4 5.2 -1.4Z" stroke="#bee6ce" fill="none" stroke-width="6"></path></g><g transform="translate(536 95)"><path d="M4.8 -1.6C5.5 0.6 4.8 3.2 3.1 4.6C1.4 5.9 -1.5 6 -3.2 4.7C-4.9 3.4 -5.3 0.7 -4.6 -1.5C-3.9 -3.8 -1.9 -5.7 0 -5.7C2 -5.8 4.1 -3.9 4.8 -1.6Z" stroke="#bee6ce" fill="none" stroke-width="6"></path></g><g transform="translate(238 93)"><path d="M4.6 -1.6C5.2 0.4 4.5 2.8 2.7 4.1C1 5.5 -1.8 5.9 -3.5 4.7C-5.2 3.5 -5.9 0.7 -5.1 -1.5C-4.4 -3.7 -2.2 -5.4 -0.1 -5.3C2 -5.3 4 -3.6 4.6 -1.6Z" stroke="#bee6ce" fill="none" stroke-width="6"></path></g><g transform="translate(180 69)"><path d="M5.7 -2C6.3 0.1 5 2.6 3.1 3.9C1.2 5.3 -1.4 5.3 -3.3 4.1C-5.1 2.8 -6.3 0.2 -5.7 -2C-5 -4.2 -2.5 -5.9 0 -5.9C2.5 -5.9 5.1 -4.2 5.7 -2Z" stroke="#bee6ce" fill="none" stroke-width="6"></path></g><g transform="translate(679 50)"><path d="M5 -1.6C5.8 0.7 5.1 3.4 3.5 4.6C1.8 5.8 -0.9 5.4 -2.8 4C-4.8 2.5 -5.9 0.1 -5.3 -2C-4.7 -4 -2.4 -5.8 -0.1 -5.7C2.1 -5.7 4.3 -3.9 5 -1.6Z" stroke="#bee6ce" fill="none" stroke-width="6"></path></g><g transform="translate(432 44)"><path d="M5.7 -1.6C6.5 0.5 5.5 3.4 3.7 4.6C1.8 5.9 -0.9 5.5 -2.8 4.1C-4.7 2.6 -5.8 0.2 -5.1 -1.7C-4.5 -3.6 -2.3 -5 0.1 -5C2.5 -5.1 5 -3.7 5.7 -1.6Z" stroke="#bee6ce" fill="none" stroke-width="6"></path></g><g transform="translate(734 56)"><path d="M5.5 -1.6C6.2 0.5 5.3 3.3 3.4 4.6C1.5 6 -1.3 5.9 -3.1 4.5C-4.9 3.2 -5.5 0.6 -4.8 -1.4C-4.1 -3.5 -2.1 -5 0.2 -5C2.4 -5.1 4.8 -3.7 5.5 -1.6Z" stroke="#bee6ce" fill="none" stroke-width="6"></path></g><g transform="translate(544 69)"><path d="M5.6 -1.8C6.3 0.1 5 2.6 3 3.9C1.1 5.3 -1.5 5.4 -3.3 4.2C-5.2 2.9 -6.3 0.3 -5.6 -1.7C-5 -3.7 -2.5 -4.9 0 -5C2.5 -5 5 -3.7 5.6 -1.8Z" stroke="#bee6ce" fill="none" stroke-width="6"></path></g><g transform="translate(520 1)"><path d="M5 -1.7C5.7 0.4 4.8 3 3.1 4.3C1.3 5.6 -1.4 5.6 -3 4.4C-4.7 3.2 -5.2 0.6 -4.5 -1.5C-3.9 -3.7 -1.9 -5.6 0.1 -5.6C2.2 -5.6 4.3 -3.9 5 -1.7Z" stroke="#bee6ce" fill="none" stroke-width="6"></path></g><g transform="translate(608 65)"><path d="M5.7 -1.8C6.3 0.1 5.1 2.7 3.1 4.1C1.1 5.5 -1.6 5.7 -3.2 4.5C-4.8 3.3 -5.4 0.7 -4.7 -1.4C-4 -3.4 -2 -4.9 0.3 -5C2.5 -5.1 5 -3.8 5.7 -1.8Z" stroke="#bee6ce" fill="none" stroke-width="6"></path></g><g transform="translate(630 34)"><path d="M5.4 -1.8C6 0.1 4.8 2.6 3 3.8C1.3 5 -1.1 4.9 -2.9 3.7C-4.6 2.5 -5.6 0.2 -5.1 -1.7C-4.5 -3.6 -2.2 -5 0.1 -5C2.4 -5 4.8 -3.7 5.4 -1.8Z" stroke="#bee6ce" fill="none" stroke-width="6"></path></g><g transform="translate(25 65)"><path d="M5 -1.4C5.8 0.7 5.2 3.5 3.3 4.9C1.5 6.3 -1.5 6.3 -3.4 4.8C-5.3 3.4 -6 0.6 -5.3 -1.5C-4.5 -3.7 -2.3 -5.1 -0.1 -5.1C2.1 -5.1 4.2 -3.6 5 -1.4Z" stroke="#bee6ce" fill="none" stroke-width="6"></path></g><g transform="translate(642 73)"><path d="M4.8 -1.5C5.5 0.9 5.1 3.7 3.4 5C1.7 6.3 -1.3 6.1 -3.2 4.7C-5 3.3 -5.7 0.6 -5 -1.7C-4.3 -4 -2.1 -5.9 -0.1 -5.8C2 -5.8 4 -3.9 4.8 -1.5Z" stroke="#bee6ce" fill="none" stroke-width="6"></path></g><g transform="translate(532 33)"><path d="M5.2 -1.7C5.9 0.4 5 3 3.1 4.3C1.3 5.7 -1.5 5.8 -3.3 4.5C-5.1 3.2 -5.9 0.5 -5.2 -1.6C-4.5 -3.7 -2.2 -5.2 0 -5.2C2.3 -5.2 4.5 -3.7 5.2 -1.7Z" stroke="#bee6ce" fill="none" stroke-width="6"></path></g><g transform="translate(499 9)"><path d="M5.6 -1.8C6.2 0.1 5 2.6 3.1 3.8C1.2 5.1 -1.2 5.1 -2.9 3.9C-4.6 2.7 -5.5 0.3 -4.9 -1.6C-4.3 -3.4 -2.1 -4.8 0.2 -4.8C2.5 -4.9 5 -3.7 5.6 -1.8Z" stroke="#bee6ce" fill="none" stroke-width="6"></path></g><g transform="translate(685 31)"><path d="M5.2 -2C5.8 0.1 4.7 2.5 2.9 3.8C1 5.1 -1.5 5.3 -3.1 4.1C-4.7 3 -5.5 0.5 -4.8 -1.7C-4.1 -3.9 -2.1 -5.8 0.1 -5.8C2.3 -5.8 4.6 -4 5.2 -2Z" stroke="#bee6ce" fill="none" stroke-width="6"></path></g><g transform="translate(262 93)"><path d="M5.5 -2C6.2 0.2 5.1 2.9 3.1 4.2C1.2 5.6 -1.5 5.7 -3.2 4.5C-4.9 3.2 -5.6 0.6 -4.9 -1.7C-4.2 -3.9 -2.1 -5.9 0.2 -5.9C2.4 -6 4.8 -4.2 5.5 -2Z" stroke="#bee6ce" fill="none" stroke-width="6"></path></g><g transform="translate(938 71)"><path d="M4.7 -1.9C5.3 0.3 4.4 2.6 2.7 3.8C1 5.1 -1.5 5.3 -3.2 4.1C-4.9 3 -5.8 0.4 -5.1 -1.9C-4.4 -4.1 -2.2 -6 -0.1 -6C2.1 -6 4.1 -4 4.7 -1.9Z" stroke="#bee6ce" fill="none" stroke-width="6"></path></g><g transform="translate(952 23)"><path d="M5.6 -1.7C6.4 0.6 5.5 3.5 3.7 4.7C1.9 5.9 -0.9 5.5 -2.7 4.1C-4.6 2.6 -5.5 0.3 -4.9 -1.7C-4.3 -3.7 -2.1 -5.4 0.1 -5.4C2.4 -5.5 4.8 -3.9 5.6 -1.7Z" stroke="#bee6ce" fill="none" stroke-width="6"></path></g><g transform="translate(801 25)"><path d="M5.2 -1.7C6 0.6 5.3 3.4 3.4 4.8C1.5 6.2 -1.5 6.2 -3.2 4.8C-4.9 3.5 -5.4 0.8 -4.7 -1.5C-3.9 -3.8 -2 -5.7 0.1 -5.8C2.2 -5.8 4.5 -4 5.2 -1.7Z" stroke="#bee6ce" fill="none" stroke-width="6"></path></g><g transform="translate(204 67)"><path d="M4.9 -1.7C5.6 0.6 5 3.3 3.2 4.7C1.5 6 -1.4 6 -3.3 4.6C-5.3 3.2 -6.2 0.4 -5.5 -1.9C-4.8 -4.1 -2.4 -6 -0.2 -5.9C2.1 -5.9 4.2 -3.9 4.9 -1.7Z" stroke="#bee6ce" fill="none" stroke-width="6"></path></g><g transform="translate(452 64)"><path d="M4.5 -1.6C5.1 0.4 4.3 2.6 2.6 3.9C0.9 5.2 -1.7 5.5 -3.3 4.4C-5 3.2 -5.7 0.5 -5 -1.6C-4.3 -3.7 -2.2 -5.3 -0.1 -5.2C2 -5.2 3.9 -3.5 4.5 -1.6Z" stroke="#bee6ce" fill="none" stroke-width="6"></path></g><g transform="translate(982 86)"><path d="M5.1 -1.6C5.7 0.3 4.8 2.8 2.9 4.2C1.1 5.6 -1.7 6 -3.4 4.7C-5.1 3.5 -5.7 0.7 -4.9 -1.4C-4.2 -3.4 -2.1 -4.8 0.1 -4.9C2.2 -4.9 4.4 -3.5 5.1 -1.6Z" stroke="#bee6ce" fill="none" stroke-width="6"></path></g><g transform="translate(219 98)"><path d="M5.5 -1.9C6.2 0.2 5 2.8 3.1 4.2C1.2 5.5 -1.5 5.7 -3.3 4.4C-5 3.2 -5.8 0.5 -5.1 -1.7C-4.4 -3.9 -2.2 -5.6 0.1 -5.6C2.4 -5.6 4.9 -4 5.5 -1.9Z" stroke="#bee6ce" fill="none" stroke-width="6"></path></g><g transform="translate(713 2)"><path d="M5 -1.8C5.7 0.5 5 3.1 3.3 4.4C1.5 5.6 -1.1 5.4 -2.9 4C-4.8 2.7 -5.9 0.2 -5.2 -1.9C-4.6 -4.1 -2.3 -6 -0.1 -5.9C2.2 -5.9 4.3 -4 5 -1.8Z" stroke="#bee6ce" fill="none" stroke-width="6"></path></g><g transform="translate(515 43)"><path d="M5.6 -1.9C6.3 0.3 5.2 2.9 3.2 4.4C1.2 5.8 -1.7 6 -3.3 4.8C-4.9 3.6 -5.3 0.8 -4.6 -1.4C-3.8 -3.6 -1.9 -5.4 0.3 -5.5C2.5 -5.5 5 -4 5.6 -1.9Z" stroke="#bee6ce" fill="none" stroke-width="6"></path></g><g transform="translate(753 95)"><path d="M5.5 -2C6.1 0.1 4.9 2.6 3 3.9C1.2 5.2 -1.3 5.2 -3.2 4C-5 2.7 -6.2 0.2 -5.6 -1.9C-4.9 -4 -2.5 -5.7 0 -5.7C2.4 -5.7 4.9 -4 5.5 -2Z" stroke="#bee6ce" fill="none" stroke-width="6"></path></g><g transform="translate(78 38)"><path d="M4.7 -1.6C5.4 0.7 4.9 3.3 3.2 4.6C1.5 5.9 -1.3 5.8 -3.1 4.4C-4.9 3.1 -5.7 0.5 -5 -1.7C-4.4 -3.9 -2.2 -5.7 -0.1 -5.7C2 -5.7 4 -3.8 4.7 -1.6Z" stroke="#bee6ce" fill="none" stroke-width="6"></path></g><g transform="translate(835 14)"><path d="M5.3 -1.8C6 0.3 4.9 2.8 3.1 4.1C1.3 5.4 -1.3 5.4 -3 4.1C-4.7 2.9 -5.5 0.4 -4.9 -1.7C-4.2 -3.8 -2.1 -5.6 0.1 -5.6C2.3 -5.7 4.7 -4 5.3 -1.8Z" stroke="#bee6ce" fill="none" stroke-width="6"></path></g><g transform="translate(778 53)"><path d="M5.1 -1.6C5.9 0.6 5.1 3.3 3.4 4.5C1.7 5.6 -0.9 5.3 -2.6 3.9C-4.4 2.6 -5.2 0.3 -4.6 -1.7C-4.1 -3.6 -2 -5.2 0.1 -5.3C2.2 -5.3 4.4 -3.7 5.1 -1.6Z" stroke="#bee6ce" fill="none" stroke-width="6"></path></g><g transform="translate(474 4)"><path d="M5.2 -1.6C5.9 0.5 5.1 3.3 3.4 4.5C1.6 5.7 -1.1 5.5 -2.8 4.1C-4.5 2.8 -5.2 0.5 -4.6 -1.5C-3.9 -3.5 -2 -5.2 0.1 -5.2C2.2 -5.2 4.5 -3.7 5.2 -1.6Z" stroke="#bee6ce" fill="none" stroke-width="6"></path></g><g transform="translate(161 7)"><path d="M5.4 -1.8C6.1 0.5 5.2 3.2 3.4 4.5C1.5 5.8 -1.3 5.7 -3.1 4.4C-5 3 -5.9 0.4 -5.2 -1.8C-4.6 -4 -2.3 -5.8 0 -5.8C2.3 -5.8 4.6 -4 5.4 -1.8Z" stroke="#bee6ce" fill="none" stroke-width="6"></path></g><g transform="translate(259 54)"><path d="M5.5 -1.6C6.3 0.6 5.5 3.5 3.6 4.8C1.7 6.2 -1.2 5.9 -3.1 4.5C-4.9 3.1 -5.6 0.5 -5 -1.6C-4.3 -3.6 -2.1 -5.2 0.1 -5.2C2.4 -5.3 4.8 -3.8 5.5 -1.6Z" stroke="#bee6ce" fill="none" stroke-width="6"></path></g><g transform="translate(159 68)"><path d="M5 -1.8C5.6 0.2 4.6 2.5 2.8 3.8C1 5.1 -1.6 5.4 -3.2 4.2C-4.9 3.1 -5.7 0.5 -5 -1.6C-4.3 -3.7 -2.2 -5.4 0 -5.4C2.2 -5.4 4.4 -3.8 5 -1.8Z" stroke="#bee6ce" fill="none" stroke-width="6"></path></g><g transform="translate(79 1)"><path d="M5.5 -1.6C6.2 0.5 5.3 3.4 3.4 4.7C1.5 6.1 -1.4 6.1 -3.3 4.7C-5.1 3.3 -5.8 0.6 -5.1 -1.5C-4.4 -3.6 -2.2 -5 0.1 -5C2.4 -5.1 4.7 -3.7 5.5 -1.6Z" stroke="#bee6ce" fill="none" stroke-width="6"></path></g><g transform="translate(190 52)"><path d="M4.8 -1.5C5.5 0.7 5 3.3 3.2 4.7C1.4 6.1 -1.6 6.3 -3.5 4.9C-5.4 3.5 -6.2 0.6 -5.4 -1.6C-4.6 -3.9 -2.3 -5.6 -0.1 -5.5C2 -5.5 4.1 -3.7 4.8 -1.5Z" stroke="#bee6ce" fill="none" stroke-width="6"></path></g><g transform="translate(1 98)"><path d="M5.7 -1.9C6.4 0.4 5.4 3.2 3.4 4.6C1.5 6 -1.4 5.9 -3.3 4.6C-5.2 3.2 -6.1 0.4 -5.4 -1.8C-4.7 -4 -2.3 -5.8 0.1 -5.8C2.5 -5.8 5 -4.1 5.7 -1.9Z" stroke="#bee6ce" fill="none" stroke-width="6"></path></g><g transform="translate(42 99)"><path d="M5 -1.8C5.6 0.4 4.7 2.9 2.9 4.2C1.1 5.5 -1.6 5.7 -3.2 4.5C-4.9 3.3 -5.5 0.7 -4.8 -1.6C-4.1 -3.9 -2 -5.9 0.1 -5.9C2.2 -5.9 4.3 -4 5 -1.8Z" stroke="#bee6ce" fill="none" stroke-width="6"></path></g><g transform="translate(889 98)"><path d="M5.6 -2C6.2 0.1 5 2.6 3 4.1C1 5.5 -1.8 5.9 -3.5 4.6C-5.3 3.4 -6 0.6 -5.3 -1.7C-4.5 -3.9 -2.3 -5.7 0.1 -5.7C2.5 -5.8 5 -4.1 5.6 -2Z" stroke="#bee6ce" fill="none" stroke-width="6"></path></g><g transform="translate(452 36)"><path d="M5.1 -1.6C5.7 0.3 4.7 2.7 2.9 3.9C1.2 5.2 -1.4 5.3 -3.2 4C-5.1 2.7 -6.3 0.1 -5.7 -1.8C-5 -3.7 -2.5 -5 -0.1 -4.9C2.2 -4.9 4.4 -3.5 5.1 -1.6Z" stroke="#bee6ce" fill="none" stroke-width="6"></path></g><g transform="translate(754 5)"><path d="M4.9 -1.5C5.7 0.8 5.1 3.6 3.3 4.9C1.5 6.3 -1.5 6.3 -3.3 4.9C-5.1 3.6 -5.6 0.8 -4.8 -1.5C-4 -3.8 -2 -5.6 0 -5.6C2.1 -5.6 4.1 -3.8 4.9 -1.5Z" stroke="#bee6ce" fill="none" stroke-width="6"></path></g><g transform="translate(824 98)"><path d="M5.1 -1.5C5.9 0.7 5.2 3.5 3.5 4.8C1.8 6 -1 5.7 -3 4.2C-4.9 2.8 -5.9 0.3 -5.2 -1.7C-4.6 -3.7 -2.3 -5.2 -0.1 -5.2C2.2 -5.2 4.3 -3.6 5.1 -1.5Z" stroke="#bee6ce" fill="none" stroke-width="6"></path></g><g transform="translate(797 6)"><path d="M5.2 -1.6C6 0.5 5.2 3.3 3.4 4.6C1.6 5.8 -1.1 5.6 -3 4.2C-4.9 2.8 -5.9 0.3 -5.3 -1.8C-4.6 -3.8 -2.3 -5.4 0 -5.4C2.3 -5.4 4.5 -3.8 5.2 -1.6Z" stroke="#bee6ce" fill="none" stroke-width="6"></path></g><g transform="translate(505 75)"><path d="M4.8 -1.7C5.5 0.5 4.8 3.1 3.1 4.4C1.4 5.6 -1.3 5.6 -3 4.3C-4.8 3 -5.5 0.5 -4.8 -1.7C-4.1 -3.8 -2.1 -5.7 0 -5.7C2.1 -5.7 4.2 -3.8 4.8 -1.7Z" stroke="#bee6ce" fill="none" stroke-width="6"></path></g><g transform="translate(913 3)"><path d="M5.3 -1.8C6 0.3 5 2.9 3.2 4.3C1.3 5.6 -1.4 5.6 -3 4.4C-4.7 3.2 -5.2 0.7 -4.5 -1.5C-3.8 -3.6 -1.9 -5.4 0.2 -5.5C2.3 -5.5 4.7 -3.9 5.3 -1.8Z" stroke="#bee6ce" fill="none" stroke-width="6"></path></g><g transform="translate(997 18)"><path d="M5.3 -1.7C5.9 0.3 4.9 2.8 3 4.2C1.1 5.6 -1.6 5.8 -3.4 4.6C-5.1 3.3 -5.9 0.6 -5.1 -1.5C-4.4 -3.6 -2.2 -5 0.1 -5C2.3 -5 4.6 -3.6 5.3 -1.7Z" stroke="#bee6ce" fill="none" stroke-width="6"></path></g><g transform="translate(103 3)"><path d="M5.4 -1.9C6.1 0.4 5.1 3.1 3.2 4.5C1.3 5.9 -1.6 6 -3.5 4.6C-5.4 3.3 -6.4 0.4 -5.7 -1.8C-4.9 -4.1 -2.5 -5.9 0 -5.9C2.4 -5.9 4.7 -4.1 5.4 -1.9Z" stroke="#bee6ce" fill="none" stroke-width="6"></path></g><g transform="translate(9 30)"><path d="M4.8 -1.6C5.5 0.6 4.8 3.2 3.1 4.5C1.4 5.7 -1.3 5.7 -3 4.4C-4.7 3.1 -5.4 0.6 -4.7 -1.6C-4.1 -3.8 -2 -5.6 0 -5.6C2 -5.6 4.1 -3.8 4.8 -1.6Z" stroke="#bee6ce" fill="none" stroke-width="6"></path></g><g transform="translate(682 96)"><path d="M5.6 -1.6C6.4 0.5 5.5 3.4 3.7 4.6C1.9 5.8 -0.8 5.4 -2.8 3.9C-4.7 2.5 -5.9 0.1 -5.4 -1.8C-4.8 -3.7 -2.4 -5 0 -5.1C2.4 -5.1 4.9 -3.7 5.6 -1.6Z" stroke="#bee6ce" fill="none" stroke-width="6"></path></g><g transform="translate(483 63)"><path d="M5.4 -1.9C6.1 0.2 5 2.8 3.1 4.2C1.1 5.7 -1.7 5.9 -3.6 4.6C-5.5 3.3 -6.4 0.4 -5.7 -1.8C-5 -4.1 -2.5 -5.9 0 -5.8C2.4 -5.8 4.8 -4.1 5.4 -1.9Z" stroke="#bee6ce" fill="none" stroke-width="6"></path></g><g transform="translate(374 37)"><path d="M4.8 -1.5C5.6 0.9 5.1 3.7 3.4 5C1.6 6.3 -1.4 6.2 -3.4 4.8C-5.4 3.3 -6.3 0.5 -5.6 -1.8C-4.9 -4.1 -2.4 -5.9 -0.2 -5.8C2 -5.7 4 -3.8 4.8 -1.5Z" stroke="#bee6ce" fill="none" stroke-width="6"></path></g><g transform="translate(200 4)"><path d="M4.9 -1.6C5.5 0.5 4.8 3.1 3.1 4.3C1.4 5.5 -1.2 5.4 -3 4.2C-4.7 2.9 -5.5 0.4 -4.9 -1.7C-4.2 -3.8 -2.1 -5.5 0 -5.5C2.1 -5.5 4.2 -3.8 4.9 -1.6Z" stroke="#bee6ce" fill="none" stroke-width="6"></path></g><g transform="translate(220 1)"><path d="M4.6 -1.6C5.3 0.7 4.7 3.2 3.1 4.4C1.5 5.7 -1.3 5.6 -3.1 4.2C-5 2.9 -6.1 0.3 -5.4 -1.9C-4.7 -4.1 -2.4 -5.9 -0.2 -5.9C1.9 -5.8 3.9 -3.8 4.6 -1.6Z" stroke="#bee6ce" fill="none" stroke-width="6"></path></g><g transform="translate(862 78)"><path d="M4.6 -1.4C5.4 0.9 5 3.6 3.3 5C1.5 6.4 -1.6 6.4 -3.3 5C-5.1 3.6 -5.6 0.8 -4.8 -1.4C-4.1 -3.7 -2 -5.4 -0.1 -5.3C1.9 -5.3 3.8 -3.6 4.6 -1.4Z" stroke="#bee6ce" fill="none" stroke-width="6"></path></g></g></svg>